<svg width="110" height="45" viewBox="0 0 110 45" fill="none" xmlns="http://www.w3.org/2000/svg">
<path d="M35.0156 11.4825C34.6252 11.9008 34.1561 12.0991 33.619 12.2267C29.1371 13.2899 25.0027 15.1209 21.2022 17.7355C16.7008 20.8323 12.5098 24.2401 9.19295 28.6493C7.45187 30.9625 5.79928 33.324 4.39436 35.8553C4.23443 36.1431 4.153 36.5885 3.74783 36.5731C3.22935 36.5544 3.279 36.0218 3.1518 35.6807C2.82749 34.8093 2.58647 33.9046 2.21241 33.0549C1.93058 32.415 1.13295 32.0498 0.64968 32.2224C-0.0120999 32.4571 0.057319 33.0426 0.0529401 33.5787C0.0498535 33.8227 0.0520545 34.0695 0.0716554 34.3125C0.288907 37.0453 0.520843 39.777 0.724709 42.5122C0.802209 43.5352 1.223 44.3084 2.19783 44.6835C3.15279 45.0516 3.8981 44.6236 4.57416 43.969C6.9348 41.6897 9.30723 39.4227 11.6705 37.1434C11.9868 36.8384 12.2889 36.5104 12.5434 36.1549C12.8088 35.7836 12.9568 35.3448 12.6416 34.9283C12.3186 34.501 11.864 34.5622 11.4405 34.7479C11.0386 34.9233 10.6686 35.1727 10.2692 35.3562C9.84412 35.5539 9.50345 35.9532 8.95409 35.9459C8.85965 35.416 9.21458 35.113 9.43971 34.7596C12.5036 29.955 16.3782 25.904 20.9449 22.5163C23.7825 20.4111 26.7148 18.4556 30.075 17.2507C30.3676 17.1466 30.6757 16.8521 31.0417 17.2642C30.3763 18.8753 29.8007 20.5361 29.3457 22.2403C26.7386 32.0147 33.6736 40.8003 42.3039 41.8489C44.1111 42.0683 45.927 42.2533 47.7273 42.0445C52.424 41.4974 56.3812 39.4311 59.1728 35.5991C64.466 28.3275 60.3915 19.0496 55.5328 15.5085C51.8668 12.8347 47.6426 11.6712 43.1546 11.3751C42.4379 11.3275 41.7047 11.4556 40.9259 11.2321C41.0594 10.7837 41.2752 10.6515 41.4684 10.5097C44.3772 8.38037 47.5233 6.69817 50.9779 5.65374C58.7427 3.30831 66.6767 2.81716 74.6872 3.84252C79.9619 4.51691 85.0165 6.14759 89.9144 8.18889C96.2881 10.8504 101.934 14.5725 106.395 19.9335C107.472 21.2267 108.437 22.5779 108.46 24.3629C108.465 24.7044 108.403 25.1234 108.866 25.1718C109.364 25.2235 109.498 24.7978 109.596 24.4075C109.707 23.9707 109.658 23.5324 109.594 23.0937C109.442 22.0587 109.06 21.1074 108.511 20.2266C105.984 16.1663 102.655 12.8583 98.6672 10.2747C89.7873 4.52549 80.0809 1.03534 69.5017 0.302224C61.9556 -0.222576 54.5128 0.473531 47.3958 3.2815C42.6955 5.13428 38.4827 7.75611 35.0156 11.4825ZM37.5564 15.383C42.1984 14.8335 46.7177 15.0914 51.0973 16.954C55.8184 18.9614 58.9781 24.4029 58.1922 29.4315C57.7517 32.2484 56.2727 34.4529 53.992 36.0708C51.4993 37.8382 48.7243 38.8402 45.5999 38.6623C43.1377 38.5216 40.7267 38.2059 38.5326 36.9578C37.5861 36.4192 36.7677 35.7308 36.1652 35.0463C33.0066 31.8255 31.8673 28.1611 32.7408 23.8917C33.2661 21.3257 34.1647 18.9133 35.5628 16.6899C36.0338 15.9396 36.6381 15.493 37.5564 15.383Z" fill="#13AAA1"/>
</svg>
