<svg width="286" height="250" viewBox="0 0 286 250" fill="none" xmlns="http://www.w3.org/2000/svg">
<path fill-rule="evenodd" clip-rule="evenodd" d="M286 72.3109C270.002 71.7702 252.365 70.1338 233.025 67.4891C204.338 63.5663 180.623 67.4012 161.001 76.4807C141.4 85.5507 126.1 99.7536 114.061 116.247C90.0553 149.135 78.7707 191.49 72.0654 221.716L78.9048 223.231C85.5935 193.079 96.6426 151.988 119.722 120.369C131.225 104.609 145.655 91.2921 163.948 82.8274C182.221 74.3721 204.564 70.657 232.077 74.4193C251.653 77.0963 269.616 78.7663 286 79.3096V72.3109Z" fill="white" fill-opacity="0.5"/>
<path fill-rule="evenodd" clip-rule="evenodd" d="M286 49.5956C263.216 48.7597 237.301 44.2069 208.708 36.3049C179.739 28.2989 155.241 29.9287 134.61 38.0557C114.021 46.1661 97.5699 60.6326 84.4465 77.8428C58.2686 112.173 44.9292 157.958 38.207 188.261L45.0464 189.775C51.7182 159.699 64.7994 115.156 90.0203 82.0814C102.596 65.5892 118.089 52.0841 137.183 44.5627C156.234 37.0579 179.158 35.3956 206.842 43.0463C235.68 51.0162 262.287 55.7521 286 56.5949V49.5956Z" fill="white" fill-opacity="0.5"/>
<path fill-rule="evenodd" clip-rule="evenodd" d="M286 20.314C279.814 20.1749 273.257 19.7417 266.318 19.0523C239.592 16.3965 207.754 10.0079 170.436 2.50293C118.662 -7.90926 81.0673 15.4838 54.0655 48.2424C27.1733 80.868 10.4448 123.133 0 151.604L6.57774 154.012C17.0165 125.558 33.4117 84.3083 59.4747 52.6886C85.4281 21.202 120.62 -0.380676 169.055 9.3601C206.258 16.842 238.478 23.315 265.627 26.0128C272.729 26.7185 279.522 27.1707 286 27.3116V20.314Z" fill="white" fill-opacity="0.5"/>
<path fill-rule="evenodd" clip-rule="evenodd" d="M286 98.8535C276.417 97.4616 266.489 95.517 256.263 93.0288C207.831 81.2444 170.76 105.483 144.474 139.561C118.232 173.583 102.204 217.978 95.436 248.485L102.275 250C108.902 220.128 124.604 176.787 150.024 143.831C175.4 110.932 209.92 88.9519 254.606 99.8248C265.35 102.439 275.835 104.479 286 105.918V98.8535Z" fill="white" fill-opacity="0.5"/>
</svg>
