<svg width="24" height="30" viewBox="0 0 24 30" fill="none" xmlns="http://www.w3.org/2000/svg">
<path d="M19.5711 8.31723C17.9382 5.67681 15.1086 4.10073 12.0021 4.10073C12.0008 4.10073 11.9991 4.10073 11.9978 4.10073C8.89102 4.10073 6.06138 5.67681 4.42846 8.31723C4.42192 8.32793 4.4157 8.33895 4.41013 8.34998C3.14241 10.8762 2.9477 13.3072 3.83158 15.575C4.18598 16.4846 4.50176 17.0142 4.78024 17.4812C5.19584 18.1784 5.52406 18.7288 5.87355 20.3249C6.18901 21.7661 6.53621 22.7753 6.93806 23.4067C6.44785 23.6276 6.10589 24.1169 6.10589 24.6845C6.10589 25.0645 6.25936 25.4096 6.50806 25.6625C6.25969 25.9155 6.10621 26.2605 6.10621 26.6406C6.10621 27.4144 6.74139 28.0438 7.52218 28.0438H8.38871C8.31508 28.2135 8.27384 28.4006 8.27384 28.5968C8.27384 29.3705 8.90902 30 9.68981 30H14.2145C14.9953 30 15.6305 29.3705 15.6305 28.5968C15.6305 28.4006 15.5896 28.2138 15.5156 28.0438H16.3822C17.163 28.0438 17.7981 27.4144 17.7981 26.6406C17.7981 26.2605 17.6447 25.9155 17.3963 25.6625C17.6447 25.4096 17.7985 25.0645 17.7985 24.6845C17.7985 24.1458 17.4902 23.6772 17.0396 23.4424C17.4513 22.8136 17.8057 21.793 18.127 20.3249C18.4765 18.7288 18.8047 18.1781 19.2203 17.4812C19.4988 17.0139 19.8146 16.4843 20.169 15.575C21.0529 13.3072 20.8581 10.8766 19.5904 8.34998C19.5839 8.33895 19.5777 8.32793 19.5711 8.31723ZM16.3815 24.1319C16.6891 24.1319 16.9395 24.3799 16.9395 24.6848C16.9395 24.9896 16.6891 25.2377 16.3815 25.2377H7.52152C7.21392 25.2377 6.96358 24.9896 6.96358 24.6848C6.96358 24.3799 7.21392 24.1319 7.52152 24.1319H16.3815ZM14.7718 28.5968C14.7718 28.9016 14.5215 29.1497 14.2139 29.1497H9.68948C9.38188 29.1497 9.13154 28.9016 9.13154 28.5968C9.13154 28.2919 9.38188 28.0438 9.68948 28.0438H14.2142C14.5215 28.0438 14.7718 28.2919 14.7718 28.5968ZM16.3815 27.1939H7.52152C7.21392 27.1939 6.96358 26.9458 6.96358 26.6409C6.96358 26.3361 7.21392 26.088 7.52152 26.088H16.3815C16.6891 26.088 16.9395 26.3361 16.9395 26.6409C16.9395 26.9458 16.6891 27.1939 16.3815 27.1939ZM19.3679 15.2685C19.039 16.1123 18.7553 16.5884 18.4808 17.0486C18.0619 17.751 17.6666 18.4145 17.2876 20.1446C16.8073 22.3379 16.3439 23.0526 16.0687 23.2816H7.93057C7.65536 23.0526 7.19199 22.3379 6.71161 20.1446C6.33266 18.4145 5.93736 17.751 5.51849 17.0486C5.24394 16.5884 4.96022 16.1123 4.63135 15.2685C3.83976 13.2375 4.02072 11.0429 5.16933 8.74562C6.64681 6.36886 9.19764 4.95103 11.9975 4.95103C11.9988 4.95103 12.0001 4.95103 12.0011 4.95103C14.8006 4.95103 17.3518 6.36918 18.8293 8.74562C19.9785 11.0433 20.1595 13.2378 19.3679 15.2685ZM11.9998 11.3442C10.4572 11.3442 9.20222 12.5879 9.20222 14.1166C9.20222 15.6454 10.4572 16.889 11.9998 16.889C13.5424 16.889 14.7974 15.6454 14.7974 14.1166C14.7974 12.5879 13.5424 11.3442 11.9998 11.3442ZM11.9998 16.0384C10.9304 16.0384 10.0602 15.1761 10.0602 14.1163C10.0602 13.0565 10.9304 12.1942 11.9998 12.1942C13.0692 12.1942 13.9393 13.0565 13.9393 14.1163C13.9393 15.1761 13.0692 16.0384 11.9998 16.0384ZM16.9653 13.1385L15.9541 12.9767C15.87 12.6897 15.7549 12.4137 15.6092 12.1517L16.2091 11.3283C16.3321 11.159 16.3135 10.9265 16.1646 10.779L15.3677 9.9893C15.2188 9.84174 14.9839 9.82326 14.8134 9.94519L13.9825 10.5396C13.7181 10.3953 13.4396 10.2808 13.15 10.1978L12.9867 9.19575C12.953 8.98982 12.7737 8.83837 12.5633 8.83837H11.4366C11.2262 8.83837 11.0469 8.98982 11.0132 9.19575L10.8499 10.1978C10.5603 10.2808 10.2818 10.3953 10.0174 10.5396L9.18651 9.94519C9.0157 9.82293 8.78107 9.84174 8.63217 9.9893L7.83534 10.779C7.68645 10.9265 7.6678 11.159 7.79084 11.3283L8.39067 12.1517C8.24505 12.4137 8.12953 12.6897 8.04576 12.9767L7.03459 13.1385C6.82679 13.1719 6.67397 13.3497 6.67397 13.5582V14.6747C6.67397 14.8833 6.82679 15.061 7.03459 15.0944L8.04576 15.2562C8.12953 15.5432 8.24505 15.8192 8.39067 16.0812L7.79084 16.9046C7.6678 17.0739 7.68645 17.3064 7.83534 17.454L8.63217 18.2436C8.78107 18.3912 9.01602 18.4097 9.18651 18.2877L10.0174 17.6933C10.2818 17.8376 10.5603 17.9521 10.8499 18.0351L11.0132 19.0372C11.0469 19.2431 11.2262 19.3945 11.4366 19.3945H12.5633C12.7737 19.3945 12.953 19.2431 12.9867 19.0372L13.15 18.0351C13.4396 17.9517 13.7181 17.8376 13.9825 17.6933L14.8134 18.2877C14.9839 18.4097 15.2188 18.3912 15.3677 18.2436L16.1646 17.454C16.3135 17.3064 16.3321 17.0739 16.2091 16.9046L15.6092 16.0812C15.7549 15.8192 15.8704 15.5432 15.9541 15.2562L16.9653 15.0944C17.1731 15.061 17.3259 14.8833 17.3259 14.6747V13.5582C17.3259 13.3493 17.1731 13.1716 16.9653 13.1385ZM16.4679 14.3128L15.5385 14.4617C15.3638 14.4896 15.2244 14.6212 15.1874 14.7928C15.1046 15.178 14.9528 15.5409 14.7362 15.872C14.6396 16.0193 14.6445 16.21 14.7483 16.3523L15.2993 17.1089L15.0192 17.3865L14.2558 16.8404C14.1124 16.7376 13.9197 16.733 13.7711 16.8284C13.437 17.0431 13.0708 17.1935 12.6821 17.2756C12.509 17.3122 12.3761 17.4504 12.348 17.6236L12.1978 18.5446H11.8015L11.6513 17.6236C11.6231 17.4504 11.4903 17.3122 11.3172 17.2756C10.9284 17.1935 10.5622 17.0431 10.2281 16.8284C10.0795 16.7327 9.88713 16.7376 9.74347 16.8404L8.98003 17.3865L8.69991 17.1089L9.25098 16.3523C9.35471 16.21 9.3593 16.0193 9.26309 15.872C9.04646 15.5409 8.89462 15.1777 8.81183 14.7928C8.77485 14.6212 8.63544 14.4896 8.4607 14.4617L7.53134 14.3128V13.9201L8.4607 13.7712C8.63544 13.7434 8.77485 13.6117 8.81183 13.4401C8.89462 13.0552 9.04646 12.692 9.26309 12.3609C9.35962 12.2136 9.35471 12.023 9.25098 11.8806L8.69991 11.124L8.98003 10.8464L9.74347 11.3925C9.88713 11.4953 10.0795 11.4999 10.2281 11.4045C10.5622 11.1898 10.9287 11.039 11.3172 10.9573C11.4903 10.9207 11.6231 10.7825 11.6513 10.6094L11.8015 9.68835H12.1978L12.348 10.6094C12.3761 10.7825 12.509 10.9207 12.6821 10.9573C13.0705 11.0394 13.4367 11.1898 13.7711 11.4045C13.9197 11.4999 14.1121 11.4953 14.2558 11.3925L15.0192 10.8464L15.2993 11.124L14.7483 11.8806C14.6445 12.023 14.64 12.2136 14.7362 12.3609C14.9528 12.692 15.105 13.0552 15.1874 13.4401C15.2244 13.6117 15.3638 13.7434 15.5385 13.7712L16.4679 13.9201V14.3128ZM11.5708 2.14944V0.425152C11.5708 0.190362 11.7629 0 11.9998 0C12.2367 0 12.4288 0.190362 12.4288 0.425152V2.14944C12.4288 2.38423 12.2367 2.57459 11.9998 2.57459C11.7629 2.57459 11.5708 2.38423 11.5708 2.14944ZM4.94779 2.41179C4.82933 2.20846 4.89968 1.94837 5.10486 1.83098C5.31004 1.71358 5.57249 1.78331 5.69095 1.98664L6.56108 3.48002C6.67954 3.68336 6.60918 3.94344 6.404 4.06084C6.33659 4.09943 6.26263 4.11791 6.18999 4.11791C6.04175 4.11791 5.89744 4.0417 5.81824 3.90518L4.94779 2.41179ZM2.3073 8.12038C2.22778 8.25691 2.08379 8.33312 1.93555 8.33312C1.86291 8.33312 1.78895 8.31463 1.72154 8.27604L0.214605 7.41374C0.00942616 7.29634 -0.0609304 7.03626 0.0575301 6.83292C0.175991 6.62959 0.438436 6.55987 0.643615 6.67726L2.15055 7.53956C2.3554 7.65696 2.42576 7.91705 2.3073 8.12038ZM17.4388 3.48002L18.309 1.98664C18.4274 1.78331 18.6899 1.71358 18.895 1.83098C19.1002 1.94837 19.1706 2.20846 19.0521 2.41179L18.182 3.90518C18.1025 4.0417 17.9585 4.11791 17.8102 4.11791C17.7376 4.11791 17.6636 4.09943 17.5962 4.06084C17.3907 3.94312 17.3204 3.68336 17.4388 3.48002ZM23.7853 7.41374L22.2784 8.27604C22.211 8.31463 22.137 8.33312 22.0643 8.33312C21.9161 8.33312 21.7718 8.25691 21.6926 8.12038C21.5741 7.91705 21.6445 7.65696 21.8497 7.53956L23.3566 6.67726C23.5618 6.55987 23.8242 6.62959 23.9427 6.83292C24.0608 7.03626 23.9905 7.29634 23.7853 7.41374Z" fill="#13AAA1"/>
</svg>
