<svg width="30" height="30" viewBox="0 0 30 30" fill="none" xmlns="http://www.w3.org/2000/svg">
<path d="M25.7605 17.095C25.4981 16.7167 25.0667 16.4904 24.6065 16.4904C24.1462 16.4904 23.7148 16.7167 23.4524 17.095L20.2347 21.7432C19.6229 22.6267 19.2992 23.6625 19.2992 24.7385C19.2992 26.5126 20.1845 28.0816 21.534 29.035H18.3342V15.5254H14.4744V29.035H12.5445V18.4203H8.68463V29.035H6.75471V19.3853H2.89488V29.035H0.964959V20.0632L6.27223 14.7607L9.16711 17.6556L17.3693 9.45334L20.2641 12.3483L26.5364 6.07594L28.8074 8.347L30.0001 0L21.6532 1.1927L23.9242 3.46328L20.2641 7.12342L17.3693 4.22851L9.16711 12.4308L6.27223 9.53585L0.964959 14.8432V11.6655H3.85984V10.7006H0.964959V9.7356H2.89488V8.77063H0.964959V7.80565H3.85984V6.84068H0.964959V5.87571H2.89488V4.91074H0.964959V3.94577H3.85984V2.9808H0.964959V2.01583H2.89488V1.05085H0.964959V0.0858824H0V30H24.5606H24.6065H24.6523C27.553 30 29.9137 27.6392 29.9137 24.7385C29.9137 23.663 29.59 22.6267 28.9782 21.7432L25.7605 17.095ZM6.27223 10.9003L9.16711 13.7952L17.3693 5.59297L20.2641 8.48789L25.2887 3.46328L23.6999 1.87446L28.8624 1.13722L28.1252 6.29982L26.5364 4.71099L20.2641 10.9833L17.3693 8.08839L9.16711 16.2906L6.27223 13.3957L0.964959 18.6987V16.2077L6.27223 10.9003ZM15.4393 16.4904H17.3693V29.035H15.4393V16.4904ZM9.64959 19.3853H11.5795V29.035H9.64959V19.3853ZM3.85984 20.3503H5.78975V29.035H3.85984V20.3503ZM24.6523 29.035H24.6065H24.5606C22.1916 29.035 20.2641 27.1075 20.2641 24.7385C20.2641 23.8599 20.5285 23.0146 21.0284 22.2928L24.246 17.6445C24.4101 17.4081 24.8028 17.4081 24.9669 17.6445L28.1845 22.2928C28.6844 23.0141 28.9488 23.8594 28.9488 24.7385C28.9488 27.1075 27.0213 29.035 24.6523 29.035Z" fill="#13AAA1"/>
<path d="M25.0508 22.8857C25.2992 22.8857 25.5008 23.0969 25.5008 23.3572H26.4008C26.4008 22.5774 25.7951 21.9429 25.0508 21.9429V21H24.1508V21.9429H22.8008V23.3572C22.8008 24.1369 23.4065 24.7714 24.1508 24.7714H25.0508C25.2992 24.7714 25.5008 24.9826 25.5008 25.2429V25.7143H24.1508C23.9024 25.7143 23.7008 25.5031 23.7008 25.2429H22.8008C22.8008 26.0226 23.4065 26.6572 24.1508 26.6572V27.6H25.0508V26.6572H26.4008V25.2429C26.4008 24.4631 25.7951 23.8286 25.0508 23.8286H24.1508C23.9024 23.8286 23.7008 23.6174 23.7008 23.3572V22.8857H25.0508Z" fill="#13AAA1"/>
</svg>
