<svg width="30" height="30" viewBox="0 0 30 30" fill="none" xmlns="http://www.w3.org/2000/svg">
<path d="M20.5905 13.201L14.7908 23.4905H26.3883L20.5905 13.201ZM13.7324 23.7001L20.2347 12.1629C20.3931 11.8789 20.7855 11.8808 20.9421 12.158L27.4342 23.6742C27.6244 23.9859 27.3982 24.3276 27.0958 24.3276H14.0846C13.775 24.327 13.5728 23.9803 13.7324 23.7001ZM20.9985 9.27904L29.9446 25.1524C30.103 25.4315 29.902 25.7781 29.5924 25.7781V25.78H20.9985V28.1635C20.9985 29.1758 20.1939 30 19.2056 30H1.79462C0.80641 30 0 29.1758 0 28.1635V4.70252C0 4.67609 0.00360005 4.64843 0.00840011 4.62262C0.0102001 4.61217 0.0120002 4.60357 0.0150002 4.59312C0.0168002 4.58451 0.0204003 4.57406 0.0234003 4.56546L0.0582008 4.48986L0.121202 4.40627L4.29966 0.125384C4.37466 0.0467117 4.47846 0 4.59246 0H19.2056C20.1939 0 20.9985 0.824216 20.9985 1.83651V9.27904ZM20.1819 25.78H11.588C11.2837 25.78 11.0587 25.4382 11.2495 25.1266L20.1819 9.27781V1.83651C20.1819 1.2858 19.7433 0.836509 19.2056 0.836509H5.00046V3.28457C5.00046 4.29687 4.19585 5.12108 3.20764 5.12108H0.818411V28.1641C0.818411 28.7148 1.25702 29.1641 1.79462 29.1641H19.2056C19.7433 29.1641 20.1819 28.7148 20.1819 28.1641V25.78ZM28.8868 24.9422L20.5905 10.2219L12.2942 24.9422H28.8868ZM4.15205 23.5083C4.01585 23.3239 4.05365 23.0602 4.23365 22.9232C4.41546 22.7855 4.67106 22.8224 4.80486 23.0086L5.35447 23.7615L7.5007 20.8119C7.6351 20.6275 7.8919 20.5888 8.0719 20.7265C8.25191 20.866 8.28971 21.1272 8.15531 21.3116L5.68567 24.7038C5.52607 24.9287 5.19427 24.941 5.02567 24.7105L4.15205 23.5083ZM7.26969 23.3042C7.19829 23.0867 7.3123 22.8494 7.5265 22.7763C7.7389 22.7031 7.9705 22.8218 8.0419 23.0393C8.65571 24.9158 7.27989 26.799 5.38507 26.799C3.83585 26.799 2.58063 25.5114 2.58063 23.9262C2.58063 22.142 4.14905 20.7886 5.87348 21.0953C6.03008 21.1229 6.18668 21.1666 6.33788 21.2243C6.54848 21.3042 6.65589 21.5452 6.57789 21.7609C6.49808 21.9773 6.26468 22.0867 6.05408 22.0068C5.35147 21.7369 4.51326 21.9404 3.98105 22.4856C3.20404 23.2815 3.20404 24.571 3.98105 25.3657C4.76346 26.1672 6.02348 26.1567 6.79929 25.3657C7.3447 24.8095 7.5025 24.0172 7.26969 23.3042ZM9.35112 18.0289C9.12492 18.0289 8.94312 17.8408 8.94312 17.6091C8.94312 17.3792 9.12492 17.1911 9.35112 17.1911H13.0202C13.2446 17.1911 13.4282 17.3792 13.4282 17.6091C13.4282 17.8408 13.2446 18.0289 13.0202 18.0289H9.35112ZM9.35112 15.59C9.12492 15.59 8.94312 15.402 8.94312 15.1721C8.94312 14.9404 9.12492 14.7542 9.35112 14.7542H14.8466C15.0728 14.7542 15.2546 14.9404 15.2546 15.1721C15.2546 15.402 15.0728 15.59 14.8466 15.59H9.35112ZM4.15205 16.177C4.01585 15.9926 4.05365 15.7308 4.23365 15.5919C4.41546 15.4542 4.67106 15.4923 4.80486 15.6773L5.35447 16.4302L7.5007 13.4825C7.6351 13.2963 7.8919 13.2594 8.0719 13.3971C8.25191 13.5347 8.28971 13.7978 8.15531 13.9822L5.68567 17.3725C5.52607 17.5993 5.19427 17.6091 5.02567 17.3792L4.15205 16.177ZM7.26969 15.9748C7.19829 15.7554 7.3123 15.5181 7.5265 15.445C7.7389 15.3719 7.9705 15.4905 8.0419 15.7099C8.65571 17.5845 7.27989 19.4677 5.38507 19.4677C3.83585 19.4677 2.58063 18.1819 2.58063 16.595C2.58063 14.8107 4.14905 13.4591 5.87348 13.7658C6.03008 13.7935 6.18668 13.8353 6.33788 13.8949C6.54848 13.9748 6.65589 14.2157 6.57789 14.4296C6.49808 14.6454 6.26468 14.7554 6.05408 14.6755C5.35147 14.4069 4.51326 14.6091 3.98105 15.1561C3.20404 15.9508 3.20404 17.2397 3.98105 18.0344C4.76346 18.8377 6.02348 18.8254 6.79929 18.0344C7.3447 17.4782 7.5025 16.6859 7.26969 15.9748ZM4.15205 8.75292C4.01585 8.56853 4.05365 8.3067 4.23365 8.16902C4.41546 8.0295 4.67106 8.06822 4.80486 8.25261L5.35447 9.00676L7.5007 6.05716C7.6351 5.87277 7.8919 5.83405 8.0719 5.97173C8.25191 6.1094 8.28971 6.37247 8.15531 6.55685L5.68567 9.94899C5.52607 10.1739 5.19427 10.1856 5.02567 9.95575L4.15205 8.75292ZM7.26969 8.55132C7.19829 8.3319 7.3123 8.0965 7.5265 8.02336C7.7389 7.95022 7.9705 8.067 8.0419 8.28642C8.65571 10.161 7.27989 12.0443 5.38507 12.0443C3.83585 12.0443 2.58063 10.7585 2.58063 9.17148C2.58063 7.38722 4.14905 6.03565 5.87348 6.34235C6.03008 6.37001 6.18668 6.4118 6.33788 6.47142C6.54848 6.55132 6.65589 6.79226 6.57789 7.00799C6.49808 7.2225 6.26468 7.3319 6.05408 7.252C5.35147 6.98341 4.51326 7.18746 3.98105 7.73264C3.20404 8.52735 3.20404 9.81623 3.98105 10.6128C4.76346 11.4143 6.02348 11.402 6.79929 10.6109C7.3447 10.0565 7.5025 9.26183 7.26969 8.55132ZM9.35112 25.3583C9.12492 25.3583 8.94312 25.1721 8.94312 24.9404C8.94312 24.7087 9.12492 24.5224 9.35112 24.5224H10.1353C10.3615 24.5224 10.5433 24.7087 10.5433 24.9404C10.5433 25.1721 10.3615 25.3583 10.1353 25.3583H9.35112ZM9.35112 22.9213C9.12492 22.9213 8.94312 22.7333 8.94312 22.5015C8.94312 22.2717 9.12492 22.0836 9.35112 22.0836H9.90913C10.1353 22.0836 10.3171 22.2717 10.3171 22.5015C10.3171 22.7333 10.1353 22.9213 9.90913 22.9213H9.35112ZM9.35112 8.16595C9.12492 8.16595 8.94312 7.97972 8.94312 7.748C8.94312 7.51629 9.12492 7.33006 9.35112 7.33006H17.0762C17.3024 7.33006 17.486 7.51629 17.486 7.748C17.486 7.97972 17.3024 8.16595 17.0762 8.16595H9.35112ZM9.35112 10.6054C9.12492 10.6054 8.94312 10.4173 8.94312 10.1875C8.94312 9.95575 9.12492 9.76767 9.35112 9.76767H12.9398C13.166 9.76767 13.3478 9.95575 13.3478 10.1875C13.3478 10.4173 13.166 10.6054 12.9398 10.6054H9.35112ZM1.39682 4.28457H3.20824C3.74405 4.28457 4.18445 3.83528 4.18445 3.28457V1.42901L1.39682 4.28457ZM20.9985 22.0934C20.9985 22.3251 20.8167 22.5114 20.5905 22.5114C20.3643 22.5114 20.1825 22.3251 20.1825 22.0934V21.2674C20.1825 21.0356 20.3643 20.8494 20.5905 20.8494C20.8167 20.8494 20.9985 21.0356 20.9985 21.2674V22.0934ZM20.9985 19.9404C20.9985 20.1721 20.8167 20.3602 20.5905 20.3602C20.3643 20.3602 20.1825 20.1721 20.1825 19.9404V15.4628C20.1825 15.2311 20.3643 15.043 20.5905 15.043C20.8167 15.043 20.9985 15.2311 20.9985 15.4628V19.9404Z" fill="#13AAA1"/>
</svg>
