<svg width="25" height="30" viewBox="0 0 25 30" fill="none" xmlns="http://www.w3.org/2000/svg">
<path d="M1.6971 20.8177H3.72593C4.20501 20.8177 4.62747 21.0148 4.9396 21.3329C5.23358 20.9836 5.6045 20.7539 7.4867 20.2089C8.82014 19.8249 9.92275 19.0545 10.5318 18.627C11.0587 18.2596 11.1858 18.1668 11.5995 18.2632C11.569 18.1378 11.5458 18.0067 11.5335 17.8748H11.4529C11.1727 17.8748 10.9448 17.6465 10.9448 17.3675V15.6848C7.87505 13.692 7.39161 9.36784 10.0026 6.76337C12.2601 4.50964 15.9185 4.50964 18.1753 6.76337C20.6694 9.25335 20.3601 13.347 17.5619 15.4529V17.3675C17.5619 17.6465 17.3332 17.8748 17.0538 17.8748H16.9732C16.9507 18.1132 16.897 18.3429 16.8171 18.561C18.0206 18.3886 19.0949 19.3582 19.0376 20.58C19.0354 20.6271 19.0253 20.6742 19.0107 20.7177C18.7886 21.4242 17.3318 26.5723 17.2512 26.7281H17.2534C16.5907 28.0405 14.7985 28.4724 13.4425 28.6608C13.4302 28.663 13.4179 28.663 13.4055 28.6652C6.92197 29.0985 5.29238 29.3326 5.03904 29.3717C5.02888 29.3782 4.5861 30 3.72448 30H1.69565C0.761446 30 0 29.2376 0 28.305V22.5098C0 21.5771 0.761446 20.8148 1.69565 20.8148L1.6971 20.8177ZM3.72593 21.8322H1.6971C1.32473 21.8322 1.01623 22.1402 1.01623 22.512V28.3072C1.01623 28.6789 1.32473 28.9869 1.6971 28.9869H3.72593C4.09831 28.9869 4.4068 28.6789 4.4068 28.3072V22.512C4.4068 22.1402 4.09831 21.8322 3.72593 21.8322ZM13.1413 20.1068C13.211 21.4155 12.1287 22.833 11.1618 23.7019C12.3385 23.7287 12.9642 23.7468 13.3119 23.5091C13.6763 23.2584 13.9659 22.6236 14.5502 21.3438C14.7048 21.0046 14.8798 20.6227 15.067 20.2198C14.4334 20.4169 13.7438 20.3756 13.1413 20.1068ZM5.61249 22.1156C5.38819 22.4091 5.42086 22.2859 5.42086 22.512V28.305C6.33619 28.1963 8.51527 27.9782 13.3264 27.6557C13.9521 27.5694 14.6228 27.4296 15.1926 27.1933C15.6964 26.9839 16.1167 26.7006 16.3308 26.31L18.0286 20.48C18.0264 20.2727 17.9568 20.0792 17.837 19.9234C17.4007 19.348 16.5057 19.4676 16.2321 20.1285H16.2299L16.2219 20.1488C15.9047 20.8126 15.6724 21.3235 15.4706 21.7634C14.8123 23.2098 14.4827 23.9287 13.8846 24.3396C13.2712 24.7606 12.5722 24.7439 11.1771 24.7135C10.7227 24.7034 10.1891 24.691 9.56562 24.691C9.01613 24.691 8.86224 23.9272 9.37398 23.7171C10.0077 23.4584 10.9644 22.6265 11.5836 21.6858C12.0118 21.0307 12.2623 20.3488 12.0626 19.8452C11.9313 19.5125 11.6286 19.2763 11.2743 19.2306C11.1408 19.214 11.2925 19.3292 11.1117 19.4567C10.4534 19.9169 9.2622 20.7488 7.76834 21.18C5.92026 21.7141 5.82154 21.8416 5.61176 22.1148L5.61249 22.1156ZM4.08814 11.0005C3.8065 11.0005 3.58003 10.7723 3.58003 10.4933C3.58003 10.2143 3.8065 9.98599 4.08814 9.98599H7.05336C7.33282 9.98599 7.56147 10.2121 7.56147 10.4933C7.56147 10.7744 7.33282 11.0005 7.05336 11.0005H4.08814ZM6.65775 3.79004C6.46031 3.59075 6.46031 3.27045 6.65775 3.07334C6.85519 2.87405 7.17821 2.87405 7.37564 3.07334L9.47271 5.16692C9.67232 5.36403 9.67232 5.68433 9.47271 5.88362C9.27527 6.08073 8.95225 6.08073 8.75481 5.88362L6.65848 3.79004H6.65775ZM24.0919 9.98526C24.3721 9.98526 24.6 10.2114 24.6 10.4925C24.6 10.7737 24.3713 10.9998 24.0919 10.9998H21.1267C20.8472 10.9998 20.6186 10.7715 20.6186 10.4925C20.6186 10.2135 20.8472 9.98526 21.1267 9.98526H24.0919ZM20.8037 3.07261C21.0011 2.87333 21.3219 2.87333 21.5216 3.07261C21.719 3.26972 21.719 3.59003 21.5216 3.78931L19.4245 5.88289C19.2249 6.08 18.904 6.08 18.7066 5.88289C18.507 5.68361 18.507 5.3633 18.7066 5.16619L20.8037 3.07261ZM13.5812 0.505097C13.5812 0.226098 13.8098 0 14.0893 0C14.3688 0 14.5974 0.226098 14.5974 0.505097V3.46756C14.5974 3.74656 14.3688 3.97483 14.0893 3.97483C13.8098 3.97483 13.5812 3.74656 13.5812 3.46756V0.505821V0.505097ZM15.4677 18.8263C15.7189 18.5734 15.8938 18.2429 15.949 17.8755H12.5577C12.7675 19.2517 14.4711 19.8205 15.467 18.8263H15.4677ZM11.9617 15.9008V16.8602H16.5464V15.9008H11.9617ZM17.4574 7.4808C15.5969 5.62346 12.5809 5.62346 10.7205 7.4808C9.20195 8.99681 8.88329 11.3571 9.95904 13.218C10.3503 13.8978 10.9078 14.471 11.5763 14.8862H16.5986C17.2694 14.471 17.829 13.8941 18.2224 13.2122C19.2946 11.3513 18.9737 8.99464 17.4574 7.4808Z" fill="#13AAA1"/>
</svg>
