<svg width="30" height="30" viewBox="0 0 30 30" fill="none" xmlns="http://www.w3.org/2000/svg">
<path d="M15 8.37305C11.3459 8.37305 8.37305 11.3459 8.37305 15C8.37305 15.7643 8.50967 16.4956 8.7488 17.1793C8.75288 17.2523 8.77982 17.3168 8.81976 17.3727C9.77692 19.8567 12.1828 21.6269 15 21.6269C15.0001 21.6269 15.0005 21.6269 15.0005 21.6269C18.6544 21.6266 21.6269 18.6539 21.6269 15C21.6269 11.3459 18.654 8.37305 15 8.37305ZM20.2517 12.3774H18.1794C17.6891 10.9662 16.8913 9.9153 16.2886 9.2699C18.0267 9.66071 19.472 10.8228 20.2517 12.3774ZM9.12305 15C9.12305 14.3448 9.23547 13.7164 9.43423 13.1274H11.6063C11.4651 13.7038 11.3752 14.3256 11.3752 15C11.3752 15.6385 11.4626 16.2306 11.5992 16.7842H9.4018C9.2219 16.221 9.12305 15.6221 9.12305 15ZM12.1252 15C12.1252 14.3233 12.2242 13.6989 12.3823 13.1274H14.625V16.7842H12.3725C12.2194 16.2352 12.1252 15.64 12.1252 15ZM17.3726 12.3774H15.375V9.41949C15.8727 9.88946 16.7968 10.9044 17.3726 12.3774ZM14.625 9.45282V12.3774H12.6353C13.2047 10.9453 14.1128 9.93906 14.625 9.45282ZM14.625 17.5342V20.4346C14.0452 19.8782 13.175 18.8835 12.6291 17.5342H14.625ZM15.375 20.4302V17.5342H17.3691C16.8219 18.8828 15.9541 19.8734 15.375 20.4302ZM15.375 16.7842V13.1274H17.6233C17.7783 13.6983 17.8744 14.3231 17.8744 15C17.8744 15.6402 17.7772 16.2344 17.6231 16.7842H15.375ZM18.3963 13.1274H20.5658C20.7645 13.7164 20.8769 14.3448 20.8769 15C20.8769 15.6221 20.7781 16.221 20.5982 16.7842H18.4005C18.5371 16.2306 18.6244 15.6385 18.6244 15C18.6244 14.3256 18.5357 13.7038 18.3963 13.1274ZM13.7504 9.25983C13.1386 9.90472 12.3249 10.9595 11.8259 12.3774H9.74831C10.5339 10.811 11.9948 9.64178 13.7504 9.25983ZM9.70564 17.5342H11.8234C12.3465 18.9945 13.2234 20.0925 13.8903 20.7685C12.0397 20.4131 10.5 19.1866 9.70564 17.5342ZM16.1096 20.7685C16.7764 20.0925 17.6532 18.9945 18.1763 17.5342H20.2944C19.5 19.1866 17.9602 20.4132 16.1096 20.7685Z" fill="#13AAA1"/>
<path d="M29.4875 5.3966C29.4875 2.70312 27.2961 0.511719 24.6027 0.511719C21.9092 0.511719 19.7178 2.70312 19.7178 5.3966C19.7178 8.09008 21.9092 10.2815 24.6027 10.2815C27.2961 10.2815 29.4875 8.09008 29.4875 5.3966ZM22.1362 8.70749C22.1818 7.65692 22.8682 6.75655 23.8827 6.44854C24.027 6.4046 24.1313 6.27807 24.1467 6.12774C24.1621 5.97741 24.0856 5.83258 23.953 5.76025C23.4758 5.50042 23.1792 5.00219 23.1792 4.45965C23.1792 3.64374 23.8431 2.9798 24.6591 2.9798C25.475 2.9798 26.1389 3.64374 26.1389 4.45965C26.1389 5.01831 25.8284 5.52331 25.3285 5.77783C25.1934 5.84631 25.1132 5.98931 25.1245 6.14019C25.1359 6.29107 25.2369 6.42034 25.3805 6.46795C26.3604 6.79267 27.024 7.68476 27.0692 8.70742C26.3796 9.2225 25.5276 9.53149 24.6027 9.53149C23.6777 9.53149 22.8257 9.22252 22.1362 8.70749ZM20.4678 5.3966C20.4678 3.11658 22.3226 1.26172 24.6027 1.26172C26.8827 1.26172 28.7375 3.11658 28.7375 5.3966C28.7375 6.42275 28.3596 7.36073 27.7385 8.08431C27.5385 7.22539 26.9986 6.48276 26.236 6.03601C26.6487 5.62512 26.8889 5.06317 26.8889 4.45965C26.8889 3.2301 25.8884 2.2298 24.6591 2.2298C23.4297 2.2298 22.4292 3.2301 22.4292 4.45965C22.4292 5.03918 22.6537 5.58502 23.0404 5.99316C22.2376 6.43376 21.6714 7.19367 21.4665 8.08399C20.8456 7.36048 20.4678 6.42259 20.4678 5.3966Z" fill="#13AAA1"/>
<path d="M5.3966 0.511719C2.70312 0.511719 0.511719 2.70312 0.511719 5.3966C0.511719 8.09008 2.70312 10.2815 5.3966 10.2815C8.09008 10.2815 10.2815 8.09008 10.2815 5.3966C10.2815 2.70312 8.09008 0.511719 5.3966 0.511719ZM2.92978 8.70722C2.97556 7.65692 3.66191 6.75653 4.67663 6.44854C4.82092 6.4046 4.92529 6.27807 4.94067 6.12774C4.95605 5.97741 4.87951 5.83258 4.74695 5.76025C4.26977 5.50042 3.97314 5.00219 3.97314 4.45965C3.97314 3.64374 4.63708 2.9798 5.45299 2.9798C6.26892 2.9798 6.93286 3.64374 6.93286 4.45965C6.93286 5.01812 6.62231 5.52331 6.12207 5.77783C5.9873 5.84649 5.9071 5.9895 5.91845 6.14038C5.92981 6.29126 6.03088 6.42034 6.17443 6.46795C7.15439 6.79267 7.81792 7.68476 7.86315 8.70742C7.17359 9.2225 6.32156 9.53149 5.3966 9.53149C4.47153 9.53149 3.61938 9.22241 2.92978 8.70722ZM8.53246 8.08429C8.3324 7.22532 7.79249 6.48278 7.02954 6.03601C7.44262 5.62494 7.68286 5.06299 7.68286 4.45965C7.68286 3.2301 6.68237 2.2298 5.45299 2.2298C4.22363 2.2298 3.22314 3.2301 3.22314 4.45965C3.22314 5.03918 3.44763 5.58502 3.83398 5.99316C3.03157 6.43371 2.46527 7.19351 2.26019 8.0837C1.63944 7.3602 1.26172 6.42245 1.26172 5.3966C1.26172 3.11658 3.11658 1.26172 5.3966 1.26172C7.67663 1.26172 9.53149 3.11658 9.53149 5.3966C9.53149 6.42275 9.15354 7.36073 8.53246 8.08429Z" fill="#13AAA1"/>
<path d="M24.6027 29.5281C27.2961 29.5281 29.4875 27.3367 29.4875 24.6432C29.4875 21.9497 27.2961 19.7583 24.6027 19.7583C21.9092 19.7583 19.7178 21.9497 19.7178 24.6432C19.7178 27.3367 21.9092 29.5281 24.6027 29.5281ZM22.1362 27.9541C22.1818 26.9035 22.8682 26.0031 23.8827 25.6951C24.027 25.6512 24.1313 25.5247 24.1467 25.3743C24.1621 25.224 24.0856 25.0792 23.953 25.0068C23.4758 24.747 23.1792 24.2488 23.1792 23.7062C23.1792 22.8903 23.8431 22.2264 24.6591 22.2264C25.475 22.2264 26.1389 22.8903 26.1389 23.7062C26.1389 24.2649 25.8284 24.7699 25.3285 25.0244C25.1934 25.0929 25.1132 25.2359 25.1245 25.3868C25.1359 25.5377 25.2369 25.6669 25.3805 25.7145C26.3604 26.0392 27.024 26.9313 27.0692 27.954C26.3796 28.4691 25.5276 28.7781 24.6027 28.7781C23.6777 28.7781 22.8257 28.4691 22.1362 27.9541ZM24.6027 20.5083C26.8827 20.5083 28.7375 22.3632 28.7375 24.6432C28.7375 25.6693 28.3596 26.6073 27.7385 27.3309C27.5385 26.472 26.9986 25.7293 26.236 25.2826C26.6487 24.8717 26.8889 24.3098 26.8889 23.7062C26.8889 22.4767 25.8884 21.4764 24.6591 21.4764C23.4297 21.4764 22.4292 22.4767 22.4292 23.7062C22.4292 24.2858 22.6537 24.8316 23.0404 25.2397C22.2376 25.6803 21.6714 26.4402 21.4665 27.3306C20.8456 26.6071 20.4678 25.6692 20.4678 24.6432C20.4678 22.3632 22.3226 20.5083 24.6027 20.5083Z" fill="#13AAA1"/>
<path d="M5.3966 29.5281C8.09008 29.5281 10.2815 27.3367 10.2815 24.6432C10.2815 21.9497 8.09008 19.7583 5.3966 19.7583C2.70312 19.7583 0.511719 21.9497 0.511719 24.6432C0.511719 27.3367 2.70312 29.5281 5.3966 29.5281ZM2.92978 27.9538C2.97556 26.9035 3.66191 26.0031 4.67663 25.6951C4.82092 25.6512 4.92529 25.5247 4.94067 25.3743C4.95605 25.224 4.87951 25.0792 4.74695 25.0068C4.26977 24.747 3.97314 24.2488 3.97314 23.7062C3.97314 22.8903 4.63708 22.2264 5.45299 22.2264C6.26892 22.2264 6.93286 22.8903 6.93286 23.7062C6.93286 24.2647 6.62231 24.7699 6.12207 25.0244C5.9873 25.0931 5.9071 25.2361 5.91845 25.387C5.92981 25.5378 6.03088 25.6669 6.17443 25.7145C7.15439 26.0392 7.81792 26.9313 7.86315 27.954C7.17359 28.4691 6.32156 28.7781 5.3966 28.7781C4.47153 28.7781 3.61938 28.469 2.92978 27.9538ZM5.3966 20.5083C7.67663 20.5083 9.53149 22.3632 9.53149 24.6432C9.53149 25.6693 9.15354 26.6073 8.53246 27.3309C8.3324 26.4719 7.79249 25.7294 7.02954 25.2826C7.44262 24.8715 7.68286 24.3096 7.68286 23.7062C7.68286 22.4767 6.68237 21.4764 5.45299 21.4764C4.22363 21.4764 3.22314 22.4767 3.22314 23.7062C3.22314 24.2858 3.44763 24.8316 3.83398 25.2397C3.03157 25.6803 2.46527 26.4401 2.26019 27.3303C1.63944 26.6068 1.26172 25.669 1.26172 24.6432C1.26172 22.3632 3.11658 20.5083 5.3966 20.5083Z" fill="#13AAA1"/>
<path d="M19.5617 1.06183C18.1335 0.357239 16.5987 0 15.0002 0C13.4017 0 11.8669 0.357239 10.4387 1.06183C10.253 1.15356 10.1765 1.37842 10.2684 1.56409C10.36 1.74994 10.5848 1.82611 10.7705 1.73456C12.0947 1.08124 13.5178 0.75 15.0002 0.75C16.4826 0.75 17.9057 1.08124 19.23 1.73456C19.2834 1.76074 19.3398 1.77319 19.3955 1.77319C19.5339 1.77319 19.6668 1.69647 19.732 1.56409C19.8239 1.37842 19.7474 1.15356 19.5617 1.06183Z" fill="#13AAA1"/>
<path d="M1.06201 19.5614C1.1272 19.6938 1.26013 19.7705 1.39856 19.7705C1.45422 19.7705 1.51062 19.758 1.56409 19.7318C1.74975 19.6401 1.82629 19.4153 1.73437 19.2296C1.08105 17.9056 0.75 16.4825 0.75 14.9999C0.75 13.5172 1.08105 12.0942 1.73437 10.7701C1.82629 10.5844 1.74975 10.3596 1.56409 10.2679C1.37768 10.177 1.15356 10.2528 1.06201 10.4383C0.357422 11.8666 0 13.4012 0 14.9999C0 16.5985 0.357422 18.1332 1.06201 19.5614Z" fill="#13AAA1"/>
<path d="M10.4387 28.9381C11.8669 29.6427 13.4017 30 15.0002 30C16.5987 30 18.1335 29.6427 19.5617 28.9381C19.7474 28.8464 19.8239 28.6215 19.732 28.4359C19.6405 28.2502 19.416 28.1744 19.23 28.2654C17.9057 28.9187 16.4826 29.25 15.0002 29.25C13.5178 29.25 12.0947 28.9187 10.7705 28.2654C10.5844 28.1748 10.36 28.2504 10.2684 28.4359C10.1765 28.6215 10.253 28.8464 10.4387 28.9381Z" fill="#13AAA1"/>
<path d="M28.9378 10.4384C28.8467 10.2529 28.6222 10.1769 28.4358 10.2679C28.2501 10.3597 28.1736 10.5845 28.2655 10.7702C28.9188 12.0942 29.2499 13.5173 29.2499 14.9999C29.2499 16.4825 28.9188 17.9056 28.2655 19.2297C28.1736 19.4153 28.2501 19.6402 28.4358 19.7319C28.4892 19.7581 28.5456 19.7706 28.6013 19.7706C28.7397 19.7706 28.8727 19.6938 28.9378 19.5615C29.6424 18.1332 29.9999 16.5986 29.9999 14.9999C29.9999 13.4012 29.6424 11.8666 28.9378 10.4384Z" fill="#13AAA1"/>
</svg>
