<svg width="25" height="24" viewBox="0 0 25 24" fill="none" xmlns="http://www.w3.org/2000/svg">
<path d="M22.5598 4H2.4408C2.01279 4 1.66699 4.34125 1.66699 4.76364V20.0364C1.66699 20.4587 2.01279 20.8 2.4408 20.8H22.5598C22.9879 20.8 23.3337 20.4587 23.3337 20.0364V4.76364C23.3337 4.34125 22.9879 4 22.5598 4ZM21.5926 6.64409V19.0818H3.40806V6.64409L2.74065 6.13102L3.69099 4.92591L4.72596 5.72057H20.2771L21.3121 4.92591L22.2624 6.13102L21.5926 6.64409ZM20.2771 5.71818L12.5003 11.6841L4.72354 5.71818L3.68857 4.92352L2.73823 6.12864L3.40565 6.6417L11.6661 12.9799C11.9036 13.162 12.1959 13.2609 12.4967 13.2609C12.7975 13.2609 13.0898 13.162 13.3273 12.9799L21.5926 6.64409L22.26 6.13102L21.3097 4.92591L20.2771 5.71818Z" fill="#13AAA1"/>
</svg>
