<svg width="24" height="24" viewBox="0 0 24 24" fill="none" xmlns="http://www.w3.org/2000/svg">
<path d="M6.7511 2.46588L7.89515 2.11655C8.52187 1.92469 9.19594 1.97087 9.79158 2.24649C10.3872 2.52211 10.8637 3.00832 11.1322 3.61441L12.0165 5.6109C12.2473 6.13222 12.3116 6.71383 12.2003 7.27412C12.089 7.83441 11.8077 8.34527 11.3959 8.73502L9.9313 10.1214C9.88849 10.1619 9.86137 10.2166 9.85484 10.2757C9.8117 10.6708 10.0754 11.4401 10.6832 12.51C11.1253 13.2873 11.5263 13.8337 11.8665 14.1393C12.1037 14.3533 12.2341 14.399 12.29 14.3831L14.2605 13.771C14.7986 13.6039 15.3747 13.612 15.9081 13.794C16.4415 13.9761 16.9054 14.323 17.2348 14.7862L18.4906 16.5538C18.8725 17.0913 19.0493 17.7513 18.9882 18.4111C18.927 19.071 18.6322 19.6859 18.1583 20.1417L17.2897 20.9777C16.8287 21.4209 16.2625 21.7353 15.6463 21.8904C15.03 22.0455 14.3847 22.0358 13.7732 21.8625C11.0734 21.0971 8.65295 18.7842 6.48445 14.9713C4.31301 11.1535 3.55129 7.86517 4.25321 5.10531C4.41122 4.4846 4.72405 3.91568 5.16156 3.45338C5.59907 2.99108 6.14651 2.65099 6.7511 2.46588ZM7.17559 3.89607C6.81293 4.007 6.48453 4.21086 6.222 4.48802C5.95947 4.76518 5.77166 5.10631 5.67666 5.47854C5.0865 7.79948 5.76195 10.7146 7.7579 14.2249C9.75092 17.7302 11.8969 19.7804 14.1693 20.4253C14.5361 20.5291 14.923 20.5346 15.2926 20.4415C15.6621 20.3483 16.0016 20.1597 16.278 19.8939L17.1475 19.0579C17.363 18.8506 17.4971 18.571 17.5249 18.271C17.5526 17.971 17.4722 17.671 17.2985 17.4266L16.0437 15.66C15.8939 15.4493 15.6829 15.2914 15.4403 15.2085C15.1977 15.1257 14.9356 15.1221 14.6908 15.1982L12.7154 15.8123C11.5685 16.1587 10.5273 15.2221 9.40976 13.2565C8.65687 11.9328 8.30591 10.9077 8.39316 10.1105C8.43924 9.69644 8.62844 9.31426 8.92842 9.02962L10.393 7.64322C10.5803 7.46608 10.7082 7.23386 10.7589 6.97914C10.8095 6.72442 10.7803 6.46 10.6754 6.22299L9.79111 4.2265C9.66908 3.95122 9.45262 3.73037 9.18208 3.60513C8.91153 3.47988 8.60535 3.45877 8.32061 3.54574L7.17559 3.89607Z" fill="#13AAA1"/>
</svg>
