<svg width="200" height="50" viewBox="0 0 200 50" fill="none" xmlns="http://www.w3.org/2000/svg">
<ellipse cx="25" cy="25" rx="25" ry="25" fill="#13AAA1"/>
<path d="M26 36.2857C25.8077 36.2853 25.6156 36.2727 25.4249 36.248C23.6633 33.4253 22.688 30.1832 22.5997 26.8571H37.9571C37.9777 26.5726 38 26.2889 38 26C38 23.6266 37.2962 21.3066 35.9776 19.3332C34.6591 17.3598 32.7849 15.8217 30.5922 14.9135C28.3995 14.0052 25.9867 13.7676 23.6589 14.2306C21.3311 14.6936 19.193 15.8365 17.5147 17.5147C15.8365 19.193 14.6936 21.3311 14.2306 23.6589C13.7676 25.9867 14.0052 28.3995 14.9135 30.5922C15.8217 32.7849 17.3598 34.6591 19.3332 35.9776C21.3066 37.2962 23.6266 38 26 38V36.2857ZM36.2429 25.1429H31.1111C31.019 21.9889 30.2121 18.8969 28.7514 16.1C30.773 16.6641 32.5738 17.8325 33.9127 19.4487C35.2516 21.0649 36.0646 23.0517 36.2429 25.1429ZM26.5743 15.752C28.3361 18.5746 29.3118 21.8167 29.4003 25.1429H22.5997C22.6882 21.8167 23.6639 18.5746 25.4257 15.752C25.8075 15.7019 26.1942 15.7019 26.576 15.752H26.5743ZM23.2477 16.0991C21.7873 18.8964 20.9807 21.9886 20.8889 25.1429H15.7571C15.9355 23.0517 16.7485 21.065 18.0874 19.4488C19.4263 17.8327 21.2271 16.6642 23.2486 16.1L23.2477 16.0991ZM15.7571 26.8571H20.8889C20.9811 30.0111 21.788 33.1031 23.2486 35.9C21.2271 35.3358 19.4263 34.1673 18.0874 32.5512C16.7485 30.935 15.9355 28.9483 15.7571 26.8571Z" fill="white"/>
<path fill-rule="evenodd" clip-rule="evenodd" d="M32.8333 33L37 34.6667V33L32.8333 30.9167V28.8333C32.8333 28.6123 32.7455 28.4004 32.5893 28.2441C32.433 28.0878 32.221 28 32 28C31.779 28 31.567 28.0878 31.4107 28.2441C31.2545 28.4004 31.1667 28.6123 31.1667 28.8333V30.9167L27 33V34.6667L31.1667 33V35.9167L29.5 37.1667V38L32 37.1667L34.5 38V37.1667L32.8333 35.9167V33Z" fill="white"/>
<path d="M60.2273 13.7273L65.8523 31.4091H66.0682L71.7045 13.7273H77.1591L69.1364 37H62.7955L54.7614 13.7273H60.2273ZM80.8293 37V19.5455H85.6702V37H80.8293ZM83.2611 17.2955C82.5414 17.2955 81.924 17.0568 81.4089 16.5795C80.9013 16.0947 80.6475 15.5152 80.6475 14.8409C80.6475 14.1742 80.9013 13.6023 81.4089 13.125C81.924 12.6402 82.5414 12.3977 83.2611 12.3977C83.9808 12.3977 84.5945 12.6402 85.102 13.125C85.6172 13.6023 85.8748 14.1742 85.8748 14.8409C85.8748 15.5152 85.6172 16.0947 85.102 16.5795C84.5945 17.0568 83.9808 17.2955 83.2611 17.2955ZM105.031 24.5227L100.599 24.7955C100.523 24.4167 100.36 24.0758 100.11 23.7727C99.8603 23.4621 99.5308 23.2159 99.1217 23.0341C98.7202 22.8447 98.2391 22.75 97.6785 22.75C96.9285 22.75 96.2959 22.9091 95.7808 23.2273C95.2656 23.5379 95.0081 23.9545 95.0081 24.4773C95.0081 24.8939 95.1747 25.2462 95.5081 25.5341C95.8414 25.822 96.4134 26.053 97.224 26.2273L100.383 26.8636C102.08 27.2121 103.345 27.7727 104.179 28.5455C105.012 29.3182 105.429 30.3333 105.429 31.5909C105.429 32.7348 105.091 33.7386 104.417 34.6023C103.75 35.4659 102.834 36.1402 101.667 36.625C100.508 37.1023 99.1709 37.3409 97.6558 37.3409C95.3452 37.3409 93.5043 36.8598 92.1331 35.8977C90.7694 34.928 89.9702 33.6098 89.7353 31.9432L94.4967 31.6932C94.6406 32.3977 94.9891 32.9356 95.5422 33.3068C96.0952 33.6705 96.8035 33.8523 97.6672 33.8523C98.5156 33.8523 99.1975 33.6894 99.7126 33.3636C100.235 33.0303 100.5 32.6023 100.508 32.0795C100.5 31.6402 100.315 31.2803 99.9512 31C99.5876 30.7121 99.027 30.4924 98.2694 30.3409L95.2467 29.7386C93.5422 29.3977 92.2732 28.8068 91.4399 27.9659C90.6141 27.125 90.2012 26.053 90.2012 24.75C90.2012 23.6288 90.5043 22.6629 91.1103 21.8523C91.724 21.0417 92.5838 20.4167 93.6899 19.9773C94.8035 19.5379 96.1066 19.3182 97.599 19.3182C99.8035 19.3182 101.538 19.7841 102.804 20.7159C104.076 21.6477 104.819 22.9167 105.031 24.5227ZM114.414 37.3295C113.3 37.3295 112.308 37.1364 111.437 36.75C110.566 36.3561 109.876 35.7765 109.369 35.0114C108.869 34.2386 108.619 33.2765 108.619 32.125C108.619 31.1553 108.797 30.3409 109.153 29.6818C109.509 29.0227 109.994 28.4924 110.607 28.0909C111.221 27.6894 111.918 27.3864 112.698 27.1818C113.486 26.9773 114.312 26.8333 115.175 26.75C116.191 26.6439 117.009 26.5455 117.63 26.4545C118.251 26.3561 118.702 26.2121 118.982 26.0227C119.263 25.8333 119.403 25.553 119.403 25.1818V25.1136C119.403 24.3939 119.175 23.8371 118.721 23.4432C118.274 23.0492 117.638 22.8523 116.812 22.8523C115.941 22.8523 115.247 23.0455 114.732 23.4318C114.217 23.8106 113.876 24.2879 113.71 24.8636L109.232 24.5C109.46 23.4394 109.907 22.5227 110.573 21.75C111.24 20.9697 112.1 20.3712 113.153 19.9545C114.213 19.5303 115.441 19.3182 116.835 19.3182C117.804 19.3182 118.732 19.4318 119.619 19.6591C120.513 19.8864 121.304 20.2386 121.994 20.7159C122.691 21.1932 123.24 21.8068 123.641 22.5568C124.043 23.2992 124.244 24.1894 124.244 25.2273V37H119.653V34.5795H119.516C119.236 35.125 118.861 35.6061 118.391 36.0227C117.922 36.4318 117.357 36.7538 116.698 36.9886C116.039 37.2159 115.278 37.3295 114.414 37.3295ZM115.8 33.9886C116.513 33.9886 117.141 33.8485 117.687 33.5682C118.232 33.2803 118.66 32.8939 118.971 32.4091C119.282 31.9242 119.437 31.375 119.437 30.7614V28.9091C119.285 29.0076 119.077 29.0985 118.812 29.1818C118.554 29.2576 118.263 29.3295 117.937 29.3977C117.611 29.4583 117.285 29.5152 116.96 29.5682C116.634 29.6136 116.338 29.6553 116.073 29.6932C115.505 29.7765 115.009 29.9091 114.585 30.0909C114.16 30.2727 113.831 30.5189 113.596 30.8295C113.361 31.1326 113.244 31.5114 113.244 31.9659C113.244 32.625 113.482 33.1288 113.96 33.4773C114.444 33.8182 115.058 33.9886 115.8 33.9886Z" fill="#181A1C"/>
<path d="M129.05 37V13.7273H144.459V17.7841H133.971V23.3295H143.437V27.3864H133.971V37H129.05ZM153.397 37.3295C152.283 37.3295 151.291 37.1364 150.419 36.75C149.548 36.3561 148.859 35.7765 148.351 35.0114C147.851 34.2386 147.601 33.2765 147.601 32.125C147.601 31.1553 147.779 30.3409 148.135 29.6818C148.491 29.0227 148.976 28.4924 149.59 28.0909C150.203 27.6894 150.9 27.3864 151.681 27.1818C152.469 26.9773 153.294 26.8333 154.158 26.75C155.173 26.6439 155.991 26.5455 156.613 26.4545C157.234 26.3561 157.684 26.2121 157.965 26.0227C158.245 25.8333 158.385 25.553 158.385 25.1818V25.1136C158.385 24.3939 158.158 23.8371 157.703 23.4432C157.256 23.0492 156.62 22.8523 155.794 22.8523C154.923 22.8523 154.23 23.0455 153.715 23.4318C153.2 23.8106 152.859 24.2879 152.692 24.8636L148.215 24.5C148.442 23.4394 148.889 22.5227 149.556 21.75C150.222 20.9697 151.082 20.3712 152.135 19.9545C153.196 19.5303 154.423 19.3182 155.817 19.3182C156.787 19.3182 157.715 19.4318 158.601 19.6591C159.495 19.8864 160.287 20.2386 160.976 20.7159C161.673 21.1932 162.222 21.8068 162.624 22.5568C163.025 23.2992 163.226 24.1894 163.226 25.2273V37H158.635V34.5795H158.499C158.219 35.125 157.844 35.6061 157.374 36.0227C156.904 36.4318 156.34 36.7538 155.681 36.9886C155.022 37.2159 154.26 37.3295 153.397 37.3295ZM154.783 33.9886C155.495 33.9886 156.124 33.8485 156.669 33.5682C157.215 33.2803 157.643 32.8939 157.953 32.4091C158.264 31.9242 158.419 31.375 158.419 30.7614V28.9091C158.268 29.0076 158.059 29.0985 157.794 29.1818C157.537 29.2576 157.245 29.3295 156.919 29.3977C156.594 29.4583 156.268 29.5152 155.942 29.5682C155.616 29.6136 155.321 29.6553 155.056 29.6932C154.488 29.7765 153.991 29.9091 153.567 30.0909C153.143 30.2727 152.813 30.5189 152.578 30.8295C152.344 31.1326 152.226 31.5114 152.226 31.9659C152.226 32.625 152.465 33.1288 152.942 33.4773C153.427 33.8182 154.041 33.9886 154.783 33.9886ZM182.465 24.5227L178.033 24.7955C177.957 24.4167 177.794 24.0758 177.544 23.7727C177.294 23.4621 176.965 23.2159 176.555 23.0341C176.154 22.8447 175.673 22.75 175.112 22.75C174.362 22.75 173.73 22.9091 173.215 23.2273C172.699 23.5379 172.442 23.9545 172.442 24.4773C172.442 24.8939 172.608 25.2462 172.942 25.5341C173.275 25.822 173.847 26.053 174.658 26.2273L177.817 26.8636C179.514 27.2121 180.779 27.7727 181.612 28.5455C182.446 29.3182 182.862 30.3333 182.862 31.5909C182.862 32.7348 182.525 33.7386 181.851 34.6023C181.184 35.4659 180.268 36.1402 179.101 36.625C177.942 37.1023 176.605 37.3409 175.09 37.3409C172.779 37.3409 170.938 36.8598 169.567 35.8977C168.203 34.928 167.404 33.6098 167.169 31.9432L171.93 31.6932C172.074 32.3977 172.423 32.9356 172.976 33.3068C173.529 33.6705 174.237 33.8523 175.101 33.8523C175.949 33.8523 176.631 33.6894 177.146 33.3636C177.669 33.0303 177.934 32.6023 177.942 32.0795C177.934 31.6402 177.749 31.2803 177.385 31C177.021 30.7121 176.461 30.4924 175.703 30.3409L172.68 29.7386C170.976 29.3977 169.707 28.8068 168.874 27.9659C168.048 27.125 167.635 26.053 167.635 24.75C167.635 23.6288 167.938 22.6629 168.544 21.8523C169.158 21.0417 170.018 20.4167 171.124 19.9773C172.237 19.5379 173.54 19.3182 175.033 19.3182C177.237 19.3182 178.972 19.7841 180.237 20.7159C181.51 21.6477 182.252 22.9167 182.465 24.5227ZM196.155 19.5455V23.1818H185.643V19.5455H196.155ZM188.03 15.3636H192.871V31.6364C192.871 32.0833 192.939 32.4318 193.075 32.6818C193.211 32.9242 193.401 33.0947 193.643 33.1932C193.893 33.2917 194.181 33.3409 194.507 33.3409C194.734 33.3409 194.961 33.322 195.189 33.2841C195.416 33.2386 195.59 33.2045 195.711 33.1818L196.473 36.7841C196.23 36.8598 195.89 36.947 195.45 37.0455C195.011 37.1515 194.477 37.2159 193.848 37.2386C192.681 37.2841 191.658 37.1288 190.78 36.7727C189.908 36.4167 189.23 35.8636 188.746 35.1136C188.261 34.3636 188.022 33.4167 188.03 32.2727V15.3636Z" fill="#13AAA1"/>
</svg>
