<svg width="51" height="50" viewBox="0 0 51 50" fill="none" xmlns="http://www.w3.org/2000/svg">
<path d="M35.0038 22.0016L25.1443 39.1508H44.8602L35.0038 22.0016ZM23.345 39.5001L34.3989 20.2715C34.6682 19.7982 35.3353 19.8013 35.6015 20.2633L46.6381 39.4571C46.9614 39.9764 46.5769 40.546 46.0628 40.546H23.9438C23.4175 40.545 23.0737 39.9672 23.345 39.5001ZM35.6974 15.4651L50.9058 41.9207C51.1751 42.3858 50.8334 42.9635 50.3071 42.9635V42.9666H35.6974V46.9392C35.6974 48.6263 34.3296 50 32.6496 50H3.05086C1.3709 50 0 48.6263 0 46.9392V7.83753C0 7.79349 0.00612008 7.74739 0.0142802 7.70437C0.0173402 7.68695 0.0204003 7.67261 0.0255003 7.65519C0.0285604 7.64085 0.0346805 7.62344 0.0397805 7.6091L0.0989413 7.4831L0.206043 7.34378L7.30942 0.208974C7.43692 0.0778529 7.61338 0 7.80718 0H32.6496C34.3296 0 35.6974 1.37369 35.6974 3.06085V15.4651ZM34.3092 42.9666H19.6995C19.1824 42.9666 18.7999 42.3971 19.1242 41.8777L34.3092 15.463V3.06085C34.3092 2.143 33.5635 1.39418 32.6496 1.39418H8.50079V5.47429C8.50079 7.16144 7.13295 8.53514 5.45299 8.53514H1.3913V46.9402C1.3913 47.858 2.13693 48.6068 3.05086 48.6068H32.6496C33.5635 48.6068 34.3092 47.858 34.3092 46.9402V42.9666ZM49.1075 41.5704L35.0038 17.0365L20.9001 41.5704H49.1075ZM7.05849 39.1805C6.82695 38.8732 6.89121 38.4337 7.19721 38.2053C7.50628 37.9758 7.9408 38.0373 8.16827 38.3477L9.1026 39.6025L12.7512 34.6865C12.9797 34.3792 13.4162 34.3147 13.7222 34.5442C14.0282 34.7767 14.0925 35.212 13.864 35.5194L9.66565 41.1729C9.39432 41.5478 8.83026 41.5683 8.54363 41.1842L7.05849 39.1805ZM12.3585 38.8404C12.2371 38.4778 12.4309 38.0824 12.795 37.9605C13.1561 37.8386 13.5499 38.0363 13.6712 38.3989C14.7147 41.5263 12.3758 44.665 9.15462 44.665C6.52095 44.665 4.38708 42.519 4.38708 39.8771C4.38708 36.9033 7.05339 34.6476 9.98491 35.1588C10.2511 35.2049 10.5174 35.2776 10.7744 35.3739C11.1324 35.5071 11.315 35.9086 11.1824 36.2682C11.0467 36.6288 10.65 36.8111 10.2919 36.6779C9.0975 36.2282 7.67254 36.5673 6.76779 37.4759C5.44687 38.8025 5.44687 40.9516 6.76779 42.2762C8.09789 43.612 10.2399 43.5946 11.5588 42.2762C12.486 41.3491 12.7542 40.0287 12.3585 38.8404ZM15.8969 30.0481C15.5124 30.0481 15.2033 29.7347 15.2033 29.3485C15.2033 28.9654 15.5124 28.6519 15.8969 28.6519H22.1343C22.5158 28.6519 22.8279 28.9654 22.8279 29.3485C22.8279 29.7347 22.5158 30.0481 22.1343 30.0481H15.8969ZM15.8969 25.9834C15.5124 25.9834 15.2033 25.6699 15.2033 25.2868C15.2033 24.9006 15.5124 24.5903 15.8969 24.5903H25.2392C25.6238 24.5903 25.9328 24.9006 25.9328 25.2868C25.9328 25.6699 25.6238 25.9834 25.2392 25.9834H15.8969ZM7.05849 26.9617C6.82695 26.6544 6.89121 26.218 7.19721 25.9865C7.50628 25.757 7.9408 25.8205 8.16827 26.1289L9.1026 27.3837L12.7512 22.4708C12.9797 22.1604 13.4162 22.099 13.7222 22.3284C14.0282 22.5579 14.0925 22.9963 13.864 23.3036L9.66565 28.9541C9.39432 29.3321 8.83026 29.3485 8.54363 28.9654L7.05849 26.9617ZM12.3585 26.6247C12.2371 26.259 12.4309 25.8636 12.795 25.7417C13.1561 25.6198 13.5499 25.8175 13.6712 26.1832C14.7147 29.3075 12.3758 32.4462 9.15462 32.4462C6.52095 32.4462 4.38708 30.3032 4.38708 27.6583C4.38708 24.6845 7.05339 22.4319 9.98491 22.943C10.2511 22.9891 10.5174 23.0588 10.7744 23.1582C11.1324 23.2913 11.315 23.6929 11.1824 24.0494C11.0467 24.4089 10.65 24.5923 10.2919 24.4591C9.0975 24.0115 7.67254 24.3485 6.76779 25.2602C5.44687 26.5847 5.44687 28.7328 6.76779 30.0574C8.09789 31.3962 10.2399 31.3757 11.5588 30.0574C12.486 29.1303 12.7542 27.8099 12.3585 26.6247ZM7.05849 14.5882C6.82695 14.2809 6.89121 13.8445 7.19721 13.615C7.50628 13.3825 7.9408 13.447 8.16827 13.7544L9.1026 15.0113L12.7512 10.0953C12.9797 9.78795 13.4162 9.72342 13.7222 9.95288C14.0282 10.1823 14.0925 10.6208 13.864 10.9281L9.66565 16.5816C9.39432 16.9566 8.83026 16.976 8.54363 16.5929L7.05849 14.5882ZM12.3585 14.2522C12.2371 13.8865 12.4309 13.4942 12.795 13.3723C13.1561 13.2504 13.5499 13.445 13.6712 13.8107C14.7147 16.9351 12.3758 20.0738 9.15462 20.0738C6.52095 20.0738 4.38708 17.9308 4.38708 15.2858C4.38708 12.312 7.05339 10.0594 9.98491 10.5706C10.2511 10.6167 10.5174 10.6863 10.7744 10.7857C11.1324 10.9189 11.315 11.3204 11.1824 11.68C11.0467 12.0375 10.65 12.2198 10.2919 12.0867C9.0975 11.639 7.67254 11.9791 6.76779 12.8877C5.44687 14.2123 5.44687 16.3604 6.76779 17.688C8.09789 19.0238 10.2399 19.0033 11.5588 17.6849C12.486 16.7609 12.7542 15.4364 12.3585 14.2522ZM15.8969 42.2639C15.5124 42.2639 15.2033 41.9535 15.2033 41.5673C15.2033 41.1811 15.5124 40.8707 15.8969 40.8707H17.2301C17.6146 40.8707 17.9237 41.1811 17.9237 41.5673C17.9237 41.9535 17.6146 42.2639 17.2301 42.2639H15.8969ZM15.8969 38.2022C15.5124 38.2022 15.2033 37.8888 15.2033 37.5026C15.2033 37.1194 15.5124 36.806 15.8969 36.806H16.8455C17.2301 36.806 17.5391 37.1194 17.5391 37.5026C17.5391 37.8888 17.2301 38.2022 16.8455 38.2022H15.8969ZM15.8969 13.6099C15.5124 13.6099 15.2033 13.2995 15.2033 12.9133C15.2033 12.5271 15.5124 12.2168 15.8969 12.2168H29.0296C29.4141 12.2168 29.7262 12.5271 29.7262 12.9133C29.7262 13.2995 29.4141 13.6099 29.0296 13.6099H15.8969ZM15.8969 17.6757C15.5124 17.6757 15.2033 17.3622 15.2033 16.9791C15.2033 16.5929 15.5124 16.2795 15.8969 16.2795H21.9976C22.3822 16.2795 22.6912 16.5929 22.6912 16.9791C22.6912 17.3622 22.3822 17.6757 21.9976 17.6757H15.8969ZM2.37459 7.14096H5.45401C6.36488 7.14096 7.11357 6.39213 7.11357 5.47429V2.38168L2.37459 7.14096ZM35.6974 36.8224C35.6974 37.2086 35.3883 37.519 35.0038 37.519C34.6193 37.519 34.3102 37.2086 34.3102 36.8224V35.4456C34.3102 35.0594 34.6193 34.749 35.0038 34.749C35.3883 34.749 35.6974 35.0594 35.6974 35.4456V36.8224ZM35.6974 33.234C35.6974 33.6202 35.3883 33.9336 35.0038 33.9336C34.6193 33.9336 34.3102 33.6202 34.3102 33.234V25.7714C34.3102 25.3852 34.6193 25.0717 35.0038 25.0717C35.3883 25.0717 35.6974 25.3852 35.6974 25.7714V33.234Z" fill="#13AAA1"/>
</svg>
