<svg width="50" height="50" viewBox="0 0 50 50" fill="none" xmlns="http://www.w3.org/2000/svg">
<path d="M24.5143 38H24.4998C24.4666 38 24.4332 38 24.4011 37.999C23.8279 37.9948 23.3658 37.5264 23.37 36.9532C23.3741 36.3852 23.8393 35.9231 24.4074 35.9231H24.4157C24.4438 35.9231 24.4718 35.9231 24.4999 35.9231H24.5103C24.5113 35.9231 24.5113 35.9231 24.5125 35.9231C25.0857 35.9231 25.5509 36.3882 25.5519 36.9605C25.5519 37.2378 25.445 37.4984 25.2487 37.6946C25.0521 37.891 24.7916 38 24.5143 38ZM27.6348 37.6023C27.1623 37.6023 26.7491 37.2824 26.6306 36.8245C26.561 36.5555 26.6005 36.2762 26.7408 36.0373C26.8819 35.7974 27.1072 35.6283 27.3751 35.5587C27.4064 35.5504 27.4376 35.5421 27.4686 35.5338H27.4696C27.558 35.5099 27.6483 35.4985 27.7386 35.4985C28.207 35.4985 28.6192 35.8141 28.7407 36.2678C28.7646 36.3562 28.776 36.4485 28.776 36.5399C28.775 37.0072 28.4582 37.4185 28.0065 37.54C27.9702 37.5494 27.9328 37.5597 27.8964 37.569C27.8104 37.5908 27.7221 37.6023 27.6348 37.6023ZM21.2889 37.5824C21.1986 37.5824 21.1093 37.5711 21.021 37.5471C20.9847 37.5378 20.9473 37.5275 20.9109 37.517C20.644 37.4443 20.4208 37.2709 20.2837 37.0289C20.1466 36.7881 20.1113 36.5076 20.1851 36.2407C20.3086 35.7911 20.7199 35.4775 21.1861 35.4775C21.2785 35.4775 21.372 35.4899 21.4623 35.5148L21.4862 35.5211C21.5091 35.5273 21.5319 35.5336 21.5548 35.5398C22.0075 35.6602 22.3254 36.0704 22.3274 36.5388C22.3274 36.6302 22.3149 36.7216 22.2921 36.8109C22.1706 37.2648 21.7583 37.5824 21.2889 37.5824ZM30.6504 36.379C30.2766 36.379 29.9308 36.1785 29.7471 35.8536C29.61 35.6127 29.5747 35.3322 29.6484 35.0654C29.7221 34.7975 29.8956 34.5752 30.1365 34.4382C30.1583 34.4257 30.1789 34.4133 30.2008 34.4008L30.2195 34.3904C30.3783 34.2979 30.5581 34.2501 30.7398 34.2501C31.1095 34.2501 31.4543 34.4485 31.6391 34.7673C31.7305 34.9251 31.7783 35.1027 31.7793 35.2834C31.7803 35.6552 31.5821 36.001 31.2611 36.1868L31.2321 36.2045C31.2083 36.217 31.1854 36.2305 31.1626 36.244C31.0067 36.3322 30.8291 36.379 30.6504 36.379ZM18.2805 36.3405C18.0999 36.3405 17.9202 36.2917 17.7624 36.2014L17.7603 36.1993C17.7281 36.1805 17.6959 36.1629 17.6637 36.1432C17.1704 35.8535 17.0053 35.2158 17.2951 34.7216C17.4809 34.4059 17.8247 34.2096 18.1912 34.2096C18.3761 34.2096 18.5578 34.2594 18.7167 34.354C18.7447 34.3695 18.7728 34.3863 18.8008 34.4017L18.8018 34.4028C19.1217 34.5887 19.3211 34.9334 19.32 35.3043C19.32 35.4849 19.2723 35.6636 19.1809 35.8204C18.996 36.1412 18.6513 36.3405 18.2805 36.3405ZM33.2435 34.4173C32.9631 34.4173 32.7004 34.3072 32.503 34.1078C32.3089 33.9106 32.2029 33.6488 32.2051 33.3716C32.2071 33.0943 32.3172 32.8337 32.5144 32.6395C32.5373 32.6166 32.5601 32.5938 32.5829 32.5709C32.5829 32.5709 32.5829 32.5709 32.584 32.5709C32.7792 32.3747 33.04 32.2667 33.3172 32.2667C33.5945 32.2667 33.8552 32.3747 34.0513 32.5699C34.2477 32.7662 34.3557 33.0267 34.3557 33.3041C34.3567 33.5813 34.2487 33.8429 34.0525 34.0392C34.0253 34.0652 33.9984 34.0923 33.9715 34.1193C33.7762 34.3113 33.5177 34.4173 33.2435 34.4173ZM15.7 34.3612C15.4227 34.3612 15.1631 34.2543 14.9669 34.059C14.9669 34.059 14.9669 34.059 14.9658 34.058C14.9627 34.0549 14.9586 34.0507 14.9544 34.0466C14.9316 34.0237 14.9087 34.001 14.8859 33.977C14.484 33.5699 14.4892 32.9105 14.8962 32.5086C15.0915 32.3164 15.3511 32.2095 15.6252 32.2095C15.9056 32.2095 16.1683 32.3196 16.3646 32.5189C16.3875 32.5417 16.4103 32.5646 16.4331 32.5874C16.6294 32.7837 16.7374 33.0444 16.7374 33.3216C16.7385 33.5989 16.6305 33.8596 16.4352 34.0557C16.239 34.2532 15.9773 34.3612 15.7 34.3612ZM35.2435 31.8533C35.0587 31.8533 34.877 31.8036 34.718 31.71C34.4781 31.5688 34.309 31.3435 34.2394 31.0755C34.1698 30.8066 34.2093 30.5273 34.3494 30.2885C34.3661 30.2603 34.3827 30.2324 34.3983 30.2053C34.5831 29.8844 34.9289 29.685 35.2987 29.685C35.4804 29.685 35.659 29.7338 35.8168 29.8253C36.1388 30.0101 36.3371 30.3559 36.336 30.7267C36.336 30.9074 36.2882 31.086 36.1968 31.2439C36.1782 31.2771 36.1584 31.3093 36.1397 31.3425C35.9538 31.6581 35.6101 31.8533 35.2435 31.8533ZM13.7166 31.7847H13.7155C13.3469 31.7847 13.0021 31.5875 12.8162 31.2686L12.8027 31.2437C12.7882 31.2188 12.7747 31.1938 12.7602 31.1689C12.6231 30.928 12.5878 30.6476 12.6615 30.3807C12.7342 30.1128 12.9076 29.8905 13.1485 29.7535C13.3053 29.6642 13.4829 29.6164 13.6615 29.6164C14.0343 29.6164 14.3812 29.8179 14.565 30.142C14.5785 30.1648 14.592 30.1887 14.6044 30.2115L14.6128 30.225C14.6128 30.2261 14.6128 30.2261 14.6138 30.2261C14.7041 30.3829 14.7529 30.5615 14.7529 30.7412C14.755 31.1129 14.5567 31.4587 14.2358 31.6446C14.078 31.737 13.8983 31.7847 13.7166 31.7847ZM36.5146 28.8584C36.4212 28.8584 36.3287 28.846 36.2384 28.821C35.6859 28.6684 35.3609 28.0953 35.5125 27.5437C35.5219 27.5126 35.5302 27.4814 35.5385 27.4504C35.6589 26.9966 36.0712 26.6798 36.5406 26.6798C36.6308 26.6798 36.7212 26.6912 36.8085 26.7151C37.2611 26.8356 37.5779 27.2457 37.5801 27.713C37.5801 27.8055 37.5686 27.8968 37.5447 27.9851C37.5354 28.0225 37.525 28.0588 37.5146 28.0952C37.3911 28.5448 36.9798 28.8584 36.5146 28.8584ZM12.4642 28.7826C11.9969 28.7826 11.5846 28.468 11.4631 28.0151C11.4621 28.0151 11.4621 28.014 11.4621 28.014C11.46 28.0078 11.459 28.0026 11.458 27.9964C11.4496 27.9652 11.4413 27.9351 11.433 27.904C11.3635 27.6349 11.4019 27.3557 11.5431 27.1168C11.6833 26.8768 11.9086 26.7077 12.1766 26.6371C12.2628 26.6152 12.351 26.6038 12.4393 26.6038C12.9107 26.6038 13.324 26.9237 13.4435 27.3816C13.4507 27.4128 13.459 27.4439 13.4684 27.475V27.4761C13.4923 27.5653 13.5037 27.6557 13.5037 27.7471C13.5027 28.2144 13.187 28.6256 12.7342 28.7471C12.6459 28.7712 12.5546 28.7826 12.4642 28.7826ZM36.9611 25.6371H36.9528C36.6756 25.6349 36.4149 25.525 36.2207 25.3266C36.0265 25.1293 35.9205 24.8676 35.9227 24.5903C35.9227 24.5602 35.9227 24.5301 35.9227 24.5V24.4948C35.9227 24.4948 35.9227 24.4948 35.9227 24.4937V24.4874C35.9227 24.4843 35.9227 24.4822 35.9227 24.4802L35.9248 24.4293V24.4282L35.9311 24.4137H35.9259L35.927 24.4012C35.927 24.4012 35.927 24.4012 35.927 24.4002C35.9498 24.1437 36.0661 23.9059 36.2561 23.7304C36.4483 23.5539 36.6964 23.4552 36.9571 23.4552H36.9602C37.4285 23.4552 37.8407 23.7688 37.9632 24.2195C37.9644 24.2237 37.9654 24.2268 37.9654 24.2299L37.9717 24.2517C37.9717 24.2538 37.9728 24.2559 37.9728 24.258C37.9738 24.2601 37.9738 24.2612 37.9738 24.2632L37.978 24.284C37.979 24.285 37.979 24.2861 37.979 24.2871C37.9801 24.2892 37.9801 24.2933 37.9811 24.2965L37.9832 24.3089C37.9832 24.31 37.9832 24.31 37.9832 24.311L37.9853 24.3215C37.9853 24.3225 37.9853 24.3236 37.9853 24.3236L37.9884 24.336V24.3381L37.9894 24.3476C37.9894 24.3486 37.9894 24.3496 37.9894 24.3496L37.9925 24.3735V24.3746L37.9947 24.387V24.3881C37.9957 24.3964 37.9957 24.4047 37.9968 24.413V24.4151C37.9968 24.4192 37.9978 24.4223 37.9978 24.4265L37.999 24.44C37.999 24.441 37.999 24.441 37.999 24.4421L38 24.4711C38 24.4742 38 24.4763 38 24.4794V24.4846C38 24.4877 38 24.4898 38 24.4929V24.5C38 24.5353 38 24.5706 38 24.6059C37.9944 25.175 37.5292 25.6371 36.9611 25.6371ZM12.0405 25.5582H12.0384C11.4663 25.5582 11.001 25.094 11 24.5218V24.5C11 24.4688 11 24.4387 11 24.4086C11.0042 23.8395 11.4694 23.3764 12.0384 23.3764H12.0457C12.323 23.3785 12.5826 23.4885 12.7778 23.6858C12.973 23.8832 13.079 24.1448 13.0769 24.4221C13.0769 24.4481 13.0769 24.474 13.0769 24.5V24.5187C13.0779 25.0909 12.6127 25.5582 12.0405 25.5582ZM36.5645 22.4085C36.0909 22.4085 35.6787 22.0887 35.5592 21.6307C35.5509 21.5996 35.5437 21.5684 35.5354 21.5373C35.5116 21.448 35.499 21.3566 35.499 21.2652C35.5011 20.7979 35.8178 20.3867 36.2695 20.2652C36.3578 20.2423 36.4481 20.2298 36.5385 20.2298C37.008 20.2298 37.4201 20.5466 37.5406 21.0004C37.551 21.0367 37.5602 21.0731 37.5696 21.1105C37.6392 21.3784 37.6008 21.6588 37.4595 21.8976C37.3183 22.1365 37.0929 22.3057 36.825 22.3753C36.7388 22.3982 36.6517 22.4085 36.5645 22.4085ZM12.4549 22.3338C12.3656 22.3338 12.2752 22.3223 12.188 22.2985C11.7352 22.179 11.4185 21.7678 11.4154 21.3005C11.4154 21.2091 11.4268 21.1177 11.4507 21.0284C11.459 20.9962 11.4683 20.964 11.4766 20.9318L11.4808 20.9183C11.6044 20.4687 12.0156 20.1551 12.4819 20.1551C12.5743 20.1551 12.6667 20.1675 12.757 20.1914C13.3085 20.3441 13.6345 20.9163 13.4829 21.4687C13.4746 21.4987 13.4663 21.53 13.458 21.5612C13.3375 22.016 12.9253 22.3338 12.4549 22.3338ZM35.3443 19.3949C34.9715 19.3949 34.6246 19.1935 34.4408 18.8684C34.4315 18.8518 34.4212 18.8342 34.4119 18.8175L34.3931 18.7853C34.3017 18.6285 34.2539 18.4499 34.2529 18.2692C34.2518 17.8975 34.4501 17.5517 34.7711 17.3658C34.9289 17.2744 35.1086 17.2266 35.2903 17.2266C35.66 17.2266 36.0047 17.425 36.1906 17.7448C36.2041 17.7677 36.2166 17.7915 36.2301 17.8144L36.2467 17.8435C36.5291 18.3409 36.3547 18.9764 35.8561 19.2589C35.7004 19.3472 35.5228 19.3949 35.3443 19.3949ZM13.6937 19.3264C13.513 19.3264 13.3344 19.2786 13.1766 19.1872C12.8557 19.0024 12.6563 18.6566 12.6563 18.2858C12.6563 18.1052 12.7041 17.9265 12.7955 17.7697C12.8142 17.7365 12.8339 17.7033 12.8526 17.67C13.0385 17.3543 13.3822 17.1581 13.7488 17.1581C13.9326 17.1581 14.1143 17.2079 14.2742 17.3014C14.5131 17.4416 14.6834 17.6669 14.7529 17.9348C14.8225 18.2038 14.7841 18.4832 14.6429 18.723L14.6335 18.7386C14.6211 18.7615 14.6076 18.7833 14.5951 18.8061C14.4103 19.127 14.0645 19.3264 13.6937 19.3264ZM33.3837 16.7998C33.1033 16.7998 32.8396 16.6897 32.6433 16.4893C32.6319 16.4768 32.6194 16.4654 32.6068 16.453C32.5964 16.4426 32.5862 16.4312 32.5757 16.4208C32.3794 16.2255 32.2714 15.9638 32.2714 15.6866C32.2714 15.4093 32.3794 15.1487 32.5746 14.9524C32.7709 14.7561 33.0316 14.6481 33.3099 14.6481C33.5871 14.6481 33.8478 14.7561 34.043 14.9524C34.0701 14.9794 34.0971 15.0064 34.124 15.0334C34.3182 15.2307 34.4241 15.4924 34.422 15.7697C34.42 16.0469 34.3099 16.3076 34.1115 16.5018C33.9164 16.6939 33.6577 16.7998 33.3837 16.7998ZM15.672 16.7427C15.3957 16.7427 15.1351 16.6357 14.9388 16.4405C14.7426 16.2442 14.6346 15.9836 14.6335 15.7063C14.6335 15.429 14.7405 15.1684 14.9367 14.9711C14.9637 14.9441 14.9897 14.9181 15.0177 14.8911C15.213 14.698 15.4715 14.592 15.7467 14.592C16.0271 14.592 16.2888 14.7011 16.4861 14.9005C16.888 15.3086 16.8838 15.967 16.4757 16.3699C16.4529 16.3917 16.43 16.4145 16.4072 16.4374C16.212 16.6347 15.9503 16.7427 15.672 16.7427ZM30.8197 14.7966C30.6349 14.7966 30.4532 14.7468 30.2933 14.6523L30.2819 14.646C30.2581 14.6325 30.2341 14.618 30.2092 14.6045C29.8893 14.4186 29.6899 14.0728 29.6911 13.7021C29.6911 13.5214 29.7399 13.3428 29.8313 13.1849C30.0161 12.8651 30.3609 12.6667 30.7306 12.6667C30.9123 12.6667 31.0918 12.7145 31.2498 12.8059C31.2829 12.8256 31.3152 12.8443 31.3484 12.864C31.5873 13.0042 31.7566 13.2306 31.8261 13.4985C31.8957 13.7675 31.8562 14.0468 31.715 14.2856C31.5289 14.6014 31.1863 14.7966 30.8197 14.7966ZM18.2484 14.7572C17.8787 14.7572 17.5349 14.5588 17.3491 14.24C17.2577 14.0832 17.2099 13.9046 17.2089 13.7239C17.2068 13.3532 17.4051 13.0063 17.725 12.8204L17.8236 12.7633C17.9804 12.674 18.158 12.6273 18.3377 12.6273C18.7094 12.6273 19.0563 12.8277 19.2401 13.1517C19.5236 13.6491 19.3501 14.2847 18.8527 14.5682C18.8257 14.5827 18.7998 14.5983 18.7738 14.6128L18.7697 14.6159C18.7697 14.6159 18.7696 14.6159 18.7686 14.6159C18.6108 14.7083 18.4301 14.7572 18.2484 14.7572ZM27.8259 13.5255C27.7334 13.5255 27.6401 13.5131 27.5497 13.4882C27.5184 13.4798 27.4873 13.4715 27.4572 13.4632C27.4561 13.4632 27.4561 13.4632 27.4561 13.4632C27.0034 13.3417 26.6867 12.9315 26.6856 12.4632C26.6856 12.3728 26.697 12.2815 26.7209 12.1922C26.8424 11.7383 27.2548 11.4206 27.7241 11.4206C27.8134 11.4206 27.9037 11.433 27.992 11.4569C28.0294 11.4663 28.0657 11.4767 28.1021 11.486C28.37 11.5597 28.5923 11.7342 28.7293 11.9751C28.8664 12.216 28.9006 12.4964 28.8269 12.7633C28.7024 13.213 28.2912 13.5255 27.8259 13.5255ZM21.2484 13.5058C20.7801 13.5058 20.3678 13.1891 20.2463 12.7373C20.2224 12.648 20.21 12.5567 20.21 12.4653C20.211 11.998 20.5267 11.5857 20.9784 11.4642L20.994 11.46C21.0252 11.4517 21.0573 11.4434 21.0885 11.4351C21.1747 11.4123 21.263 11.4008 21.3512 11.4008C21.8237 11.4008 22.236 11.7207 22.3554 12.1776C22.4997 12.7322 22.1664 13.3002 21.6119 13.4445C21.5807 13.4528 21.5496 13.4612 21.5195 13.4695C21.4301 13.4933 21.3388 13.5058 21.2484 13.5058ZM24.6047 13.0769H24.5798C24.5528 13.0769 24.5268 13.0769 24.4998 13.0769H24.4728C23.9016 13.0769 23.4354 12.6117 23.4343 12.0405C23.4333 11.7633 23.5413 11.5026 23.7365 11.3053C23.9328 11.109 24.1935 11.001 24.4707 11H24.4998C24.5371 11 24.5755 11 24.613 11C25.1862 11.0052 25.6483 11.4746 25.6431 12.0478C25.639 12.6158 25.1726 13.0769 24.6047 13.0769Z" fill="#13AAA1"/>
<path d="M25.2222 9C24.7927 9 24.4445 8.66421 24.4445 8.25V2.24996L21.2445 4.56426C20.9007 4.81272 20.4132 4.74554 20.1556 4.41426C19.8979 4.08286 19.9675 3.61282 20.3111 3.36425L24.7556 0.149944C24.9913 -0.0204137 25.3066 -0.0478424 25.5701 0.0791227C25.8336 0.206195 26 0.465911 26 0.749948V8.25C26 8.66421 25.6518 9 25.2222 9Z" fill="#13AAA1"/>
<path d="M29.2216 5C29.0592 5 28.8954 4.94818 28.7555 4.84091L24.3111 1.43186C23.9675 1.16823 23.8979 0.669596 24.1556 0.318236C24.4134 -0.0333506 24.9009 -0.104372 25.2445 0.159147L29.6888 3.5682C30.0325 3.83183 30.1022 4.33046 29.8443 4.68182C29.6916 4.89023 29.4581 5 29.2216 5Z" fill="#13AAA1"/>
<path d="M25.2223 50C25.057 50 24.8928 49.9492 24.7556 49.85L20.3111 46.6357C19.9675 46.3873 19.8979 45.9171 20.1556 45.5857C20.4132 45.2544 20.9008 45.1869 21.2445 45.4358L24.4445 47.75V41.75C24.4445 41.3358 24.7927 41 25.2222 41C25.6518 41 26 41.3358 26 41.75V49.25C26 49.534 25.8336 49.7937 25.5701 49.9208C25.46 49.9739 25.3408 50 25.2223 50Z" fill="#13AAA1"/>
<path d="M24.7783 50C24.5419 50 24.3085 49.8902 24.1556 49.6818C23.8979 49.3303 23.9675 48.8318 24.3111 48.5682L28.7555 45.1591C29.0994 44.8957 29.5866 44.9666 29.8444 45.3181C30.1021 45.6696 30.0325 46.1681 29.6889 46.4317L25.2446 49.8408C25.1044 49.9482 24.9408 50 24.7783 50Z" fill="#13AAA1"/>
<path d="M36.7717 13C36.5743 13 36.3767 12.9322 36.226 12.7967C35.9247 12.5256 35.9247 12.0858 36.226 11.8147L40.5914 7.88685L36.6626 7.38185C36.2407 7.32759 35.9476 6.97585 36.0079 6.59633C36.0682 6.21652 36.4593 5.95266 36.881 6.00712L42.3375 6.70852C42.6268 6.74572 42.8681 6.92685 42.9603 7.17632C43.0528 7.42579 42.9806 7.70086 42.774 7.88685L37.3175 12.7968C37.1667 12.9322 36.9692 13 36.7717 13Z" fill="#13AAA1"/>
<path d="M42.3347 14C42.0094 14 41.7252 13.7222 41.6779 13.3374L41.0068 7.88087C40.9549 7.459 41.2072 7.0681 41.5704 7.00791C41.9343 6.94739 42.2702 7.24084 42.3221 7.66271L42.9932 13.1192C43.0451 13.5411 42.7928 13.932 42.4296 13.9922C42.3977 13.9974 42.366 14 42.3347 14Z" fill="#13AAA1"/>
<path d="M7.39569 43C7.32219 43 7.24819 42.9871 7.17627 42.9604C6.9267 42.868 6.74567 42.6268 6.70847 42.3376L6.00707 36.881C5.95281 36.4591 6.21667 36.0682 6.59628 36.0079C6.9758 35.9475 7.32764 36.2408 7.3818 36.6626L7.8868 40.5914L11.8147 36.2262C12.0858 35.9248 12.5255 35.9249 12.7966 36.226C13.0678 36.5274 13.0678 37.016 12.7966 37.3173L7.8868 42.7739C7.75447 42.9211 7.57701 43 7.39569 43Z" fill="#13AAA1"/>
<path d="M13.2293 43C13.1929 43 13.1562 42.9978 13.1192 42.9933L7.66268 42.3221C7.24079 42.2702 6.94756 41.9336 7.00786 41.5704C7.06816 41.2072 7.45962 40.9551 7.88084 41.0067L13.3373 41.6778C13.7592 41.7298 14.0524 42.0663 13.9921 42.4296C13.9372 42.7609 13.6071 43 13.2293 43Z" fill="#13AAA1"/>
<path d="M49.2501 26H41.75C41.3358 26 41 25.6518 41 25.2222C41 24.7927 41.3358 24.4444 41.75 24.4444H47.7501L45.4358 21.2444C45.1872 20.9008 45.2544 20.4133 45.5857 20.1556C45.9175 19.8978 46.3872 19.9677 46.6357 20.3111L49.85 24.7556C50.0204 24.9912 50.0479 25.3066 49.9208 25.5701C49.7938 25.8336 49.5341 26 49.2501 26Z" fill="#13AAA1"/>
<path d="M45.7949 30C45.6288 30 45.4613 29.9494 45.3182 29.8444C44.9668 29.5868 44.8955 29.0992 45.1592 28.7556L48.5682 24.3112C48.8317 23.9675 49.3302 23.8979 49.6818 24.1556C50.0332 24.4134 50.1045 24.901 49.8408 25.2445L46.4318 29.6889C46.2756 29.8926 46.0367 30 45.7949 30Z" fill="#13AAA1"/>
<path d="M8.25 26H0.75002C0.465985 26 0.206271 25.8336 0.0792002 25.5701C-0.047871 25.3066 -0.0204425 24.9912 0.150021 24.7556L3.3643 20.3112C3.61276 19.9675 4.0828 19.8979 4.4143 20.1556C4.74569 20.4134 4.81276 20.9009 4.5643 21.2445L2.25002 24.4445H8.25C8.66422 24.4445 9 24.7927 9 25.2222C9 25.6518 8.66422 26 8.25 26Z" fill="#13AAA1"/>
<path d="M4.2051 30C3.96328 30 3.72442 29.8927 3.56817 29.6889L0.159114 25.2445C-0.104406 24.9008 -0.0332705 24.4134 0.318203 24.1556C0.669677 23.8979 1.1682 23.9675 1.43183 24.3112L4.84089 28.7556C5.10441 29.0992 5.03327 29.5867 4.6818 29.8444C4.53873 29.9493 4.37123 30 4.2051 30Z" fill="#13AAA1"/>
<path d="M41.6042 43C41.423 43 41.2455 42.9211 41.1131 42.7739L36.2033 37.3172C35.9322 37.016 35.9322 36.5274 36.2034 36.226C36.4746 35.9248 36.9143 35.9249 37.1853 36.2261L41.1132 40.5914L41.6182 36.6625C41.6725 36.2405 42.0245 35.9477 42.4038 36.0078C42.7834 36.0681 43.0472 36.459 42.9929 36.8809L42.2915 42.3376C42.2543 42.6268 42.0732 42.8682 41.8237 42.9604C41.7517 42.9871 41.6776 43 41.6042 43Z" fill="#13AAA1"/>
<path d="M36.7708 43C36.3929 43 36.0629 42.7608 36.0079 42.4295C35.9476 42.0663 36.2407 41.7298 36.6626 41.6779L42.119 41.0068C42.5417 40.9546 42.9318 41.2074 42.9921 41.5705C43.0524 41.9337 42.7593 42.2702 42.3374 42.3221L36.8809 42.9932C36.8439 42.9978 36.8071 43 36.7708 43Z" fill="#13AAA1"/>
<path d="M13.2283 13C13.0307 13 12.8333 12.9323 12.6826 12.7967L7.22602 7.88679C7.01932 7.7008 6.94722 7.42574 7.0396 7.17627C7.13199 6.92669 7.37319 6.74567 7.66257 6.70847L13.1191 6.00707C13.5405 5.95282 13.9319 6.21657 13.9921 6.59628C14.0524 6.97589 13.7592 7.32763 13.3373 7.38179L9.40856 7.88679L13.7739 11.8146C14.0753 12.0858 14.0753 12.5255 13.7739 12.7966C13.6233 12.9322 13.4257 13 13.2283 13Z" fill="#13AAA1"/>
<path d="M6.66535 14C6.63403 14 6.60242 13.9975 6.57053 13.9922C6.20731 13.9319 5.95485 13.541 6.00677 13.1192L6.67788 7.6626C6.72979 7.24072 7.06682 6.94782 7.42947 7.00779C7.79269 7.06809 8.04515 7.45888 7.99323 7.88077L7.32212 13.3374C7.27486 13.7222 6.9906 14 6.66535 14Z" fill="#13AAA1"/>
<path d="M25.2433 32C25.163 32 25.0823 31.9875 25.0041 31.962L18.5175 29.8467C18.2084 29.7459 18 29.4629 18 29.1443V21.7405C18 21.5025 18.117 21.279 18.3143 21.1398C18.5116 21.0007 18.7653 20.9626 18.996 21.0381L25.4826 23.1534C25.7916 23.2542 26 23.537 26 23.8558V31.2596C26 31.4976 25.883 31.7211 25.6857 31.8603C25.5553 31.9523 25.4001 32 25.2433 32ZM19.5135 28.6106L24.4866 30.2324V24.3894L19.5135 22.7677V28.6106Z" fill="#13AAA1"/>
<path d="M24.7569 32C24.5999 32 24.4448 31.9523 24.3143 31.8603C24.117 31.7211 24 31.4976 24 31.2596V23.8558C24 23.5372 24.2084 23.2542 24.5175 23.1534L31.004 21.0381C31.2349 20.9627 31.4884 21.0006 31.6858 21.1398C31.883 21.279 32 21.5025 32 21.7405V29.1443C32 29.4629 31.7916 29.7459 31.4826 29.8467L24.9961 31.962C24.9179 31.9875 24.8371 32 24.7569 32ZM25.5135 24.3894V30.2324L30.4865 28.6107V22.7677L25.5135 24.3894Z" fill="#13AAA1"/>
<path d="M31.2433 23C31.1641 23 31.0833 22.9864 31.0038 22.9575L24.5176 20.6049C24.1211 20.4612 23.9069 19.9947 24.0391 19.5634C24.1712 19.132 24.5998 18.8984 24.9962 19.0426L31.4824 21.3953C31.8788 21.539 32.0931 22.0054 31.961 22.4368C31.8554 22.7818 31.5601 23 31.2433 23Z" fill="#13AAA1"/>
<path d="M18.7569 23C18.44 23 18.1448 22.7818 18.0391 22.4367C17.9069 22.0053 18.1211 21.5389 18.5176 21.3952L25.0038 19.0426C25.4002 18.8984 25.8288 19.1319 25.9609 19.5634C26.0932 19.9947 25.8788 20.4611 25.4824 20.6049L18.9962 22.9574C18.9169 22.9864 18.8361 23 18.7569 23Z" fill="#13AAA1"/>
</svg>
