<svg width="50" height="51" viewBox="0 0 50 51" fill="none" xmlns="http://www.w3.org/2000/svg">
<path d="M49.3989 23.3061C48.1679 21.7453 45.5527 20.8273 41.9033 22.9344L32.6625 28.2697C31.9147 26.7306 30.0853 25.3942 26.725 25.3942H19.2065C10.8223 23.1909 8.44457 28.5822 7.3 31.1779C7.12935 31.5654 6.98152 31.9002 6.85326 32.1219L5.26576 34.8719C4.78641 34.6496 4.25163 34.592 3.73369 34.7311C3.14837 34.8877 2.66032 35.2621 2.35815 35.7849L0.303259 39.3436C0.00162882 39.8665 -0.078806 40.4768 0.0782592 41.0616C0.234781 41.6469 0.609238 42.1349 1.13206 42.4371L13.7087 49.698C14.0641 49.9034 14.4533 50.0012 14.8375 50.0012C15.6207 50.0012 16.3837 49.5953 16.8027 48.8692L18.8576 45.3105C19.1592 44.7877 19.2397 44.1773 19.0826 43.5925C18.944 43.0741 18.6272 42.6398 18.1946 42.336L19.7821 39.586C20.5543 38.2485 20.9821 38.1849 22.2169 38.1849H27.3033C29.1397 38.1849 30.7359 37.7572 32.3266 36.8387L48.6054 27.4404C49.3082 27.0344 49.7989 26.3474 49.9511 25.5556C50.1027 24.7632 49.9016 23.9431 49.3989 23.3061ZM17.6299 44.6018L15.575 48.1605C15.3413 48.5654 14.8217 48.7045 14.4168 48.4708L1.84076 41.2099C1.64565 41.0974 1.50598 40.9143 1.44674 40.6947C1.3875 40.4752 1.41739 40.2469 1.53043 40.0518L3.58533 36.4931C3.69783 36.298 3.88098 36.1583 4.10054 36.0991C4.17446 36.0795 4.24891 36.0697 4.32337 36.0697C4.47011 36.0697 4.61413 36.1078 4.74348 36.1828L5.18098 36.4355L17.3196 43.4436C17.7245 43.6773 17.8636 44.1969 17.6299 44.6018ZM48.5587 25.2876C48.4832 25.6811 48.2478 26.0094 47.8962 26.2126L31.6179 35.611C30.2332 36.4105 28.9022 36.767 27.3033 36.767H22.2169C20.6962 36.767 19.6913 36.9088 18.5549 38.8768L16.9772 41.6094L6.50326 35.5627L8.08098 32.83C8.24728 32.542 8.40924 32.1746 8.59674 31.7496C9.7375 29.1637 11.6462 24.8349 18.931 26.7871C18.9908 26.8029 19.0527 26.811 19.1141 26.811H26.725C29.8533 26.811 31.269 28.129 31.5842 29.4393C31.5875 29.4572 31.5919 29.4751 31.5967 29.4931C31.6092 29.5512 31.6201 29.6094 31.6283 29.667C31.6864 30.0686 31.5745 30.4567 31.312 30.7599C31.05 31.0627 30.6815 31.2295 30.2755 31.2295H22.069C21.6777 31.2295 21.3603 31.5469 21.3603 31.9382C21.3603 32.3295 21.6777 32.6469 22.069 32.6469H30.2755C31.0875 32.6469 31.8554 32.2974 32.3832 31.6871C32.8636 31.1322 33.1016 30.411 33.0533 29.68L42.6114 24.1616C45.4777 22.5067 47.4217 23.0876 48.2859 24.1833C48.5375 24.5023 48.6342 24.8942 48.5587 25.2876ZM19.0571 23.0991C21.3663 23.0991 23.3924 21.8838 24.544 20.0626H41.9522C43.0239 20.0626 43.8957 19.1909 43.8957 18.1192V5.76807C43.8957 4.69633 43.0239 3.82459 41.9522 3.82459H36.9837V2.56209C36.9837 1.15013 35.8348 0.0012207 34.4228 0.0012207H30.1304C28.7185 0.0012207 27.5696 1.15013 27.5696 2.56209V3.82459H22.6011C21.5294 3.82459 20.6576 4.69633 20.6576 5.76807V10.3197C20.1446 10.1893 19.6109 10.1121 19.0576 10.1121C15.4772 10.1121 12.5641 13.0251 12.5641 16.6056C12.5641 20.186 15.4766 23.0991 19.0571 23.0991ZM28.9864 2.56209C28.9864 1.93111 29.4995 1.41807 30.1304 1.41807H34.4228C35.0538 1.41807 35.5669 1.93111 35.5669 2.56209V3.82459H28.9864V2.56209ZM22.6005 5.24144H41.9522C42.2424 5.24144 42.4788 5.47785 42.4788 5.76807V7.93166L32.2766 10.5235L22.0745 7.93166V5.76807C22.0739 5.47785 22.3103 5.24144 22.6005 5.24144ZM22.0739 9.39362L32.1016 11.9414C32.1587 11.9561 32.2174 11.9632 32.2761 11.9632C32.3348 11.9632 32.3935 11.9561 32.4506 11.9414L42.4783 9.39362V18.1192C42.4783 18.4094 42.2419 18.6458 41.9516 18.6458H25.2174C25.431 18.0034 25.5505 17.3186 25.5505 16.6056C25.5505 14.1143 24.138 11.9491 22.0739 10.8605V9.39362ZM19.0571 11.5289C21.8565 11.5289 24.1337 13.8061 24.1337 16.6056C24.1337 19.405 21.8565 21.6822 19.0571 21.6822C16.2576 21.6822 13.9804 19.405 13.9804 16.6056C13.9804 13.8061 16.2582 11.5289 19.0571 11.5289ZM19.8321 17.7485C19.8321 17.5132 19.6332 17.3143 19.3978 17.3143H18.7174C17.6962 17.3143 16.8658 16.4838 16.8658 15.4626C16.8658 14.5681 17.5038 13.8192 18.3489 13.648V13.1713C18.3489 12.78 18.6663 12.4626 19.0576 12.4626C19.4489 12.4626 19.7663 12.78 19.7663 13.1713V13.6116H20.5408C20.9321 13.6116 21.2495 13.9289 21.2495 14.3203C21.2495 14.7116 20.9321 15.0289 20.5408 15.0289H18.7174C18.4821 15.0289 18.2832 15.2279 18.2832 15.4632C18.2832 15.6985 18.4821 15.8974 18.7174 15.8974H19.3978C20.419 15.8974 21.2495 16.7279 21.2495 17.7491C21.2495 18.6436 20.6114 19.3925 19.7663 19.5637V20.0404C19.7663 20.4317 19.4489 20.7491 19.0576 20.7491C18.6663 20.7491 18.3489 20.4317 18.3489 20.0404V19.6001H17.5745C17.1832 19.6001 16.8658 19.2828 16.8658 18.8914C16.8658 18.5001 17.1832 18.1828 17.5745 18.1828H19.3978C19.6326 18.1833 19.8321 17.9844 19.8321 17.7485Z" fill="#13AAA1"/>
</svg>
