<svg width="50" height="51" viewBox="0 0 50 51" fill="none" xmlns="http://www.w3.org/2000/svg">
<path d="M25 13.9563C18.9099 13.9563 13.9551 18.9111 13.9551 25.0012C13.9551 26.275 14.1828 27.4939 14.5813 28.6334C14.5881 28.755 14.633 28.8625 14.6996 28.9558C16.2949 33.0957 20.3047 36.0461 25 36.0461C25.0001 36.0461 25.0008 36.0461 25.0009 36.0461C31.0906 36.0455 36.0449 31.091 36.0449 25.0012C36.0449 18.9111 31.0901 13.9563 25 13.9563ZM33.7528 20.6302H30.2991C29.4818 18.2782 28.1522 16.5267 27.1476 15.451C30.0444 16.1024 32.4534 18.0392 33.7528 20.6302ZM15.2051 25.0012C15.2051 23.9091 15.3925 22.8619 15.7237 21.8802H19.3438C19.1085 22.8409 18.9587 23.8772 18.9587 25.0012C18.9587 26.0653 19.1043 27.0521 19.3319 27.9748H15.6697C15.3698 27.0363 15.2051 26.038 15.2051 25.0012ZM20.2087 25.0012C20.2087 23.8734 20.3736 22.8327 20.6372 21.8802H24.375V27.9748H20.6208C20.3657 27.0599 20.2087 26.0678 20.2087 25.0012ZM28.9544 20.6302H25.625V15.7004C26.4544 16.4836 27.9947 18.1752 28.9544 20.6302ZM24.375 15.7559V20.6302H21.0589C22.0078 18.2434 23.5213 16.5663 24.375 15.7559ZM24.375 29.2248V34.0588C23.4086 33.1316 21.9583 31.4737 21.0484 29.2248H24.375ZM25.625 34.0516V29.2248H28.9484C28.0365 31.4725 26.5902 33.1235 25.625 34.0516ZM25.625 27.9748V21.8802H29.3721C29.6305 22.8317 29.7906 23.873 29.7906 25.0012C29.7906 26.0683 29.6286 27.0586 29.3719 27.9748H25.625ZM30.6605 21.8802H34.2763C34.6075 22.8619 34.7949 23.9091 34.7949 25.0012C34.7949 26.038 34.6301 27.0363 34.3303 27.9748H30.6675C30.8951 27.0521 31.0406 26.0653 31.0406 25.0012C31.0406 23.8773 30.8928 22.8409 30.6605 21.8802ZM22.9174 15.4343C21.8976 16.5091 20.5415 18.2671 19.7098 20.6302H16.2472C17.5564 18.0196 19.9914 16.0709 22.9174 15.4343ZM16.1761 29.2248H19.7056C20.5775 31.6587 22.039 33.4887 23.1505 34.6155C20.0661 34.0231 17.4999 31.9789 16.1761 29.2248ZM26.8493 34.6155C27.9607 33.4887 29.4219 31.6588 30.2938 29.2248H33.8239C32.5 31.9789 29.9337 34.0232 26.8493 34.6155Z" fill="#13AAA1"/>
<path d="M49.1472 8.99523C49.1472 4.5061 45.4949 0.85376 41.0057 0.85376C36.5166 0.85376 32.8643 4.5061 32.8643 8.99523C32.8643 13.4844 36.5166 17.1367 41.0057 17.1367C45.4949 17.1367 49.1472 13.4844 49.1472 8.99523ZM36.8949 14.5134C36.971 12.7624 38.115 11.2618 39.8058 10.7485C40.0463 10.6752 40.2202 10.4643 40.2458 10.2138C40.2715 9.96325 40.1439 9.72185 39.923 9.60131C39.1277 9.16827 38.6333 8.33788 38.6333 7.43365C38.6333 6.07379 39.7399 4.96722 41.0997 4.96722C42.4596 4.96722 43.5662 6.07379 43.5662 7.43365C43.5662 8.36474 43.0486 9.20641 42.2154 9.63061C41.9902 9.74474 41.8566 9.98308 41.8755 10.2345C41.8944 10.486 42.0629 10.7015 42.3021 10.7808C43.9354 11.322 45.0413 12.8088 45.1166 14.5133C43.9674 15.3717 42.5473 15.8867 41.0057 15.8867C39.4642 15.8867 38.0442 15.3718 36.8949 14.5134ZM34.1143 8.99523C34.1143 5.19519 37.2057 2.10376 41.0057 2.10376C44.8058 2.10376 47.8972 5.19519 47.8972 8.99523C47.8972 10.7055 47.2673 12.2688 46.2322 13.4747C45.8987 12.0432 44.999 10.8055 43.7279 10.0609C44.4158 9.37609 44.8162 8.43951 44.8162 7.43365C44.8162 5.3844 43.1487 3.71722 41.0997 3.71722C39.0508 3.71722 37.3833 5.3844 37.3833 7.43365C37.3833 8.39953 37.7574 9.30926 38.402 9.98949C37.064 10.7238 36.1204 11.9903 35.7788 13.4742C34.7439 12.2684 34.1143 10.7052 34.1143 8.99523Z" fill="#13AAA1"/>
<path d="M8.99401 0.85376C4.50488 0.85376 0.852539 4.5061 0.852539 8.99523C0.852539 13.4844 4.50488 17.1367 8.99401 17.1367C13.4831 17.1367 17.1355 13.4844 17.1355 8.99523C17.1355 4.5061 13.4831 0.85376 8.99401 0.85376ZM4.88265 14.5129C4.95894 12.7624 6.10285 11.2618 7.79406 10.7485C8.03454 10.6752 8.20849 10.4643 8.23412 10.2138C8.25976 9.96325 8.1322 9.72185 7.91125 9.60131C7.11596 9.16827 6.62158 8.33788 6.62158 7.43365C6.62158 6.07379 7.72814 4.96722 9.08799 4.96722C10.4479 4.96722 11.5544 6.07379 11.5544 7.43365C11.5544 8.36443 11.0369 9.20641 10.2031 9.63061C9.97851 9.74505 9.84484 9.98339 9.86376 10.2349C9.88268 10.4863 10.0511 10.7015 10.2904 10.7808C11.9237 11.322 13.0295 12.8088 13.1049 14.5133C11.9557 15.3717 10.5356 15.8867 8.99401 15.8867C7.45223 15.8867 6.03198 15.3716 4.88265 14.5129ZM14.2204 13.4747C13.887 12.0431 12.9872 10.8055 11.7156 10.0609C12.404 9.37578 12.8044 8.4392 12.8044 7.43365C12.8044 5.3844 11.137 3.71722 9.08799 3.71722C7.03906 3.71722 5.37158 5.3844 5.37158 7.43365C5.37158 8.39953 5.74572 9.30926 6.38964 9.98949C5.05229 10.7237 4.10846 11.9901 3.76666 13.4737C2.73208 12.2679 2.10254 10.705 2.10254 8.99523C2.10254 5.19519 5.19397 2.10376 8.99401 2.10376C12.7941 2.10376 15.8855 5.19519 15.8855 8.99523C15.8855 10.7055 15.2556 12.2688 14.2204 13.4747Z" fill="#13AAA1"/>
<path d="M41.0057 49.2143C45.4949 49.2143 49.1472 45.562 49.1472 41.0729C49.1472 36.5837 45.4949 32.9314 41.0057 32.9314C36.5166 32.9314 32.8643 36.5837 32.8643 41.0729C32.8643 45.562 36.5166 49.2143 41.0057 49.2143ZM36.8949 46.591C36.971 44.8401 38.115 43.3394 39.8058 42.8261C40.0463 42.7529 40.2202 42.542 40.2458 42.2914C40.2715 42.0409 40.1439 41.7995 39.923 41.6789C39.1277 41.2459 38.6333 40.4155 38.6333 39.5113C38.6333 38.1514 39.7399 37.0449 41.0997 37.0449C42.4596 37.0449 43.5662 38.1514 43.5662 39.5113C43.5662 40.4424 43.0486 41.284 42.2154 41.7082C41.9902 41.8224 41.8566 42.0607 41.8755 42.3122C41.8944 42.5637 42.0629 42.7791 42.3021 42.8584C43.9354 43.3996 45.0413 44.8865 45.1166 46.5909C43.9674 47.4494 42.5473 47.9643 41.0057 47.9643C39.4642 47.9643 38.0442 47.4494 36.8949 46.591ZM41.0057 34.1814C44.8058 34.1814 47.8972 37.2728 47.8972 41.0729C47.8972 42.7831 47.2673 44.3464 46.2322 45.5524C45.8987 44.1208 44.999 42.8831 43.7279 42.1385C44.4158 41.4537 44.8162 40.5171 44.8162 39.5113C44.8162 37.462 43.1487 35.7949 41.0997 35.7949C39.0508 35.7949 37.3833 37.462 37.3833 39.5113C37.3833 40.4772 37.7574 41.3869 38.402 42.0671C37.064 42.8015 36.1204 44.068 35.7788 45.5519C34.7439 44.346 34.1143 42.7828 34.1143 41.0729C34.1143 37.2728 37.2057 34.1814 41.0057 34.1814Z" fill="#13AAA1"/>
<path d="M8.99401 49.2143C13.4831 49.2143 17.1355 45.562 17.1355 41.0729C17.1355 36.5837 13.4831 32.9314 8.99401 32.9314C4.50488 32.9314 0.852539 36.5837 0.852539 41.0729C0.852539 45.562 4.50488 49.2143 8.99401 49.2143ZM4.88265 46.5906C4.95894 44.8401 6.10285 43.3394 7.79406 42.8261C8.03454 42.7529 8.20849 42.542 8.23412 42.2914C8.25976 42.0409 8.1322 41.7995 7.91125 41.6789C7.11596 41.2459 6.62158 40.4155 6.62158 39.5113C6.62158 38.1514 7.72814 37.0449 9.08799 37.0449C10.4479 37.0449 11.5544 38.1514 11.5544 39.5113C11.5544 40.4421 11.0369 41.284 10.2031 41.7082C9.97851 41.8227 9.84484 42.061 9.86376 42.3125C9.88268 42.564 10.0511 42.7791 10.2904 42.8584C11.9237 43.3996 13.0295 44.8865 13.1049 46.5909C11.9557 47.4494 10.5356 47.9643 8.99401 47.9643C7.45223 47.9643 6.03198 47.4492 4.88265 46.5906ZM8.99401 34.1814C12.7941 34.1814 15.8855 37.2728 15.8855 41.0729C15.8855 42.7831 15.2556 44.3464 14.2204 45.5523C13.887 44.1207 12.9872 42.8832 11.7156 42.1385C12.404 41.4534 12.8044 40.5168 12.8044 39.5113C12.8044 37.462 11.137 35.7949 9.08799 35.7949C7.03906 35.7949 5.37158 37.462 5.37158 39.5113C5.37158 40.4772 5.74572 41.3869 6.38964 42.0671C5.05229 42.8014 4.10846 44.0677 3.76666 45.5514C2.73208 44.3455 2.10254 42.7826 2.10254 41.0729C2.10254 37.2728 5.19397 34.1814 8.99401 34.1814Z" fill="#13AAA1"/>
<path d="M32.6026 1.77093C30.2222 0.596618 27.6642 0.0012207 25 0.0012207C22.3359 0.0012207 19.7779 0.596618 17.3975 1.77093C17.0881 1.92383 16.9605 2.29858 17.1137 2.60803C17.2663 2.91778 17.641 3.04474 17.9505 2.89215C20.1575 1.80328 22.5293 1.25122 25 1.25122C27.4707 1.25122 29.8426 1.80328 32.0496 2.89215C32.1387 2.93579 32.2327 2.95654 32.3255 2.95654C32.5562 2.95654 32.7777 2.82867 32.8864 2.60803C33.0396 2.29858 32.912 1.92383 32.6026 1.77093Z" fill="#13AAA1"/>
<path d="M1.77002 32.6037C1.87866 32.8243 2.10022 32.9522 2.33093 32.9522C2.4237 32.9522 2.5177 32.9314 2.60681 32.8878C2.91624 32.7349 3.04382 32.3601 2.89062 32.0507C1.80176 29.844 1.25 27.4721 1.25 25.0011C1.25 22.5301 1.80176 20.1583 2.89062 17.9516C3.04382 17.6421 2.91624 17.2674 2.60681 17.1145C2.29614 16.9631 1.92261 17.0895 1.77002 17.3986C0.595703 19.779 0 22.3366 0 25.0011C0 27.6656 0.595703 30.2233 1.77002 32.6037Z" fill="#13AAA1"/>
<path d="M17.3975 48.2315C19.7779 49.4058 22.3359 50.0012 25 50.0012C27.6642 50.0012 30.2222 49.4058 32.6026 48.2315C32.912 48.0786 33.0396 47.7038 32.8864 47.3944C32.7338 47.0849 32.3596 46.9586 32.0496 47.1103C29.8426 48.1991 27.4707 48.7512 25 48.7512C22.5293 48.7512 20.1575 48.1991 17.9505 47.1103C17.6404 46.9592 17.2663 47.0853 17.1137 47.3944C16.9605 47.7038 17.0881 48.0786 17.3975 48.2315Z" fill="#13AAA1"/>
<path d="M48.2299 17.3987C48.0779 17.0896 47.7038 16.9629 47.3931 17.1146C47.0837 17.2675 46.9561 17.6423 47.1093 17.9517C48.1982 20.1584 48.7499 22.5303 48.7499 25.0013C48.7499 27.4723 48.1982 29.8441 47.1093 32.0508C46.9561 32.3603 47.0837 32.735 47.3931 32.8879C47.4822 32.9316 47.5762 32.9523 47.669 32.9523C47.8997 32.9523 48.1213 32.8244 48.2299 32.6038C49.4042 30.2234 49.9999 27.6658 49.9999 25.0013C49.9999 22.3368 49.4042 19.7791 48.2299 17.3987Z" fill="#13AAA1"/>
</svg>
