<svg width="50" height="51" viewBox="0 0 50 51" fill="none" xmlns="http://www.w3.org/2000/svg">
<path d="M12.5 13.2832V12.502C12.5 9.97695 10.9922 7.80195 8.83203 6.8168C9.6375 6.10039 10.1562 5.06836 10.1562 3.9082C10.1562 1.7543 8.40391 0.00195312 6.25 0.00195312C4.09609 0.00195312 2.34375 1.7543 2.34375 3.9082C2.34375 5.06836 2.8625 6.10039 3.66797 6.8168C1.50781 7.80195 0 9.97695 0 12.502V13.2832C0 13.7152 0.35 14.0645 0.78125 14.0645H11.7188C12.15 14.0645 12.5 13.7152 12.5 13.2832ZM3.90625 3.9082C3.90625 2.61602 4.95781 1.56445 6.25 1.56445C7.54219 1.56445 8.59375 2.61602 8.59375 3.9082C8.59375 5.20039 7.54219 6.25195 6.25 6.25195C4.95781 6.25195 3.90625 5.20039 3.90625 3.9082ZM1.5625 12.502C1.5625 9.9168 3.66484 7.81445 6.25 7.81445C8.83516 7.81445 10.9375 9.9168 10.9375 12.502H1.5625Z" fill="#13AAA1"/>
<path d="M46.332 42.7543C47.1375 42.0379 47.6562 41.0059 47.6562 39.8457C47.6562 37.6918 45.9039 35.9395 43.75 35.9395C41.5961 35.9395 39.8438 37.6918 39.8438 39.8457C39.8438 41.0059 40.3625 42.0379 41.168 42.7543C39.0078 43.7395 37.5 45.9145 37.5 48.4395V49.2207C37.5 49.6527 37.85 50.002 38.2812 50.002H49.2188C49.65 50.002 50 49.6527 50 49.2207V48.4395C50 45.9145 48.4922 43.7395 46.332 42.7543ZM41.4062 39.8457C41.4062 38.5535 42.4578 37.502 43.75 37.502C45.0422 37.502 46.0938 38.5535 46.0938 39.8457C46.0938 41.1379 45.0422 42.1895 43.75 42.1895C42.4578 42.1895 41.4062 41.1379 41.4062 39.8457ZM39.0625 48.4395C39.0625 45.8543 41.1648 43.752 43.75 43.752C46.3352 43.752 48.4375 45.8543 48.4375 48.4395H39.0625Z" fill="#13AAA1"/>
<path d="M26.5625 9.37695C17.5156 9.37695 10.1562 16.7371 10.1562 25.7832C10.1562 34.8293 17.5156 42.1895 26.5625 42.1895C35.6094 42.1895 42.9688 34.8293 42.9688 25.7832C42.9688 16.7371 35.6094 9.37695 26.5625 9.37695ZM25.7812 11.6059V18.2816C24.0883 18.2129 22.4023 17.9348 20.7703 17.4199C22.3469 14.4543 24.4781 12.566 25.7812 11.6059ZM25.7812 19.8441V25.002H18.7828C18.8773 22.6293 19.3797 20.5809 20.107 18.8418C21.9523 19.4441 23.8625 19.7723 25.7812 19.8441ZM25.7812 26.5645V31.7223C23.8687 31.7941 21.9656 32.1191 20.1266 32.7176C19.3898 30.9762 18.8797 28.9277 18.7836 26.5645H25.7812ZM25.7812 33.2848V39.9457C24.4891 38.9762 22.3711 37.0785 20.7961 34.1402C22.4203 33.6301 24.0977 33.3535 25.7812 33.2848ZM27.3438 39.9605V33.2848C29.0367 33.3535 30.7227 33.6316 32.3547 34.1465C30.7781 37.1121 28.6469 39.0004 27.3438 39.9605ZM27.3438 31.7223V26.5645H34.3422C34.2477 28.9371 33.7453 30.9855 33.018 32.7246C31.1727 32.1223 29.2625 31.7941 27.3438 31.7223ZM27.3438 25.002V19.8441C29.2563 19.7723 31.1594 19.4473 32.9984 18.8488C33.7352 20.5902 34.2453 22.6387 34.3414 25.002H27.3438ZM27.3438 18.2816V11.6207C28.6359 12.5902 30.7539 14.4879 32.3289 17.4262C30.7047 17.9363 29.0273 18.2129 27.3438 18.2816ZM29.3445 11.2098C32.2906 11.7715 34.9305 13.2004 36.9836 15.2277C35.9742 15.8793 34.9242 16.4379 33.8367 16.8816C32.4922 14.2824 30.7469 12.4191 29.3445 11.2098ZM19.2883 16.8816C18.2016 16.4379 17.1508 15.8793 16.1414 15.2277C18.1945 13.2004 20.8352 11.7707 23.7805 11.2098C22.3781 12.4191 20.6328 14.2824 19.2883 16.8816ZM18.6312 18.2988C17.8469 20.1949 17.3 22.4223 17.2063 25.002H11.7586C11.9289 21.7488 13.1352 18.766 15.0758 16.3957C16.2125 17.1504 17.4 17.791 18.6312 18.2988ZM17.2063 26.5645C17.2992 29.1449 17.8469 31.3715 18.6312 33.2676C17.4008 33.7754 16.2125 34.416 15.0758 35.1699C13.1352 32.7996 11.9289 29.8176 11.7586 26.5637L17.2063 26.5645ZM19.2883 34.6848C20.6328 37.284 22.3781 39.148 23.7812 40.3566C20.8352 39.7949 18.1953 38.366 16.1422 36.3387C17.1508 35.6871 18.2008 35.1285 19.2883 34.6848ZM33.8367 34.6848C34.9234 35.1285 35.9742 35.6871 36.9836 36.3387C34.9305 38.366 32.2898 39.7957 29.3445 40.3566C30.7469 39.1473 32.4922 37.284 33.8367 34.6848ZM34.4937 33.2676C35.2781 31.3715 35.825 29.1449 35.9188 26.5645H41.3664C41.1961 29.8176 39.9898 32.8004 38.0492 35.1707C36.9125 34.416 35.725 33.7754 34.4937 33.2676ZM35.9188 25.002C35.8258 22.4215 35.2789 20.1949 34.4937 18.2988C35.7242 17.791 36.9125 17.1504 38.0492 16.3965C39.9898 18.7668 41.1961 21.7488 41.3664 25.0027L35.9188 25.002Z" fill="#13AAA1"/>
<path d="M17.4161 9.92939L18.5208 8.82471L16.7294 7.0333H38.281C42.1575 7.0333 45.3122 10.1872 45.3122 14.0646V31.2521H46.8747V14.0646C46.8747 9.32627 43.0192 5.4708 38.281 5.4708H16.7294L18.5208 3.67939L17.4161 2.57471L14.2911 5.69971C13.9856 6.00518 13.9856 6.49893 14.2911 6.80439L17.4161 9.92939Z" fill="#13AAA1"/>
<path d="M46.875 32.8145H45.3125V34.377H46.875V32.8145Z" fill="#13AAA1"/>
<path d="M33.3648 41.6371L32.2602 42.7418L34.0516 44.5332H12.5C8.62344 44.5332 5.46875 41.3793 5.46875 37.502V18.752H3.90625V37.502C3.90625 42.2402 7.76172 46.0957 12.5 46.0957H34.0516L32.2602 47.8871L33.3648 48.9918L36.4898 45.8668C36.7953 45.5613 36.7953 45.0676 36.4898 44.7621L33.3648 41.6371Z" fill="#13AAA1"/>
<path d="M5.46875 15.627H3.90625V17.1895H5.46875V15.627Z" fill="#13AAA1"/>
</svg>
