<svg width="54" height="50" viewBox="0 0 54 50" fill="none" xmlns="http://www.w3.org/2000/svg">
<path d="M53.8369 33.7906C52.3518 31.9618 51.1848 30.7753 48.5995 30.9448C46.2237 31.0999 42.6497 32.4217 35.8511 35.6589C32.1371 37.4285 30.4882 36.5574 28.5798 35.5526C27.659 35.0157 26.6645 34.6164 25.6282 34.3673C27.4785 33.7523 29.3166 33.9561 30.9115 34.135C31.7252 34.2687 32.5529 34.2962 33.3737 34.2169C35.3413 33.8864 36.1605 32.823 36.5025 31.985C36.7169 31.4437 36.8132 30.8628 36.7849 30.2813C36.7565 29.6997 36.6042 29.1309 36.3382 28.6131C35.768 27.8279 35.0348 27.8255 34.107 27.8226C31.7977 27.8139 29.5038 27.4475 27.3066 26.7366C20.6671 24.8259 14.1634 27.6716 10.6631 31.3374C10.1846 31.7483 9.61298 32.0358 8.99796 32.1749L8.99273 32.1633C8.81768 31.761 8.49029 31.4447 8.08236 31.2835C7.67444 31.1224 7.21928 31.1297 6.81671 31.3038L5.47441 31.8845C5.22729 31.5913 4.89279 31.3849 4.5199 31.2956C4.14701 31.2064 3.75535 31.239 3.40231 31.3885L1.0765 32.3822C0.65581 32.5714 0.322361 32.913 0.14323 33.3382C-0.0359003 33.7634 -0.0474205 34.2406 0.110987 34.6739L4.82648 48.8528C4.89923 49.0714 5.0171 49.2722 5.17242 49.4423C5.32775 49.6124 5.51707 49.7479 5.72812 49.8401C5.95834 49.9436 6.20745 49.9983 6.45982 50.0009C6.71219 50.0035 6.96237 49.9539 7.19467 49.8552L10.6439 48.3847C10.9332 48.2609 11.1848 48.0629 11.3732 47.8107C11.5616 47.5585 11.6801 47.2611 11.7168 46.9485L13.303 46.2591C13.6566 46.1051 13.9454 45.8326 14.1196 45.4885C14.2939 45.1443 14.3426 44.7502 14.2575 44.3739C16.2647 44.6049 18.2437 45.0367 20.1649 45.6626C22.8779 46.4374 25.818 47.2766 28.8957 47.2766C30.8096 47.2906 32.7075 46.9279 34.4815 46.2091C34.5439 46.1827 34.6025 46.1479 34.6556 46.1058C45.6426 37.446 53.4044 34.9812 53.481 34.955C53.5961 34.9196 53.7007 34.8565 53.7856 34.7712C53.8706 34.686 53.9333 34.5811 53.9683 34.4659C54.0033 34.3507 54.0094 34.2286 53.9862 34.1105C53.963 33.9923 53.9111 33.8817 53.8352 33.7883L53.8369 33.7906ZM10.2352 46.855C10.2198 46.8937 10.197 46.929 10.168 46.9589C10.139 46.9888 10.1045 47.0127 10.0662 47.0292L6.61699 48.4997C6.5717 48.5188 6.52304 48.5287 6.47388 48.5287C6.42472 48.5287 6.37606 48.5188 6.33076 48.4997C6.30584 48.4904 6.28317 48.4759 6.26425 48.4572C6.24534 48.4384 6.23061 48.4159 6.22104 48.3911L1.50671 34.2093C1.46782 34.1263 1.46127 34.0317 1.48832 33.9441C1.51537 33.8565 1.57409 33.7821 1.65301 33.7354L3.97883 32.7441C4.01715 32.7276 4.05844 32.7191 4.10017 32.7191C4.1417 32.7193 4.18284 32.7272 4.22151 32.7423C4.29968 32.7736 4.3623 32.8346 4.39568 32.9119L10.234 46.6122C10.2502 46.6506 10.2587 46.6918 10.259 46.7334C10.2593 46.7751 10.2514 46.8164 10.2358 46.855H10.2352ZM12.813 44.8078C12.795 44.8529 12.7603 44.8894 12.716 44.9094L11.3586 45.5012L6.12117 33.2087L7.40194 32.6535C7.42411 32.6442 7.44789 32.6395 7.4719 32.6395C7.49591 32.6395 7.51969 32.6442 7.54186 32.6535C7.58711 32.6712 7.62358 32.7061 7.64346 32.7504L12.8106 44.6695C12.8297 44.7134 12.8302 44.7631 12.813 44.8078ZM33.83 44.885C29.2289 46.7202 24.8258 45.4658 20.5672 44.2462C18.1386 43.5527 15.8343 42.8953 13.638 42.8738L9.58725 33.5339C10.3882 33.3264 11.124 32.9203 11.7267 32.3532C14.9199 29.008 20.8511 26.4102 26.9002 28.1502C29.2283 28.9008 31.6586 29.2861 34.1047 29.2926C34.9813 29.2955 35.0382 29.3239 35.1381 29.4587C35.3854 30.1356 35.3684 30.881 35.0905 31.5459C34.8892 31.8943 34.6053 32.1877 34.2639 32.4004C33.9225 32.6131 33.5341 32.7385 33.1328 32.7655C32.4458 32.8152 31.7554 32.7839 31.0758 32.672C28.4689 32.3817 24.5291 31.9455 21.1478 35.6607C21.0225 35.7989 20.9543 35.9796 20.9572 36.1663C20.96 36.3529 21.0337 36.5314 21.1632 36.6658C21.2927 36.8001 21.4684 36.8802 21.6547 36.8899C21.841 36.8995 22.0241 36.8379 22.1667 36.7177L23.2983 35.76C25.2885 35.4806 26.5565 36.1491 27.8965 36.8547C29.8705 37.8943 32.1063 39.0727 36.485 36.9877C48.2285 31.3967 50.0353 31.6534 52.0284 33.9149C49.5476 34.8604 42.8064 37.824 33.83 44.885ZM8.08877 45.2108C8.16169 45.3897 8.16136 45.5901 8.08786 45.7687C8.01436 45.9473 7.87359 46.0899 7.69592 46.1656C7.51825 46.2413 7.31795 46.2441 7.13825 46.1734C6.95855 46.1026 6.81386 45.964 6.73543 45.7875L6.24136 44.626C6.17063 44.4476 6.17236 44.2487 6.24617 44.0715C6.31999 43.8944 6.46005 43.7532 6.63649 43.6779C6.81293 43.6026 7.0118 43.5992 7.19069 43.6685C7.36958 43.7377 7.51434 43.8742 7.59411 44.0487L8.08877 45.2108ZM34.478 26.549C37.1025 26.549 39.6681 25.7705 41.8503 24.3119C44.0325 22.8534 45.7333 20.7803 46.7377 18.3547C47.742 15.9292 48.0048 13.2603 47.4928 10.6854C46.9808 8.11046 45.7169 5.74526 43.8611 3.88885C42.0053 2.03245 39.6409 0.76822 37.0668 0.256039C34.4927 -0.256142 31.8246 0.00672794 29.3998 1.01141C26.9751 2.01609 24.9027 3.71745 23.4445 5.90035C21.9864 8.08325 21.2082 10.6496 21.2082 13.275C21.2123 16.7942 22.6117 20.1681 25.0994 22.6566C27.5871 25.145 30.9599 26.5449 34.478 26.549ZM34.478 1.47207C36.8116 1.47207 39.0929 2.1643 41.0332 3.46122C42.9736 4.75814 44.4859 6.60151 45.379 8.75821C46.272 10.9149 46.5057 13.2881 46.0504 15.5776C45.5952 17.8672 44.4714 19.9703 42.8213 21.6209C41.1711 23.2716 39.0687 24.3957 36.7799 24.8511C34.4911 25.3066 32.1186 25.0728 29.9626 24.1795C27.8066 23.2861 25.9638 21.7733 24.6673 19.8324C23.3708 17.8914 22.6788 15.6094 22.6788 13.275C22.6823 10.1458 23.9266 7.14568 26.1386 4.93297C28.3506 2.72026 31.3497 1.4756 34.478 1.47207ZM34.478 22.7316C36.3514 22.7483 38.1875 22.2079 39.7532 21.1789C41.319 20.1499 42.5439 18.6787 43.2724 16.9521C44.0008 15.2256 44.2001 13.3214 43.8448 11.4814C43.4895 9.64131 42.5958 7.94833 41.2769 6.6173C39.9581 5.28627 38.2736 4.3772 36.4374 4.00548C34.6012 3.63376 32.6959 3.81615 30.9635 4.52949C29.2311 5.24283 27.7496 6.45497 26.707 8.01205C25.6645 9.56913 25.1079 11.4009 25.108 13.275C25.0998 15.7711 26.0817 18.1685 27.8383 19.9413C29.5949 21.7142 31.9827 22.7176 34.478 22.7316ZM34.478 5.28945C36.0605 5.27276 37.6122 5.72692 38.9362 6.59426C40.2601 7.46161 41.2965 8.70299 41.9137 10.1608C42.5308 11.6185 42.701 13.2269 42.4024 14.7815C42.1039 16.3362 41.3502 17.7671 40.237 18.8924C39.1239 20.0177 37.7015 20.7866 36.1505 21.1016C34.5996 21.4166 32.99 21.2633 31.5263 20.6613C30.0626 20.0594 28.8108 19.0358 27.9298 17.7206C27.0489 16.4055 26.5785 14.8581 26.5786 13.275C26.5699 11.1689 27.3967 9.1454 28.8776 7.64835C30.3585 6.1513 32.3726 5.30297 34.478 5.28945ZM31.3504 16.1062V15.1817C31.3476 15.0833 31.3646 14.9854 31.4003 14.8938C31.436 14.8021 31.4897 14.7186 31.5583 14.648C31.6268 14.5775 31.7088 14.5214 31.7994 14.4832C31.89 14.4449 31.9873 14.4252 32.0857 14.4252C32.184 14.4252 32.2814 14.4449 32.372 14.4832C32.4625 14.5214 32.5445 14.5775 32.6131 14.648C32.6816 14.7186 32.7354 14.8021 32.7711 14.8938C32.8068 14.9854 32.8238 15.0833 32.821 15.1817V16.1062C32.821 16.2503 33.4271 16.7038 34.478 16.7038C35.5288 16.7038 36.1355 16.2503 36.1355 16.1062V14.6079C36.1355 14.5132 36.1355 14.4238 35.8406 14.3012C35.3667 14.1472 34.8768 14.0474 34.3804 14.0039C33.7565 13.9481 33.1419 13.8147 32.551 13.6066C32.1994 13.4937 31.8932 13.2711 31.6771 12.9715C31.4611 12.6719 31.3466 12.311 31.3504 11.9416V10.4438C31.3504 9.43264 32.3374 8.63583 33.743 8.4285V7.6886C33.7402 7.59027 33.7572 7.49238 33.7929 7.40072C33.8286 7.30907 33.8823 7.22551 33.9509 7.15498C34.0194 7.08445 34.1014 7.02839 34.192 6.9901C34.2826 6.95182 34.3799 6.9321 34.4783 6.9321C34.5766 6.9321 34.6739 6.95182 34.7645 6.9901C34.8551 7.02839 34.9371 7.08445 35.0057 7.15498C35.0742 7.22551 35.1279 7.30907 35.1636 7.40072C35.1994 7.49238 35.2163 7.59027 35.2136 7.6886V8.4285C36.618 8.63583 37.6062 9.43264 37.6062 10.4438V11.3678C37.6089 11.4661 37.5919 11.564 37.5562 11.6556C37.5205 11.7473 37.4668 11.8309 37.3982 11.9014C37.3297 11.9719 37.2477 12.028 37.1571 12.0663C37.0665 12.1045 36.9692 12.1243 36.8708 12.1243C36.7725 12.1243 36.6752 12.1045 36.5846 12.0663C36.494 12.028 36.412 11.9719 36.3434 11.9014C36.2749 11.8309 36.2212 11.7473 36.1855 11.6556C36.1497 11.564 36.1328 11.4661 36.1355 11.3678V10.4438C36.1355 10.2997 35.5294 9.84615 34.478 9.84615C33.4265 9.84615 32.821 10.2997 32.821 10.4438V11.9416C32.821 12.0362 32.821 12.1257 33.1159 12.2482C33.5898 12.4022 34.0797 12.502 34.5761 12.5456C35.2 12.6013 35.8146 12.7347 36.4055 12.9428C36.7571 13.0558 37.0634 13.2783 37.2794 13.5779C37.4955 13.8775 37.61 14.2385 37.6062 14.6079V16.1062C37.6062 17.1168 36.6192 17.9136 35.2136 18.1215V18.8608C35.2163 18.9591 35.1994 19.057 35.1636 19.1487C35.1279 19.2403 35.0742 19.3239 35.0057 19.3944C34.9371 19.465 34.8551 19.521 34.7645 19.5593C34.6739 19.5976 34.5766 19.6173 34.4783 19.6173C34.3799 19.6173 34.2826 19.5976 34.192 19.5593C34.1014 19.521 34.0194 19.465 33.9509 19.3944C33.8823 19.3239 33.8286 19.2403 33.7929 19.1487C33.7572 19.057 33.7402 18.9591 33.743 18.8608V18.1215C32.3379 17.9147 31.3504 17.1168 31.3504 16.1062Z" fill="#13AAA1"/>
</svg>
