<svg width="50" height="51" viewBox="0 0 50 51" fill="none" xmlns="http://www.w3.org/2000/svg">
<path d="M11.113 26.5637C11.5445 26.5637 11.8943 26.2139 11.8943 25.7825C11.8943 25.351 11.5445 25.0012 11.113 25.0012C10.6816 25.0012 10.3318 25.351 10.3318 25.7825C10.3318 26.2139 10.6816 26.5637 11.113 26.5637Z" fill="#13AAA1"/>
<path d="M43.3575 31.3528V18.6497C43.3691 18.1713 43.1906 17.7078 42.8612 17.3608C42.5318 17.0137 42.0783 16.8114 41.6 16.7981H39.6472C39.3209 16.7997 39.0015 16.8928 38.7254 17.0668C38.4492 17.2408 38.2274 17.4887 38.085 17.7825C35.3511 17.3333 32.1407 15.7551 32.0938 15.7317C30.2035 14.8293 28.9928 14.3801 28.942 14.3606C28.8977 14.3434 28.852 14.3304 28.8053 14.3215C27.9369 14.16 27.0562 14.0737 26.1729 14.0637C24.142 14.0637 23.275 14.6301 23.0485 14.8137L17.3697 18.9973C17.0666 19.1408 16.8021 19.3546 16.5983 19.6209C16.3945 19.8873 16.2573 20.1984 16.1981 20.5286C16.1746 20.8024 16.2111 21.078 16.3048 21.3364C16.3985 21.5947 16.5474 21.8296 16.7409 22.0247C17.124 22.3802 17.5752 22.6543 18.0673 22.8302C18.5594 23.0062 19.0821 23.0803 19.6037 23.0481C20.1295 23.0491 20.6536 22.9901 21.166 22.8723C21.8963 22.6926 23.5913 21.427 24.681 20.5754L34.9801 32.2551C35.121 32.4076 35.2919 32.5294 35.4821 32.6127C35.6723 32.6961 35.8777 32.7393 36.0853 32.7395C36.1838 32.7401 36.2821 32.7296 36.3783 32.7083L38.1397 32.3176C38.288 32.5865 38.5049 32.8114 38.7684 32.9692C39.0318 33.127 39.3324 33.2122 39.6394 33.2161H41.5922C41.8307 33.2105 42.0658 33.1578 42.2838 33.061C42.5019 32.9642 42.6986 32.8252 42.8627 32.652C43.0268 32.4788 43.155 32.2748 43.2399 32.0518C43.3248 31.8289 43.3648 31.5913 43.3575 31.3528ZM41.7953 31.3528C41.7953 31.5208 41.6938 31.6418 41.6 31.6418H39.6472C39.5535 31.6418 39.452 31.5168 39.452 31.3528V30.47C39.452 30.2628 39.3697 30.0641 39.2232 29.9175C39.0767 29.771 38.878 29.6887 38.6708 29.6887C38.4637 29.6887 38.265 29.771 38.1185 29.9175C37.972 30.0641 37.8897 30.2628 37.8897 30.47V30.7629L36.1127 31.1536L26.3956 20.1301L25.2903 18.9856C25.1548 18.8444 24.9712 18.7593 24.776 18.747C24.5807 18.7347 24.3879 18.7962 24.2358 18.9192C22.8922 20.0012 21.1816 21.2434 20.7676 21.3606C20.3829 21.4464 19.99 21.4896 19.5959 21.4895C18.9589 21.5337 18.3298 21.3277 17.8423 20.9153C17.8423 20.9153 17.7408 20.7786 17.7486 20.7161C17.7564 20.6536 17.854 20.5129 18.1782 20.3254C18.2055 20.3254 23.978 16.052 23.978 16.052L24.0092 16.0286C24.0092 16.0286 24.5756 15.6379 26.1573 15.6379C26.9316 15.6466 27.7038 15.7211 28.4655 15.8606C28.735 15.9661 29.8403 16.3997 31.4142 17.1497C31.5783 17.2317 34.8785 18.8528 37.8741 19.3372V24.22C37.8741 24.4272 37.9564 24.6259 38.1029 24.7724C38.2494 24.9189 38.448 25.0012 38.6552 25.0012C38.8624 25.0012 39.0611 24.9189 39.2075 24.7724C39.354 24.6259 39.4363 24.4272 39.4363 24.22V18.6497C39.4363 18.4856 39.5379 18.3606 39.6316 18.3606H41.5844C41.6781 18.3606 41.7797 18.4856 41.7797 18.6497L41.7953 31.3528Z" fill="#13AAA1"/>
<path d="M6.21167 39.0442C6.08735 38.8784 5.90228 38.7688 5.69716 38.7395C5.49204 38.7102 5.28368 38.7636 5.11792 38.8879C4.95216 39.0123 4.84258 39.1973 4.81328 39.4025C4.78397 39.6076 4.83735 39.8159 4.96167 39.9817C5.12313 40.1952 5.28719 40.4075 5.45386 40.6184C5.58567 40.7728 5.77237 40.8698 5.97445 40.8889C6.17652 40.908 6.3781 40.8477 6.5365 40.7208C6.6949 40.5938 6.79768 40.4103 6.82309 40.2089C6.84849 40.0075 6.79452 39.8041 6.67261 39.6419C6.51636 39.4439 6.36272 39.2447 6.21167 39.0442Z" fill="#13AAA1"/>
<path d="M4.74703 36.841C4.61943 36.6249 4.48922 36.4061 4.35641 36.1848C4.25747 36.0024 4.09015 35.8669 3.89126 35.8079C3.69237 35.7489 3.4782 35.7714 3.29586 35.8703C3.11353 35.9693 2.97796 36.1366 2.91899 36.3355C2.86002 36.5344 2.88247 36.7485 2.98141 36.9309C3.10901 37.1679 3.23922 37.4009 3.37203 37.6301C3.48364 37.792 3.65219 37.9059 3.84405 37.949C4.03591 37.9921 4.23697 37.9612 4.4071 37.8626C4.57722 37.764 4.7039 37.6048 4.76184 37.4169C4.81978 37.229 4.80473 37.0261 4.71969 36.8488L4.74703 36.841Z" fill="#13AAA1"/>
<path d="M2.20066 30.5639C2.14076 30.3191 2.08477 30.0731 2.03269 29.8257C1.99021 29.6226 1.86881 29.4447 1.69519 29.3312C1.52158 29.2176 1.30996 29.1777 1.10691 29.2202C0.90385 29.2627 0.725984 29.3841 0.612437 29.5577C0.498889 29.7313 0.458962 29.9429 0.501438 30.146C0.556126 30.4064 0.616021 30.6668 0.681126 30.9272C0.730336 31.1287 0.857577 31.3024 1.03486 31.4101C1.21214 31.5178 1.42494 31.5506 1.62644 31.5014C1.82794 31.4522 2.00164 31.325 2.10933 31.1477C2.21702 30.9704 2.24987 30.7576 2.20066 30.5561V30.5639Z" fill="#13AAA1"/>
<path d="M3.2437 33.7942C3.14995 33.5625 3.0588 33.3281 2.97026 33.0911C2.89878 32.8963 2.75285 32.738 2.56458 32.6508C2.37631 32.5636 2.16113 32.5548 1.96636 32.6263C1.77159 32.6978 1.61319 32.8437 1.52602 33.032C1.43884 33.2202 1.43003 33.4354 1.50151 33.6302C1.59526 33.8906 1.69162 34.1419 1.79058 34.3841C1.86828 34.5763 2.01914 34.7297 2.20997 34.8107C2.4008 34.8916 2.61598 34.8934 2.80815 34.8157C3.00033 34.738 3.15377 34.5872 3.23472 34.3963C3.31567 34.2055 3.31749 33.9903 3.23979 33.7981L3.2437 33.7942Z" fill="#13AAA1"/>
<path d="M7.70355 8.80986C7.80757 8.80995 7.91057 8.78926 8.00649 8.74901C8.10241 8.70877 8.18933 8.64977 8.26214 8.57548C8.43923 8.3958 8.61892 8.21871 8.80121 8.04423C8.88057 7.97479 8.94505 7.88999 8.99077 7.79496C9.03648 7.69992 9.06248 7.59662 9.0672 7.49126C9.07192 7.38591 9.05526 7.2807 9.01823 7.18195C8.98119 7.08321 8.92455 6.99299 8.85172 6.91673C8.77889 6.84046 8.69136 6.77973 8.59443 6.7382C8.4975 6.69666 8.39316 6.67518 8.2877 6.67505C8.18224 6.67492 8.07785 6.69614 7.98081 6.73743C7.88378 6.77873 7.79611 6.83924 7.72308 6.91533C7.52777 7.10022 7.33636 7.28902 7.14886 7.48173C7.04113 7.59165 6.96826 7.73093 6.9394 7.88211C6.91054 8.03329 6.92697 8.18962 6.98664 8.33149C7.04631 8.47336 7.14655 8.59445 7.27479 8.67956C7.40303 8.76466 7.55355 8.80999 7.70746 8.80986H7.70355Z" fill="#13AAA1"/>
<path d="M11.6325 44.2668C11.4241 44.1235 11.2184 43.9764 11.0153 43.8253C10.933 43.764 10.8394 43.7196 10.7398 43.6944C10.6403 43.6693 10.5368 43.664 10.4352 43.6789C10.3337 43.6938 10.236 43.7285 10.1479 43.7811C10.0598 43.8337 9.98284 43.9032 9.92154 43.9855C9.86024 44.0678 9.81575 44.1614 9.79063 44.261C9.7655 44.3605 9.76022 44.464 9.77509 44.5655C9.78996 44.6671 9.8247 44.7648 9.8773 44.8529C9.92991 44.941 9.99936 45.018 10.0817 45.0793C10.2978 45.2407 10.5166 45.397 10.7379 45.548C10.9084 45.6661 11.1187 45.7117 11.3227 45.6747C11.5268 45.6377 11.7077 45.5212 11.8258 45.3507C11.9439 45.1803 11.9895 44.97 11.9525 44.7659C11.9155 44.5619 11.799 44.3809 11.6286 44.2628L11.6325 44.2668Z" fill="#13AAA1"/>
<path d="M13.2843 4.57125C13.4208 4.57339 13.5555 4.53972 13.6749 4.4736C13.8937 4.3512 14.1163 4.23271 14.3429 4.11813C14.4337 4.07016 14.5142 4.00479 14.5797 3.92573C14.6452 3.84667 14.6945 3.75548 14.7248 3.65736C14.7551 3.55924 14.7658 3.45612 14.7562 3.35388C14.7467 3.25164 14.717 3.15228 14.6691 3.06149C14.6211 2.97069 14.5557 2.89023 14.4767 2.8247C14.3976 2.75917 14.3064 2.70985 14.2083 2.67956C14.1102 2.64928 14.0071 2.63861 13.9048 2.64818C13.8026 2.65774 13.7032 2.68735 13.6124 2.73531C13.3729 2.85771 13.1359 2.98792 12.9015 3.12594C12.749 3.21028 12.629 3.3432 12.5607 3.50357C12.4925 3.66393 12.4798 3.84252 12.5247 4.01093C12.5696 4.17934 12.6695 4.3279 12.8086 4.43297C12.9476 4.53804 13.1179 4.59359 13.2921 4.59078L13.2843 4.57125Z" fill="#13AAA1"/>
<path d="M8.4416 41.6066C8.36901 41.534 8.28284 41.4765 8.188 41.4372C8.09316 41.3979 7.99151 41.3777 7.88886 41.3777C7.78621 41.3777 7.68456 41.3979 7.58972 41.4372C7.49489 41.4765 7.40871 41.534 7.33613 41.6066C7.26354 41.6792 7.20596 41.7654 7.16668 41.8602C7.1274 41.9551 7.10718 42.0567 7.10718 42.1594C7.10718 42.262 7.1274 42.3637 7.16668 42.4585C7.20596 42.5533 7.26354 42.6395 7.33613 42.7121C7.52623 42.9022 7.72024 43.0884 7.91816 43.2707C7.99185 43.3457 8.07993 43.4051 8.17712 43.4452C8.27431 43.4854 8.3786 43.5055 8.48375 43.5044C8.58891 43.5033 8.69275 43.481 8.78907 43.4388C8.88538 43.3966 8.97219 43.3353 9.04427 43.2588C9.11636 43.1822 9.17225 43.0919 9.20859 42.9932C9.24494 42.8945 9.26098 42.7895 9.25577 42.6845C9.25056 42.5795 9.2242 42.4766 9.17827 42.382C9.13234 42.2874 9.06778 42.203 8.98847 42.134C8.80097 41.9621 8.61868 41.7863 8.4416 41.6066Z" fill="#13AAA1"/>
<path d="M0.935 28.0598C1.03741 28.0504 1.13697 28.021 1.22797 27.9731C1.31898 27.9253 1.39964 27.8599 1.46532 27.7808C1.53101 27.7017 1.58043 27.6104 1.61076 27.5121C1.64108 27.4138 1.65171 27.3106 1.64203 27.2082C1.61859 26.9478 1.59906 26.6965 1.58344 26.4543C1.56893 26.245 1.47189 26.0501 1.31366 25.9124C1.15542 25.7746 0.94896 25.7054 0.739687 25.7199C0.530415 25.7344 0.335476 25.8315 0.197754 25.9897C0.0600315 26.1479 -0.00919165 26.3544 0.00531238 26.5637C0.0339582 26.8241 0.0599999 27.0845 0.0834374 27.3449C0.101957 27.539 0.192374 27.7191 0.336928 27.85C0.481482 27.9808 0.669727 28.0528 0.864687 28.0519L0.935 28.0598Z" fill="#13AAA1"/>
<path d="M10.3398 6.48926C10.5106 6.48898 10.6767 6.43273 10.8125 6.3291C11.013 6.17806 11.2161 6.02962 11.4218 5.88379C11.5055 5.82428 11.5765 5.74889 11.631 5.66192C11.6855 5.57494 11.7223 5.47809 11.7394 5.37689C11.7564 5.27569 11.7533 5.17212 11.7304 5.0721C11.7074 4.97208 11.6649 4.87756 11.6054 4.79395C11.5459 4.71033 11.4705 4.63925 11.3836 4.58478C11.2966 4.5303 11.1997 4.49348 11.0985 4.47643C10.9973 4.45939 10.8938 4.46244 10.7937 4.48542C10.6937 4.50839 10.5992 4.55085 10.5156 4.61035C10.2968 4.7666 10.0807 4.92546 9.86715 5.08691C9.73732 5.18598 9.6418 5.32324 9.59401 5.4794C9.54622 5.63557 9.54857 5.80278 9.60073 5.95754C9.65289 6.11229 9.75224 6.24681 9.88481 6.34219C10.0174 6.43756 10.1765 6.489 10.3398 6.48926Z" fill="#13AAA1"/>
<path d="M1.88424 17.638C1.98117 17.6727 2.084 17.6878 2.1868 17.6826C2.28961 17.6774 2.39038 17.6519 2.4833 17.6076C2.57623 17.5634 2.65949 17.5011 2.72829 17.4246C2.7971 17.348 2.8501 17.2586 2.88424 17.1615C2.96757 16.9193 3.0496 16.6823 3.13033 16.4505C3.20596 16.2573 3.20174 16.042 3.11859 15.8519C3.03544 15.6618 2.88019 15.5125 2.68697 15.4369C2.49376 15.3612 2.27841 15.3655 2.08831 15.4486C1.89821 15.5318 1.74893 15.687 1.6733 15.8802C1.57434 16.1407 1.48059 16.3933 1.39205 16.638C1.35776 16.736 1.34331 16.8397 1.34956 16.9433C1.35581 17.0469 1.38263 17.1482 1.42845 17.2413C1.47426 17.3343 1.53817 17.4174 1.61642 17.4855C1.69468 17.5536 1.78572 17.6055 1.88424 17.638Z" fill="#13AAA1"/>
<path d="M45.8024 14.2045C45.9196 14.4258 46.0315 14.6511 46.1383 14.8803C46.2279 15.0672 46.3882 15.211 46.5837 15.2799C46.7793 15.3487 46.9943 15.3371 47.1813 15.2474C47.3683 15.1578 47.512 14.9976 47.5809 14.802C47.6497 14.6064 47.6381 14.3915 47.5485 14.2045C47.4313 13.9623 47.3115 13.7227 47.1891 13.4857C47.0933 13.3018 46.9283 13.1635 46.7305 13.1013C46.5327 13.039 46.3183 13.0579 46.1344 13.1537C45.9505 13.2495 45.8122 13.4145 45.75 13.6123C45.6877 13.8101 45.7065 14.0245 45.8024 14.2084V14.2045Z" fill="#13AAA1"/>
<path d="M0.747545 24.5517H0.786608C0.984045 24.5523 1.17437 24.4781 1.31931 24.344C1.46425 24.2099 1.55305 24.026 1.56786 23.8291C1.56786 23.5687 1.58478 23.3082 1.61864 23.0478C1.63573 22.8406 1.56982 22.6351 1.43539 22.4765C1.30097 22.3179 1.10904 22.2192 0.901842 22.2021C0.694642 22.185 0.489137 22.2509 0.330537 22.3854C0.171937 22.5198 0.0732332 22.7117 0.0561391 22.9189C0.0353058 23.1793 0.0170766 23.4476 0.00145163 23.7236C-0.00487096 23.8272 0.00950289 23.931 0.043734 24.0289C0.0779652 24.1269 0.131368 24.217 0.200824 24.2941C0.27028 24.3712 0.354398 24.4337 0.448267 24.4779C0.542136 24.5222 0.643876 24.5473 0.747545 24.5517Z" fill="#13AAA1"/>
<path d="M48.646 19.6928C48.5452 19.7121 48.4491 19.7509 48.3633 19.8073C48.2776 19.8636 48.2037 19.9363 48.146 20.0212C48.0884 20.1061 48.048 20.2015 48.0272 20.302C48.0064 20.4025 48.0056 20.5061 48.0249 20.6069C48.0717 20.8543 48.1147 21.103 48.1538 21.353C48.1829 21.5386 48.2779 21.7075 48.4214 21.8287C48.5648 21.9499 48.7472 22.0154 48.935 22.0132H49.0561C49.1591 21.9962 49.2576 21.9589 49.3459 21.9033C49.4342 21.8476 49.5104 21.7749 49.5701 21.6893C49.6298 21.6038 49.6718 21.5071 49.6936 21.4051C49.7153 21.303 49.7164 21.1977 49.6967 21.0952C49.6551 20.8348 49.6095 20.5743 49.56 20.3139C49.5408 20.2131 49.5019 20.1171 49.4456 20.0313C49.3892 19.9455 49.3166 19.8717 49.2317 19.814C49.1468 19.7563 49.0514 19.7159 48.9509 19.6952C48.8504 19.6744 48.7468 19.6736 48.646 19.6928Z" fill="#13AAA1"/>
<path d="M31.8203 1.74731C31.8478 1.64649 31.8548 1.54117 31.8408 1.4376C31.8269 1.33403 31.7923 1.23431 31.7391 1.14434C31.6859 1.05438 31.6152 0.975996 31.5312 0.913838C31.4472 0.85168 31.3516 0.80701 31.25 0.782471V2.302C31.386 2.2691 31.5107 2.20027 31.611 2.10269C31.7114 2.00511 31.7836 1.88238 31.8203 1.74731Z" fill="#13AAA1"/>
<path d="M47.1459 17.3216C47.2292 17.5586 47.3073 17.7982 47.3802 18.0404C47.4414 18.2388 47.5788 18.4048 47.7623 18.5018C47.9458 18.5989 48.1604 18.6191 48.3588 18.558C48.5571 18.4968 48.7231 18.3594 48.8202 18.1759C48.9173 17.9924 48.9375 17.7779 48.8763 17.5795C48.7956 17.319 48.7123 17.0586 48.6263 16.7982C48.5585 16.6024 48.4156 16.4416 48.2292 16.3511C48.0427 16.2606 47.828 16.2479 47.6322 16.3158C47.4364 16.3836 47.2756 16.5265 47.1851 16.7129C47.0946 16.8994 47.0819 17.1141 47.1498 17.3099L47.1459 17.3216Z" fill="#13AAA1"/>
<path d="M1.064 21.0559C1.26703 21.0961 1.47774 21.0542 1.64985 20.9392C1.82196 20.8242 1.94141 20.6456 1.98196 20.4426C2.03144 20.1822 2.08483 19.9361 2.14212 19.7043C2.18874 19.5023 2.1532 19.2901 2.04331 19.1142C1.93343 18.9384 1.7582 18.8135 1.55618 18.7668C1.35416 18.7202 1.1419 18.7558 0.966081 18.8657C0.790266 18.9755 0.665303 19.1508 0.618683 19.3528C0.558787 19.6132 0.502797 19.8736 0.450714 20.134C0.430222 20.2349 0.429843 20.3387 0.449601 20.4397C0.469358 20.5407 0.508863 20.6367 0.565846 20.7224C0.622829 20.808 0.696168 20.8816 0.781655 20.9388C0.867141 20.9961 0.963091 21.0359 1.064 21.0559Z" fill="#13AAA1"/>
<path d="M4.96552 11.3295C5.04831 11.3904 5.14231 11.4344 5.24214 11.459C5.34196 11.4835 5.44565 11.4881 5.54726 11.4725C5.64887 11.4569 5.7464 11.4214 5.83426 11.368C5.92212 11.3147 5.99859 11.2445 6.05927 11.1615C6.20771 10.9584 6.36005 10.7579 6.5163 10.5599C6.63399 10.3961 6.68371 10.193 6.65505 9.9933C6.6264 9.79358 6.52159 9.6127 6.36258 9.48852C6.20357 9.36434 6.00268 9.30649 5.80197 9.32708C5.60127 9.34768 5.41631 9.44512 5.28583 9.59901C5.11917 9.80995 4.95641 10.0248 4.79755 10.2435C4.67693 10.4102 4.62691 10.6177 4.65835 10.821C4.6898 11.0243 4.80018 11.2071 4.96552 11.3295Z" fill="#13AAA1"/>
<path d="M14.5579 46.0012C14.3313 45.8893 14.1074 45.7734 13.886 45.6536C13.7957 45.6048 13.6967 45.5744 13.5947 45.5639C13.4926 45.5534 13.3895 45.5632 13.2912 45.5925C13.1929 45.6219 13.1013 45.6704 13.0217 45.7351C12.9422 45.7999 12.8761 45.8797 12.8274 45.97C12.7787 46.0603 12.7482 46.1593 12.7377 46.2613C12.7273 46.3634 12.737 46.4665 12.7664 46.5648C12.7957 46.6631 12.8442 46.7547 12.909 46.8342C12.9737 46.9138 13.0535 46.9798 13.1438 47.0286C13.3808 47.1562 13.6204 47.2864 13.8626 47.4192C13.9548 47.4686 14.056 47.4991 14.1601 47.5087C14.2643 47.5183 14.3694 47.5068 14.469 47.4751C14.5687 47.4433 14.661 47.3918 14.7404 47.3237C14.8198 47.2556 14.8847 47.1722 14.9313 47.0785C14.9779 46.9848 15.0052 46.8828 15.0116 46.7783C15.018 46.6739 15.0033 46.5693 14.9685 46.4706C14.9336 46.372 14.8793 46.2813 14.8088 46.204C14.7383 46.1268 14.6529 46.0644 14.5579 46.0208V46.0012Z" fill="#13AAA1"/>
<path d="M3.19219 14.3721C3.37358 14.4711 3.58682 14.4942 3.78522 14.4364C3.98363 14.3786 4.15103 14.2445 4.25079 14.0635C4.36798 13.8395 4.49037 13.6182 4.61798 13.3994C4.66927 13.3102 4.70249 13.2117 4.71572 13.1096C4.72896 13.0075 4.72196 12.9038 4.69511 12.8044C4.66827 12.705 4.62212 12.6119 4.55928 12.5303C4.49645 12.4488 4.41817 12.3804 4.32891 12.3291C4.23966 12.2778 4.14117 12.2446 4.03907 12.2314C3.93698 12.2181 3.83328 12.2251 3.73389 12.252C3.6345 12.2788 3.54138 12.325 3.45982 12.3878C3.37827 12.4506 3.3099 12.5289 3.2586 12.6182C3.12579 12.8525 2.99558 13.0882 2.86798 13.3252C2.77384 13.5073 2.75508 13.7192 2.81573 13.915C2.87639 14.1109 3.0116 14.275 3.19219 14.3721Z" fill="#13AAA1"/>
<path d="M42.5254 40.5558C42.3587 40.7433 42.1882 40.9295 42.0137 41.1144C41.8712 41.2651 41.7945 41.4663 41.8004 41.6736C41.8062 41.8809 41.8942 42.0774 42.0449 42.2199C42.1957 42.3623 42.3968 42.439 42.6041 42.4332C42.8115 42.4273 43.008 42.3394 43.1504 42.1886C43.3353 41.9933 43.5163 41.7954 43.6934 41.5949C43.8312 41.4395 43.9016 41.2357 43.8891 41.0284C43.8767 40.8211 43.7824 40.6272 43.627 40.4894C43.4716 40.3516 43.2678 40.2812 43.0605 40.2936C42.8532 40.3061 42.6593 40.4004 42.5215 40.5558H42.5254Z" fill="#13AAA1"/>
<path d="M45.1037 12.2787C45.2456 12.2789 45.3849 12.2405 45.5066 12.1675C45.6283 12.0945 45.7279 11.9897 45.7946 11.8644C45.8612 11.7391 45.8925 11.598 45.885 11.4563C45.8775 11.3146 45.8316 11.1776 45.7521 11.06C45.6011 10.836 45.4474 10.616 45.2912 10.3998C45.1679 10.2315 44.9828 10.119 44.7766 10.0871C44.5703 10.0552 44.3599 10.1066 44.1916 10.2299C44.0232 10.3532 43.9107 10.5383 43.8789 10.7445C43.847 10.9507 43.8984 11.1611 44.0216 11.3295C44.1675 11.5326 44.3107 11.7397 44.4513 11.9506C44.5251 12.0543 44.6231 12.1384 44.7368 12.1956C44.8505 12.2527 44.9764 12.2813 45.1037 12.2787Z" fill="#13AAA1"/>
<path d="M45.6777 37.6339C45.5047 37.52 45.2935 37.4794 45.0906 37.5212C44.8877 37.5629 44.7096 37.6836 44.5957 37.8565C44.4576 38.0675 44.3157 38.2758 44.1699 38.4815C44.0587 38.6511 44.0178 38.8573 44.0559 39.0565C44.0939 39.2557 44.2079 39.4322 44.3738 39.5489C44.5396 39.6655 44.7444 39.7131 44.9447 39.6816C45.145 39.6501 45.3252 39.5419 45.4472 39.38C45.6009 39.1612 45.7519 38.9386 45.9004 38.712C46.013 38.5393 46.0529 38.329 46.0112 38.1271C45.9695 37.9251 45.8496 37.7478 45.6777 37.6339Z" fill="#13AAA1"/>
<path d="M42.3577 9.2591C42.4971 9.4145 42.6924 9.50818 42.9009 9.51954C43.1093 9.53089 43.3137 9.45899 43.4691 9.31965C43.6245 9.18031 43.7181 8.98494 43.7295 8.77652C43.7409 8.56811 43.669 8.36372 43.5296 8.20832C43.3499 8.0104 43.1663 7.81509 42.9788 7.62238C42.8348 7.4732 42.6375 7.38733 42.4301 7.38367C42.2228 7.38 42.0225 7.45885 41.8734 7.60285C41.7242 7.74686 41.6383 7.94423 41.6346 8.15154C41.631 8.35886 41.7098 8.55914 41.8538 8.70832C42.0205 8.89322 42.1885 9.07681 42.3577 9.2591Z" fill="#13AAA1"/>
<path d="M40.0923 42.927C39.8996 43.0885 39.7043 43.2473 39.5063 43.4036C39.4258 43.4672 39.3586 43.546 39.3085 43.6356C39.2585 43.7252 39.2265 43.8238 39.2146 43.9257C39.2026 44.0276 39.2108 44.1309 39.2388 44.2297C39.2667 44.3284 39.3138 44.4207 39.3774 44.5012C39.4411 44.5818 39.5199 44.649 39.6095 44.699C39.6991 44.7491 39.7976 44.781 39.8996 44.793C40.0015 44.805 40.1048 44.7968 40.2035 44.7688C40.3023 44.7409 40.3946 44.6937 40.4751 44.6301C40.686 44.4635 40.8944 44.2942 41.1001 44.1223C41.1786 44.0561 41.2433 43.9752 41.2905 43.884C41.3376 43.7928 41.3664 43.6932 41.3751 43.591C41.3838 43.4887 41.3723 43.3857 41.3412 43.2878C41.3101 43.19 41.26 43.0992 41.1938 43.0208C41.1277 42.9423 41.0467 42.8776 40.9555 42.8304C40.8643 42.7832 40.7648 42.7544 40.6625 42.7457C40.5602 42.737 40.4572 42.7486 40.3594 42.7797C40.2615 42.8108 40.1708 42.8608 40.0923 42.927Z" fill="#13AAA1"/>
<path d="M48.4346 31.1846C48.2362 31.125 48.0223 31.1467 47.8399 31.2449C47.6576 31.3431 47.5216 31.5096 47.462 31.708C47.3891 31.9502 47.3135 32.1898 47.2354 32.4267C47.2028 32.5242 47.1898 32.6271 47.197 32.7296C47.2042 32.8322 47.2315 32.9322 47.2774 33.0242C47.3701 33.2099 47.5327 33.3512 47.7296 33.417C47.9264 33.4828 48.1413 33.4677 48.327 33.375C48.5127 33.2823 48.654 33.1197 48.7198 32.9228C48.8057 32.6624 48.8865 32.402 48.962 32.1416C49.0166 31.9448 48.992 31.7344 48.8935 31.5555C48.7949 31.3767 48.6302 31.2435 48.4346 31.1846Z" fill="#13AAA1"/>
<path d="M47.2906 34.509C47.1968 34.466 47.0953 34.4419 46.9922 34.4382C46.889 34.4346 46.7862 34.4514 46.6896 34.4877C46.593 34.524 46.5045 34.5791 46.4293 34.6498C46.3541 34.7206 46.2937 34.8055 46.2515 34.8997C46.1447 35.1288 46.034 35.3554 45.9195 35.5794C45.8257 35.7643 45.8092 35.9789 45.8737 36.1759C45.9382 36.373 46.0783 36.5364 46.2632 36.6301C46.4481 36.7239 46.6627 36.7403 46.8598 36.6759C47.0569 36.6114 47.2202 36.4713 47.314 36.2864C47.4364 36.0468 47.5536 35.8046 47.6656 35.5598C47.711 35.4664 47.7373 35.3648 47.743 35.2611C47.7487 35.1574 47.7336 35.0535 47.6987 34.9557C47.6638 34.8578 47.6097 34.7679 47.5396 34.6912C47.4695 34.6146 47.3849 34.5526 47.2906 34.509Z" fill="#13AAA1"/>
<path d="M49.0753 27.7356C48.9738 27.7207 48.8702 27.7259 48.7707 27.751C48.6711 27.7761 48.5775 27.8206 48.4951 27.8819C48.4128 27.9432 48.3433 28.0201 48.2907 28.1083C48.2381 28.1965 48.2034 28.2942 48.1886 28.3958C48.1522 28.6562 48.1118 28.9049 48.0675 29.1419C48.0495 29.2429 48.0516 29.3465 48.0737 29.4468C48.0958 29.547 48.1374 29.642 48.1961 29.7261C48.2549 29.8103 48.3297 29.882 48.4162 29.9373C48.5027 29.9925 48.5993 30.0302 48.7003 30.0481C48.8017 30.0661 48.9056 30.0638 49.006 30.0415C49.1065 30.0192 49.2016 29.9773 49.2858 29.9181C49.37 29.8589 49.4417 29.7837 49.4967 29.6967C49.5518 29.6098 49.5891 29.5128 49.6066 29.4114C49.6535 29.151 49.6964 28.8906 49.7355 28.6301C49.7516 28.528 49.7472 28.4236 49.7226 28.3232C49.698 28.2227 49.6537 28.1281 49.5923 28.0449C49.5309 27.9617 49.4536 27.8915 49.3648 27.8384C49.2761 27.7853 49.1777 27.7504 49.0753 27.7356Z" fill="#13AAA1"/>
<path d="M49.997 24.8608C50.0013 24.814 50.0013 24.767 49.997 24.7202C49.997 24.4598 49.9892 24.1915 49.9736 23.9155C49.9648 23.7083 49.874 23.5131 49.7213 23.3728C49.5686 23.2325 49.3664 23.1586 49.1592 23.1675C48.952 23.1763 48.7567 23.267 48.6165 23.4198C48.4762 23.5725 48.4023 23.7747 48.4111 23.9819C48.4111 24.2423 48.4176 24.4936 48.4306 24.7358C48.4269 24.78 48.4269 24.8244 48.4306 24.8686C48.4269 24.9128 48.4269 24.9572 48.4306 25.0014C48.4306 25.2619 48.4306 25.5145 48.4306 25.7593C48.4243 25.9645 48.499 26.164 48.6386 26.3146C48.7783 26.4652 48.9716 26.5548 49.1767 26.5639H49.2158C49.419 26.564 49.6142 26.4849 49.7601 26.3435C49.906 26.202 49.9909 26.0092 49.997 25.8061C49.997 25.5457 49.997 25.2775 49.997 25.0014C50.0013 24.9547 50.0013 24.9076 49.997 24.8608Z" fill="#13AAA1"/>
<path d="M39.3033 6.43851C39.5038 6.59216 39.7004 6.74971 39.8931 6.91117C39.9724 6.97657 40.0637 7.02572 40.162 7.05582C40.2602 7.08592 40.3634 7.09637 40.4657 7.08657C40.568 7.07678 40.6674 7.04693 40.7581 6.99874C40.8489 6.95055 40.9293 6.88495 40.9947 6.8057C41.0601 6.72644 41.1092 6.63508 41.1393 6.53683C41.1694 6.43858 41.1799 6.33536 41.1701 6.23307C41.1603 6.13078 41.1304 6.03142 41.0822 5.94067C41.034 5.84991 40.9684 5.76954 40.8892 5.70414C40.6809 5.53226 40.4712 5.36429 40.2603 5.20023C40.179 5.13739 40.0861 5.09118 39.9869 5.06424C39.8878 5.0373 39.7843 5.03015 39.6823 5.04321C39.5804 5.05627 39.4821 5.08927 39.3929 5.14034C39.3037 5.19141 39.2255 5.25955 39.1626 5.34085C39.0998 5.42216 39.0536 5.51505 39.0266 5.61421C38.9997 5.71338 38.9926 5.81688 39.0056 5.91881C39.0187 6.02073 39.0517 6.11909 39.1027 6.20826C39.1538 6.29743 39.2219 6.37567 39.3033 6.43851Z" fill="#13AAA1"/>
<path d="M17.7095 47.2866C17.4699 47.2084 17.2303 47.1264 16.9908 47.0405C16.8936 47.0022 16.7897 46.9838 16.6853 46.9863C16.5808 46.9889 16.478 47.0123 16.3828 47.0553C16.2876 47.0983 16.202 47.16 16.131 47.2366C16.0601 47.3133 16.0052 47.4034 15.9697 47.5016C15.9341 47.5998 15.9187 47.7042 15.9242 47.8085C15.9297 47.9128 15.956 48.0149 16.0017 48.1089C16.0474 48.2028 16.1114 48.2867 16.1901 48.3554C16.2687 48.4242 16.3603 48.4765 16.4595 48.5092C16.7199 48.6004 16.9803 48.6876 17.2408 48.7709C17.3393 48.8072 17.4442 48.8233 17.5492 48.8181C17.6541 48.813 17.7569 48.7867 17.8514 48.7409C17.946 48.6951 18.0303 48.6306 18.0994 48.5515C18.1684 48.4723 18.2208 48.3801 18.2534 48.2802C18.286 48.1803 18.2981 48.0749 18.289 47.9702C18.28 47.8656 18.2499 47.7638 18.2005 47.6711C18.1512 47.5783 18.0837 47.4964 18.002 47.4304C17.9203 47.3643 17.8261 47.3154 17.7251 47.2866H17.7095Z" fill="#13AAA1"/>
<path d="M16.4673 3.10292C16.5608 3.10248 16.6534 3.08528 16.7408 3.05214C16.9752 2.96359 17.2121 2.87896 17.4517 2.79823C17.5526 2.76864 17.6464 2.71901 17.7276 2.65232C17.8088 2.58562 17.8757 2.50322 17.9243 2.41006C17.973 2.3169 18.0023 2.21488 18.0106 2.11012C18.0189 2.00536 18.0059 1.9 17.9725 1.80036C17.9391 1.70072 17.886 1.60883 17.8163 1.53021C17.7465 1.45159 17.6616 1.38784 17.5667 1.34278C17.4718 1.29773 17.3687 1.27229 17.2637 1.26799C17.1587 1.26369 17.0539 1.28062 16.9556 1.31776C16.6952 1.4037 16.4426 1.49354 16.1978 1.58729C16.0272 1.652 15.8846 1.77437 15.7948 1.9332C15.705 2.09202 15.6736 2.27728 15.7061 2.45682C15.7386 2.63637 15.8329 2.79889 15.9726 2.91619C16.1124 3.03349 16.2888 3.09817 16.4712 3.09901L16.4673 3.10292Z" fill="#13AAA1"/>
<path d="M36.468 4.5598C36.6894 4.6848 36.9068 4.81501 37.1204 4.95043C37.2081 5.00775 37.3066 5.04682 37.4098 5.0653C37.513 5.08379 37.6188 5.08131 37.7211 5.05802C37.8233 5.03473 37.9198 4.9911 38.0048 4.92973C38.0898 4.86837 38.1616 4.79052 38.2159 4.70082C38.2701 4.61113 38.3058 4.51143 38.3208 4.40765C38.3357 4.30388 38.3296 4.19816 38.3028 4.09679C38.2761 3.99543 38.2292 3.90049 38.1649 3.81763C38.1007 3.73476 38.0204 3.66568 37.9289 3.61449C37.6998 3.47647 37.4667 3.34626 37.2297 3.22387C37.1402 3.17257 37.0415 3.13941 36.9391 3.12627C36.8368 3.11313 36.7329 3.12028 36.6333 3.1473C36.5338 3.17432 36.4405 3.22069 36.3588 3.28376C36.2772 3.34683 36.2088 3.42537 36.1575 3.51488C36.1062 3.6044 36.073 3.70314 36.0599 3.80547C36.0467 3.9078 36.0539 4.01172 36.0809 4.11129C36.1079 4.21086 36.1543 4.30413 36.2174 4.38578C36.2804 4.46742 36.359 4.53585 36.4485 4.58715L36.468 4.5598Z" fill="#13AAA1"/>
<path d="M34.3315 46.4853C34.1023 46.5843 33.8706 46.6806 33.6362 46.7744C33.5408 46.8123 33.4538 46.8687 33.3802 46.9403C33.3065 47.0119 33.2477 47.0973 33.2071 47.1916C33.1665 47.2859 33.1448 47.3873 33.1434 47.49C33.1419 47.5926 33.1607 47.6946 33.1987 47.79C33.2367 47.8854 33.293 47.9724 33.3646 48.0461C33.4362 48.1197 33.5216 48.1785 33.6159 48.2191C33.7102 48.2597 33.8116 48.2814 33.9143 48.2828C34.017 48.2843 34.1189 48.2655 34.2143 48.2275C34.4747 48.1286 34.7221 48.0257 34.9565 47.9189C35.0506 47.8779 35.1358 47.8187 35.207 47.7448C35.2783 47.6708 35.3343 47.5836 35.3718 47.488C35.4094 47.3924 35.4277 47.2904 35.4258 47.1877C35.4239 47.085 35.4018 46.9838 35.3608 46.8896C35.3198 46.7955 35.2606 46.7104 35.1867 46.6391C35.1127 46.5678 35.0255 46.5118 34.9299 46.4743C34.8343 46.4368 34.7323 46.4184 34.6296 46.4203C34.5269 46.4222 34.4256 46.4443 34.3315 46.4853Z" fill="#13AAA1"/>
<path d="M37.3428 44.9229C37.1293 45.0557 36.9132 45.1859 36.6944 45.3135C36.5244 45.4216 36.4026 45.5913 36.3547 45.787C36.3068 45.9827 36.3363 46.1894 36.4371 46.3638C36.538 46.5383 36.7023 46.667 36.8959 46.7232C37.0894 46.7793 37.2971 46.7585 37.4757 46.6651C37.7074 46.5297 37.9379 46.3917 38.1671 46.251C38.3432 46.1417 38.4687 45.9669 38.5159 45.7651C38.5632 45.5633 38.5283 45.351 38.419 45.1749C38.3097 44.9987 38.1349 44.8733 37.9331 44.826C37.7313 44.7787 37.519 44.8136 37.3428 44.9229Z" fill="#13AAA1"/>
<path d="M33.3903 3.12614C33.6273 3.21729 33.8617 3.31104 34.0934 3.40739C34.1888 3.44715 34.2911 3.46772 34.3945 3.46794C34.4979 3.46815 34.6003 3.44801 34.6959 3.40865C34.7914 3.3693 34.8783 3.3115 34.9516 3.23856C35.0248 3.16563 35.083 3.07898 35.1227 2.98356C35.1625 2.88815 35.1831 2.78584 35.1833 2.68248C35.1835 2.57911 35.1633 2.47672 35.124 2.38114C35.0846 2.28556 35.0268 2.19867 34.9539 2.12542C34.881 2.05218 34.7943 1.99402 34.6989 1.95427C34.4385 1.8501 34.1885 1.74984 33.9489 1.65349C33.8522 1.61681 33.7492 1.59953 33.6459 1.60265C33.5425 1.60577 33.4407 1.62922 33.3464 1.67166C33.2521 1.7141 33.1671 1.7747 33.0962 1.85C33.0253 1.9253 32.9699 2.01382 32.9333 2.11052C32.8966 2.20721 32.8793 2.31019 32.8824 2.41356C32.8856 2.51693 32.909 2.61867 32.9514 2.71298C32.9939 2.80729 33.0545 2.89232 33.1298 2.96321C33.2051 3.0341 33.2936 3.08946 33.3903 3.12614Z" fill="#13AAA1"/>
<path d="M25.0012 10.1575C25.2084 10.1575 25.4071 10.0752 25.5536 9.92865C25.7002 9.78214 25.7825 9.58342 25.7825 9.37622V0.782471C25.7825 0.57527 25.7002 0.376556 25.5536 0.230044C25.4071 0.0835307 25.2084 0.0012207 25.0012 0.0012207C24.794 0.0012207 24.5953 0.0835307 24.4488 0.230044C24.3023 0.376556 24.22 0.57527 24.22 0.782471V9.37622C24.22 9.58342 24.3023 9.78214 24.4488 9.92865C24.5953 10.0752 24.794 10.1575 25.0012 10.1575Z" fill="#13AAA1"/>
<path d="M21.0957 5.46997C21.3029 5.46997 21.5016 5.38766 21.6481 5.24115C21.7946 5.09464 21.877 4.89592 21.877 4.68872V0.782471C21.877 0.57527 21.7946 0.376556 21.6481 0.230044C21.5016 0.0835307 21.3029 0.0012207 21.0957 0.0012207C20.8885 0.0012207 20.6898 0.0835307 20.5433 0.230044C20.3968 0.376556 20.3145 0.57527 20.3145 0.782471V4.68872C20.3145 4.89592 20.3968 5.09464 20.5433 5.24115C20.6898 5.38766 20.8885 5.46997 21.0957 5.46997Z" fill="#13AAA1"/>
<path d="M28.907 5.46997C29.1142 5.46997 29.3129 5.38766 29.4594 5.24115C29.6059 5.09464 29.6882 4.89592 29.6882 4.68872V0.782471C29.6882 0.57527 29.6059 0.376556 29.4594 0.230044C29.3129 0.0835307 29.1142 0.0012207 28.907 0.0012207C28.6998 0.0012207 28.5011 0.0835307 28.3546 0.230044C28.208 0.376556 28.1257 0.57527 28.1257 0.782471V4.68872C28.1257 4.89592 28.208 5.09464 28.3546 5.24115C28.5011 5.38766 28.6998 5.46997 28.907 5.46997Z" fill="#13AAA1"/>
<path d="M31.25 47.6067V49.22L31.5469 49.1457C31.7339 49.0912 31.8938 48.9688 31.9952 48.8024C32.0966 48.6361 32.1322 48.4379 32.0951 48.2467C32.0579 48.0554 31.9506 47.885 31.7943 47.7688C31.638 47.6525 31.4438 47.5989 31.25 47.6184V47.6067Z" fill="#13AAA1"/>
<path d="M25.0012 39.845C24.794 39.845 24.5953 39.9273 24.4488 40.0738C24.3023 40.2203 24.22 40.419 24.22 40.6262V49.22C24.22 49.4272 24.3023 49.6259 24.4488 49.7724C24.5953 49.9189 24.794 50.0012 25.0012 50.0012C25.2084 50.0012 25.4071 49.9189 25.5536 49.7724C25.7002 49.6259 25.7825 49.4272 25.7825 49.22V40.6262C25.7825 40.419 25.7002 40.2203 25.5536 40.0738C25.4071 39.9273 25.2084 39.845 25.0012 39.845Z" fill="#13AAA1"/>
<path d="M21.0957 44.5325C20.8885 44.5325 20.6898 44.6148 20.5433 44.7613C20.3968 44.9078 20.3145 45.1065 20.3145 45.3137V49.22C20.3145 49.4272 20.3968 49.6259 20.5433 49.7724C20.6898 49.9189 20.8885 50.0012 21.0957 50.0012C21.3029 50.0012 21.5016 49.9189 21.6481 49.7724C21.7946 49.6259 21.877 49.4272 21.877 49.22V45.3137C21.877 45.1065 21.7946 44.9078 21.6481 44.7613C21.5016 44.6148 21.3029 44.5325 21.0957 44.5325Z" fill="#13AAA1"/>
<path d="M28.907 44.5325C28.6998 44.5325 28.5011 44.6148 28.3546 44.7613C28.208 44.9078 28.1257 45.1065 28.1257 45.3137V49.22C28.1257 49.4272 28.208 49.6259 28.3546 49.7724C28.5011 49.9189 28.6998 50.0012 28.907 50.0012C29.1142 50.0012 29.3129 49.9189 29.4594 49.7724C29.6059 49.6259 29.6882 49.4272 29.6882 49.22V45.3137C29.6882 45.1065 29.6059 44.9078 29.4594 44.7613C29.3129 44.6148 29.1142 44.5325 28.907 44.5325Z" fill="#13AAA1"/>
<path d="M38.6631 28.1262C39.0946 28.1262 39.4443 27.7764 39.4443 27.345C39.4443 26.9135 39.0946 26.5637 38.6631 26.5637C38.2316 26.5637 37.8818 26.9135 37.8818 27.345C37.8818 27.7764 38.2316 28.1262 38.6631 28.1262Z" fill="#13AAA1"/>
<path d="M34.4175 33.9036C34.2896 33.8078 34.1718 33.6991 34.066 33.5793L33.3161 32.7278C33.2659 32.8471 33.1898 32.9538 33.0935 33.0403C33.0317 33.1081 32.9571 33.1631 32.874 33.202C32.7909 33.2409 32.7009 33.2629 32.6092 33.2668C32.28 33.2243 31.9698 33.0888 31.7149 32.8762L28.0553 28.97C27.9139 28.8182 27.718 28.7288 27.5108 28.7215C27.3035 28.7142 27.1018 28.7895 26.95 28.9309C26.7983 29.0723 26.7089 29.2682 26.7016 29.4756C26.6943 29.6829 26.7696 29.8846 26.911 30.0364L29.8831 33.2239C30.0236 33.3323 30.1334 33.4753 30.2019 33.639C30.2703 33.8027 30.2951 33.9813 30.2737 34.1575C30.2538 34.388 30.1528 34.6039 29.9886 34.7668C29.808 34.9198 29.576 34.9984 29.3396 34.9868C29.1033 34.9752 28.8801 34.8743 28.7154 34.7043L28.1764 34.1106C28.1443 34.0467 28.1035 33.9876 28.0553 33.9348L24.4348 30.0793C24.2929 29.9281 24.0968 29.8394 23.8895 29.8328C23.6822 29.8262 23.4808 29.9023 23.3295 30.0442C23.1783 30.1861 23.0897 30.3823 23.0831 30.5896C23.0765 30.797 23.1525 30.9984 23.2944 31.1497L26.6884 34.7668C26.7217 34.9163 26.7151 35.0719 26.6691 35.218C26.6232 35.3641 26.5396 35.4954 26.4267 35.5989C26.2475 35.7533 26.0164 35.834 25.7801 35.8246C25.5437 35.8151 25.3198 35.7163 25.1535 35.5481L20.5175 30.8606C20.3704 30.7145 20.1714 30.6329 19.9641 30.6336C19.7568 30.6343 19.5583 30.7174 19.4122 30.8645C19.2662 31.0116 19.1845 31.2107 19.1853 31.418C19.186 31.6254 19.2691 31.8239 19.4161 31.97L23.0483 35.5754L23.0952 35.6106C23.1407 35.7667 23.1411 35.9325 23.0961 36.0888C23.0512 36.245 22.9628 36.3854 22.8414 36.4934C22.7136 36.6309 22.5368 36.7124 22.3492 36.72C22.0258 36.6777 21.7218 36.5419 21.4744 36.3293L13.1516 29.8254C13.0147 29.7174 12.8456 29.6583 12.6712 29.6575H11.8901V29.009C11.8901 28.8018 11.8078 28.6031 11.6613 28.4566C11.5148 28.3101 11.3161 28.2278 11.109 28.2278C10.9018 28.2278 10.7031 28.3101 10.5566 28.4566C10.4101 28.6031 10.3278 28.8018 10.3278 29.009V30.9348C10.3278 31.1301 10.2107 31.2512 10.1326 31.2512H8.17976C8.10165 31.2512 7.98448 31.1262 7.98448 30.9348V18.2864C7.98448 18.0911 8.10165 17.97 8.17976 17.97H10.1326C10.2107 17.97 10.3278 18.095 10.3278 18.2864V22.6575C10.3278 22.8647 10.4101 23.0634 10.5566 23.2099C10.7031 23.3564 10.9018 23.4387 11.109 23.4387C11.3161 23.4387 11.5148 23.3564 11.6613 23.2099C11.8078 23.0634 11.8901 22.8647 11.8901 22.6575V19.5325H14.8466C15.1055 18.9064 15.5344 18.3651 16.0847 17.97H11.8627C11.8072 17.5463 11.6025 17.1563 11.2854 16.87C10.9683 16.5836 10.5596 16.4196 10.1326 16.4075H8.17976C7.69802 16.4248 7.24272 16.6322 6.91339 16.9842C6.58406 17.3363 6.40748 17.8045 6.42224 18.2864V30.9348C6.4075 31.4174 6.58461 31.8861 6.91478 32.2383C7.24494 32.5905 7.70124 32.7974 8.18367 32.8137H10.1365C10.5677 32.8006 10.9797 32.6328 11.2974 32.3409C11.6151 32.049 11.8171 31.6525 11.8666 31.2239H12.4017L20.5175 37.5872C21.0346 38.007 21.6723 38.2506 22.3375 38.2825C22.9098 38.2759 23.4583 38.0526 23.8724 37.6575C24.0981 37.4558 24.2836 37.2132 24.4192 36.9426C24.8754 37.2588 25.4248 37.4123 25.9788 37.3783C26.5328 37.3442 27.0592 37.1248 27.4734 36.7551C27.6776 36.5718 27.8493 36.3552 27.9811 36.1145C28.4357 36.4313 28.9835 36.5862 29.5366 36.5543C30.0898 36.5224 30.6162 36.3056 31.0314 35.9387C31.4049 35.6067 31.6668 35.1674 31.7812 34.6809C32.0475 34.7799 32.3291 34.8314 32.6131 34.8333C33.1816 34.8249 33.7258 34.6016 34.1363 34.2083C34.2385 34.1148 34.3325 34.0129 34.4175 33.9036Z" fill="#13AAA1"/>
</svg>
