<svg width="50" height="50" viewBox="0 0 50 50" fill="none" xmlns="http://www.w3.org/2000/svg">
<path d="M42.9341 28.4905C42.4967 27.8601 41.7778 27.4829 41.0106 27.4829C40.2435 27.4829 39.5246 27.8601 39.0872 28.4905L33.7244 36.2376C32.7048 37.71 32.1652 39.4365 32.1652 41.2297C32.1652 44.1865 33.6408 46.8016 35.8899 48.3906H30.5569V25.8747H24.1239V48.3906H20.9074V30.6995H14.4743V48.3906H11.2578V32.3078H4.82478V48.3906H1.60826V33.4376L10.4537 24.6001L15.2785 29.4249L28.9487 15.7545L33.7735 20.5794L44.2271 10.1256L48.0122 13.9107L50 -0.000976562L36.0886 1.98686L39.8736 5.77114L33.7735 11.8714L28.9487 7.04651L15.2785 20.7169L10.4537 15.8921L1.60826 24.7376V19.4415H6.43304V17.8332H1.60826V16.225H4.82478V14.6167H1.60826V13.0084H6.43304V11.4001H1.60826V9.79184H4.82478V8.18356H1.60826V6.57528H6.43304V4.967H1.60826V3.35872H4.82478V1.75044H1.60826V0.14216H0V49.9989H40.9342H41.0106H41.087C45.9215 49.9989 49.8561 46.0642 49.8561 41.2297C49.8561 39.4373 49.3165 37.71 48.2969 36.2376L42.9341 28.4905ZM10.4537 18.1662L15.2785 22.991L28.9487 9.32062L33.7735 14.1455L42.1477 5.77114L39.4997 3.12311L48.1039 1.89438L46.8751 10.4987L44.2271 7.85065L33.7735 18.3045L28.9487 13.4796L15.2785 27.15L10.4537 22.3252L1.60826 31.1635V27.0117L10.4537 18.1662ZM25.7322 27.4829H28.9487V48.3906H25.7322V27.4829ZM16.0826 32.3078H19.2991V48.3906H16.0826V32.3078ZM6.43304 33.9161H9.64956V48.3906H6.43304V33.9161ZM41.087 48.3906H41.0106H40.9342C36.986 48.3906 33.7735 45.178 33.7735 41.2297C33.7735 39.7654 34.2141 38.3565 35.0472 37.1535L40.4099 29.4064C40.6833 29.0124 41.3379 29.0124 41.6113 29.4064L46.9741 37.1535C47.8071 38.3557 48.2478 39.7646 48.2478 41.2297C48.2478 45.178 45.0353 48.3906 41.087 48.3906Z" fill="#13AAA1"/>
<path d="M41.75 38.1419C42.164 38.1419 42.5 38.4939 42.5 38.9276H44C44 37.628 42.9905 36.5705 41.75 36.5705V34.999H40.25V36.5705H38V38.9276C38 40.2272 39.0095 41.2847 40.25 41.2847H41.75C42.164 41.2847 42.5 41.6367 42.5 42.0705V42.8562H40.25C39.836 42.8562 39.5 42.5042 39.5 42.0705H38C38 43.37 39.0095 44.4276 40.25 44.4276V45.999H41.75V44.4276H44V42.0705C44 40.7709 42.9905 39.7133 41.75 39.7133H40.25C39.836 39.7133 39.5 39.3613 39.5 38.9276V38.1419H41.75Z" fill="#13AAA1"/>
</svg>
