<svg width="24" height="24" viewBox="0 0 24 24" fill="none" xmlns="http://www.w3.org/2000/svg">
<circle cx="12" cy="12" r="12" fill="white"/>
<circle cx="12" cy="12" r="12" fill="white"/>
<circle cx="12" cy="12" r="12" fill="white"/>
<circle cx="12" cy="12" r="12" fill="white"/>
<circle cx="12" cy="12" r="10" fill="#13AAA1"/>
<path d="M17.5388 15.8027C18.7968 14.4374 18.6701 12.6841 18.6661 12.6641V7.33073C18.6661 7.15392 18.5959 6.98435 18.4709 6.85932C18.3458 6.7343 18.1763 6.66406 17.9995 6.66406H13.9995C13.2641 6.66406 12.6661 7.26206 12.6661 7.9974V12.6641C12.6661 12.8409 12.7364 13.0104 12.8614 13.1355C12.9864 13.2605 13.156 13.3307 13.3328 13.3307H15.3848C15.3707 13.6603 15.2722 13.9808 15.0988 14.2614C14.7601 14.7954 14.1221 15.1601 13.2015 15.3441L12.6661 15.4507V17.3307H13.3328C15.1881 17.3307 16.6035 16.8167 17.5388 15.8027ZM10.2008 15.8027C11.4595 14.4374 11.3321 12.6841 11.3281 12.6641V7.33073C11.3281 7.15392 11.2579 6.98435 11.1329 6.85932C11.0078 6.7343 10.8383 6.66406 10.6615 6.66406H6.66146C5.92612 6.66406 5.32812 7.26206 5.32812 7.9974V12.6641C5.32812 12.8409 5.39836 13.0104 5.52339 13.1355C5.64841 13.2605 5.81798 13.3307 5.99479 13.3307H8.04679C8.03271 13.6603 7.93423 13.9808 7.76079 14.2614C7.42213 14.7954 6.78413 15.1601 5.86346 15.3441L5.32812 15.4507V17.3307H5.99479C7.85013 17.3307 9.26546 16.8167 10.2008 15.8027Z" fill="white"/>
</svg>
