<svg width="44" height="44" viewBox="0 0 44 44" fill="none" xmlns="http://www.w3.org/2000/svg">
<path d="M8.35391 16.5879C9.98565 22.9941 9.75002 24.5588 3.57294 27.8323L3.84778 28.3573C10.2616 25.1321 11.2663 26.1062 15.7746 30.7619L16.2967 30.4856C13.2425 24.6429 15.0497 22.578 20.5556 19.5174L20.2808 18.9924C13.4928 22.5778 13.3511 20.7254 8.35391 16.5879Z" fill="#FF2640"/>
<path d="M28.2266 5.41911C29.8578 11.8258 29.6221 13.3905 23.4454 16.6647L23.7202 17.1897C30.1336 13.9639 31.1382 14.938 35.646 19.5938L36.1681 19.3175C33.1144 13.4746 34.9216 11.4093 40.4272 8.34823L40.1524 7.82324C33.3648 11.4093 33.2232 9.55675 28.2266 5.41911Z" fill="#13AAA1"/>
<path d="M28.2266 25.4035C29.8578 31.8101 29.6221 33.3749 23.4454 36.6491L23.7202 37.1741C30.1336 33.9483 31.1382 34.9224 35.646 39.5782L36.1681 39.3019C33.1144 33.4589 34.9216 31.3937 40.4272 28.3326L40.1524 27.8076C33.3648 31.3936 33.2232 29.5411 28.2266 25.4035Z" fill="#2B29A4"/>
</svg>
