<svg width="50" height="50" viewBox="0 0 50 50" fill="none" xmlns="http://www.w3.org/2000/svg">
<ellipse cx="25" cy="25" rx="25" ry="25" fill="#13AAA1"/>
<path d="M26 36.2857C25.8077 36.2853 25.6156 36.2727 25.4249 36.248C23.6633 33.4253 22.688 30.1832 22.5997 26.8571H37.9571C37.9777 26.5726 38 26.2889 38 26C38 23.6266 37.2962 21.3066 35.9776 19.3332C34.6591 17.3598 32.7849 15.8217 30.5922 14.9135C28.3995 14.0052 25.9867 13.7676 23.6589 14.2306C21.3311 14.6936 19.193 15.8365 17.5147 17.5147C15.8365 19.193 14.6936 21.3311 14.2306 23.6589C13.7676 25.9867 14.0052 28.3995 14.9135 30.5922C15.8217 32.7849 17.3598 34.6591 19.3332 35.9776C21.3066 37.2962 23.6266 38 26 38V36.2857ZM36.2429 25.1429H31.1111C31.019 21.9889 30.2121 18.8969 28.7514 16.1C30.773 16.6641 32.5738 17.8325 33.9127 19.4487C35.2516 21.0649 36.0646 23.0517 36.2429 25.1429ZM26.5743 15.752C28.3361 18.5746 29.3118 21.8167 29.4003 25.1429H22.5997C22.6882 21.8167 23.6639 18.5746 25.4257 15.752C25.8075 15.7019 26.1942 15.7019 26.576 15.752H26.5743ZM23.2477 16.0991C21.7873 18.8964 20.9807 21.9886 20.8889 25.1429H15.7571C15.9355 23.0517 16.7485 21.065 18.0874 19.4488C19.4263 17.8327 21.2271 16.6642 23.2486 16.1L23.2477 16.0991ZM15.7571 26.8571H20.8889C20.9811 30.0111 21.788 33.1031 23.2486 35.9C21.2271 35.3358 19.4263 34.1673 18.0874 32.5512C16.7485 30.935 15.9355 28.9483 15.7571 26.8571Z" fill="white"/>
<path fill-rule="evenodd" clip-rule="evenodd" d="M32.8333 33L37 34.6667V33L32.8333 30.9167V28.8333C32.8333 28.6123 32.7455 28.4004 32.5893 28.2441C32.433 28.0878 32.221 28 32 28C31.779 28 31.567 28.0878 31.4107 28.2441C31.2545 28.4004 31.1667 28.6123 31.1667 28.8333V30.9167L27 33V34.6667L31.1667 33V35.9167L29.5 37.1667V38L32 37.1667L34.5 38V37.1667L32.8333 35.9167V33Z" fill="white"/>
</svg>
